<?xml version="1.0" encoding="utf-8"?>
<!-- Generator: Adobe Illustrator 18.0.0, SVG Export Plug-In . SVG Version: 6.00 Build 0)  -->
<!DOCTYPE svg PUBLIC "-//W3C//DTD SVG 1.1//EN" "http://www.w3.org/Graphics/SVG/1.1/DTD/svg11.dtd">
<svg version="1.1" id="Layer_1" xmlns="http://www.w3.org/2000/svg" xmlns:xlink="http://www.w3.org/1999/xlink" x="0px" y="0px"
	 viewBox="0 0 18 18" enable-background="new 0 0 18 18" xml:space="preserve">
<path d="M13.5,3C11,3,9,3.9,9,5c0-1.1-2-2-4.5-2S0,3.9,0,5v11c0-1.1,2-2,4.5-2S9,14.9,9,16c0-1.1,2-2,4.5-2s4.5,0.9,4.5,2V5
	C18,3.9,16,3,13.5,3z M17,13.6c-1-0.4-2.3-0.6-3.5-0.6c-1.2,0-2.5,0.2-3.5,0.6L10,5c0.1-0.3,1.3-1,3.5-1s3.4,0.7,3.5,1V13.6z"/>
</svg>
