<?xml version="1.0" standalone="no"?>
<!DOCTYPE svg PUBLIC "-//W3C//DTD SVG 1.1//EN" "http://www.w3.org/Graphics/SVG/1.1/DTD/svg11.dtd" >
<svg xmlns="http://www.w3.org/2000/svg" xmlns:xlink="http://www.w3.org/1999/xlink" version="1.1">
<metadata></metadata>
<defs>
<font id="roboto_monoregular" horiz-adv-x="1229" >
<font-face units-per-em="2048" ascent="1638" descent="-410" />
<missing-glyph horiz-adv-x="500" />
<glyph horiz-adv-x="0" />
<glyph unicode="&#xd;" />
<glyph horiz-adv-x="0" />
<glyph horiz-adv-x="0" />
<glyph />
<glyph unicode="&#x9;" />
<glyph unicode=" " />
<glyph unicode="!" d="M486 97q0 48 28.5 80t85.5 32t86.5 -32t29.5 -80q0 -46 -29.5 -77t-86.5 -31t-85.5 31t-28.5 77zM504 471v985h186v-985h-186z" />
<glyph unicode="&#x22;" d="M354 1057l1 354v125h150v-109l-21 -370h-130zM712 1057l1 354v125h150l-1 -109l-21 -370h-129z" />
<glyph unicode="#" d="M61 410v137h265l69 354h-258v139h285l82 416h143l-82 -416h264l82 416h143l-82 -416h205v-139h-232l-69 -354h226v-137h-252l-80 -410h-143l80 410h-264l-80 -410h-143l80 410h-239zM469 547h264l69 354h-264z" />
<glyph unicode="$" d="M162 429h185q0 -84 25 -139.5t64.5 -88.5t89.5 -47t101 -14q65 0 117 16t88 46.5t55.5 74t19.5 98.5q1 91 -66.5 156t-214.5 113q-93 29 -168 67t-128.5 90.5t-82.5 120.5t-29 157q0 84 25.5 152t72 118.5t113 81.5t147.5 41v220h149v-220q168 -23 261 -141.5t94 -322.5 h-184q0 67 -16.5 123.5t-48 97t-77.5 63.5t-105 23q-121 0 -183 -63t-63 -170q0 -50 16 -89t50.5 -71t89 -59.5t131.5 -53.5q94 -31 169 -69t127 -89t79.5 -118t27.5 -156q0 -87 -27.5 -156t-77.5 -118.5t-121.5 -79.5t-158.5 -39v-192h-149v191q-78 8 -149.5 36 t-126.5 81.5t-88 134.5t-33 194z" />
<glyph unicode="%" d="M44 1117v77q0 57 17.5 108.5t51 90.5t83.5 61.5t115 22.5q66 0 116.5 -22.5t84 -61.5t51 -90.5t17.5 -108.5v-77q0 -57 -17.5 -108t-51 -89.5t-83.5 -61t-115 -22.5t-115.5 22.5t-84.5 61t-51.5 89.5t-17.5 108zM182 1117q0 -31 7 -59.5t23 -51t40.5 -36t60.5 -13.5 q35 0 59.5 13.5t39.5 36t22.5 51t7.5 59.5v77q0 31 -7.5 60.5t-23 52t-40 36t-60.5 13.5q-35 0 -59.5 -13.5t-40 -36t-22.5 -52t-7 -60.5v-77zM287 250l567 1037l111 -62l-567 -1037zM645 260v78q0 57 17.5 108t51.5 90t84 61.5t115 22.5q66 0 116 -22.5t84 -61.5t51.5 -90 t17.5 -108v-78q0 -57 -17.5 -108t-51.5 -89.5t-83.5 -61t-114.5 -22.5q-66 0 -116.5 22.5t-84.5 61t-51.5 89.5t-17.5 108zM783 260q0 -31 7.5 -60t23 -51.5t40.5 -36t61 -13.5q35 0 59.5 13.5t39.5 36t22 51.5t7 60v78q0 31 -7 60t-22.5 51.5t-40.5 36t-60 13.5 q-36 0 -60.5 -13.5t-40 -36t-22.5 -51.5t-7 -60v-78z" />
<glyph unicode="&#x26;" d="M107 373q0 67 20 124t56 106.5t86 94t111 87.5q-67 91 -106.5 172t-39.5 169q0 85 25.5 150.5t72.5 110t113 67.5t148 23q71 0 129 -25t98.5 -67.5t62.5 -98.5t22 -118q0 -53 -15.5 -96.5t-43 -81.5t-65.5 -72t-82 -67l-94 -80l307 -403q35 64 55 140t21 164h167 q0 -128 -36.5 -237.5t-106.5 -197.5l181 -237h-221l-83 110q-74 -63 -163 -96.5t-187 -33.5q-99 0 -179 29t-136 81t-86.5 124.5t-30.5 158.5zM292 373q0 -51 16 -95t47 -77t77 -52t107 -19q71 0 137 26t123 74l-323 431l-28 -24q-50 -41 -81 -80t-47.5 -73.5t-22 -63 t-5.5 -47.5zM420 1128q0 -56 25 -114.5t70 -123.5l117 93q31 21 51 44t31 46.5t15.5 47.5t4.5 47q0 30 -9.5 58.5t-28 50t-44.5 35t-59 13.5q-43 0 -75.5 -16t-54 -43t-32.5 -62.5t-11 -75.5z" />
<glyph unicode="'" d="M494 1057l1 352v127h158v-111l-21 -368h-138z" />
<glyph unicode="(" d="M357 581v10q0 143 22.5 269t60.5 233.5t87.5 196.5t104 158t109.5 118t105 77l39 -122q-62 -47 -123.5 -128t-110 -196.5t-79 -266t-30.5 -337.5v-14q0 -187 30.5 -338t79 -267t110 -198.5t123.5 -132.5l-39 -113q-50 28 -105.5 76.5t-110 118t-104 158t-87 196 t-60 233.5t-22.5 269z" />
<glyph unicode=")" d="M320 -357q62 46 123.5 128.5t110 199.5t79 269t30.5 339v14q0 187 -32 339.5t-82.5 270t-111 199.5t-117.5 128l39 113q50 -28 105.5 -77t110 -118t104 -158t87.5 -196.5t60.5 -233.5t22.5 -269v-10q0 -143 -22.5 -269t-60.5 -233.5t-87.5 -196t-104 -158t-110 -118 t-105.5 -76.5z" />
<glyph unicode="*" d="M160 779l54 175l365 -151l-25 421h178l-29 -427l363 150l54 -178l-382 -94l256 -324l-146 -110l-214 363l-212 -354l-146 106l261 327z" />
<glyph unicode="+" d="M119 597v184h406v425h185v-425h407v-184h-407v-451h-185v451h-406z" />
<glyph unicode="," d="M354 -273q48 70 68 149t20 164v179h201v-176q0 -47 -11.5 -98.5t-34 -102t-54.5 -96.5t-74 -82z" />
<glyph unicode="-" horiz-adv-x="1230" d="M218 561v152h765v-152h-765z" />
<glyph unicode="." d="M496 120q0 30 9.5 56t27.5 45.5t45 30.5t63 11t63.5 -11t46 -30.5t28 -45.5t9.5 -56q0 -29 -9.5 -54.5t-28 -44.5t-46 -29.5t-63.5 -10.5t-63 10.5t-45 29.5t-27.5 44.5t-9.5 54.5z" />
<glyph unicode="/" d="M252 -125l608 1581h165l-607 -1581h-166z" />
<glyph unicode="0" d="M145 557v341q0 139 32 246.5t92.5 181.5t148 112.5t198.5 38.5q112 0 199.5 -38.5t148 -112.5t92.5 -181.5t32 -246.5v-341q0 -139 -32 -246.5t-92 -181t-147 -111.5t-199 -38q-111 0 -198.5 38t-148.5 111.5t-93.5 181t-32.5 246.5zM331 594l567 435 q-16 145 -84.5 220.5t-197.5 75.5q-146 0 -215.5 -98.5t-69.5 -287.5v-345zM336 419q17 -141 87 -215t195 -74q147 0 215.5 100t68.5 288v334z" />
<glyph unicode="1" d="M208 1075v169l551 212h15v-1456h-185v1220z" />
<glyph unicode="2" d="M85 1027q0 92 32 173.5t92.5 142.5t148 97t199.5 36q103 0 185.5 -30.5t139.5 -84.5t87.5 -128t30.5 -161q0 -65 -22 -128.5t-59.5 -125.5t-87 -122.5t-104.5 -120.5l-391 -424h731v-151h-954v133l477 530q64 71 107 126t69 101.5t37 88t11 85.5q0 54 -17.5 101.5 t-51 82.5t-81 55.5t-107.5 20.5q-73 0 -126.5 -21t-89 -59.5t-53 -93.5t-17.5 -123h-186z" />
<glyph unicode="3" d="M94 384h185q0 -57 19.5 -104t55.5 -80t87.5 -51t114.5 -18t114 16.5t87 50.5t55.5 84.5t19.5 119.5q0 68 -22.5 117.5t-63 82.5t-98 49t-126.5 16h-132v150h132q70 0 123.5 19t90 52t55.5 79t19 101q0 127 -65 191.5t-190 64.5q-59 0 -107.5 -17.5t-83 -50.5t-53.5 -79 t-19 -103h-186q0 83 32.5 156.5t91.5 128t141.5 86t183.5 31.5q98 0 179 -26.5t139 -78.5t90 -129t32 -178q0 -42 -13 -87t-40 -87.5t-69.5 -80t-101.5 -62.5q71 -23 118.5 -60t76 -83t40 -97t11.5 -101q0 -102 -35 -181t-97 -133.5t-146.5 -83t-182.5 -28.5 q-96 0 -180.5 27t-146.5 79t-98.5 127t-36.5 171z" />
<glyph unicode="4" d="M75 338v109l652 1009h197v-967h203v-151h-203v-338h-185v338h-664zM280 489h459v721l-30 -56z" />
<glyph unicode="5" d="M187 383h176q17 -124 91.5 -188t191.5 -64q66 0 117 23.5t85.5 67t52 104.5t17.5 136q0 68 -19.5 127t-56.5 102.5t-91 68.5t-124 25q-46 0 -79.5 -6.5t-60.5 -18.5t-50.5 -29t-48.5 -39l-148 38l73 726h747v-180h-591l-41 -388q43 25 103 44t139 19q101 0 181 -35 t136 -98.5t86 -153.5t30 -200q0 -104 -28 -193t-84.5 -153.5t-142.5 -101t-202 -36.5q-89 0 -168 25t-140.5 75t-101 126t-49.5 177z" />
<glyph unicode="6" d="M141 538v87q0 100 12.5 200.5t42.5 192.5t81 172.5t128.5 139.5t184.5 93t250 34h16v-166h-16q-92 0 -164.5 -19t-127.5 -52t-94.5 -78.5t-65.5 -99.5t-40 -113t-18 -120q26 31 60 57.5t73.5 46t85 31t95.5 11.5q109 0 188 -41.5t130 -109.5t75 -154t24 -175 q0 -102 -28.5 -192t-85.5 -157.5t-141.5 -106.5t-195.5 -39q-79 0 -144.5 23t-117.5 62.5t-91 93.5t-64.5 116t-38.5 129t-13 134zM328 533q0 -96 23 -170.5t62 -125.5t90 -77.5t107 -26.5q65 0 115 25t84.5 69t52 105.5t17.5 133.5q0 64 -16 124.5t-49 107.5t-83 75 t-117 28q-47 0 -91 -15t-82 -42t-67 -65t-46 -84v-62z" />
<glyph unicode="7" d="M112 1294v162h984v-104l-603 -1352h-194l601 1294h-788z" />
<glyph unicode="8" d="M177 393q0 61 17 115.5t49 100t77 81.5t101 60q-48 24 -87 57.5t-66 75t-42 90.5t-15 103q0 95 32 169.5t88.5 125.5t135 78t171.5 27q92 0 171 -27t137 -78t91 -125.5t33 -169.5q-1 -109 -59 -194t-155 -133q56 -24 101.5 -59.5t78 -81.5t50 -100t17.5 -115 q0 -99 -36.5 -176t-99 -129.5t-146.5 -80t-180 -27.5q-98 0 -182.5 27t-147 79.5t-98.5 129.5t-36 177zM363 397q0 -63 19.5 -112.5t55.5 -83.5t87.5 -52t115.5 -18q61 0 112 18t87.5 52t57 83.5t20.5 112.5q0 61 -20.5 112t-57.5 87.5t-88.5 56.5t-112.5 20q-63 0 -114 -20 t-87 -56.5t-55.5 -87.5t-19.5 -112zM397 1073q0 -57 17.5 -102.5t50 -78t77 -50t98.5 -17.5q53 0 98 17.5t77.5 50t50.5 78.5t18 102q0 55 -18.5 101t-51 79.5t-77.5 52t-99 18.5t-98 -17.5t-76 -50.5t-49.5 -79.5t-17.5 -103.5z" />
<glyph unicode="9" d="M149 972q0 103 28.5 194.5t85 160t141 109t196.5 40.5q84 0 151.5 -23.5t119 -65t88.5 -98t60.5 -122t34.5 -137t11 -143.5v-67q0 -93 -9 -190.5t-35.5 -188.5t-74.5 -171.5t-125 -140.5t-187 -95t-261 -35h-19v165h19q99 0 174 17.5t130.5 49.5t92.5 75.5t60.5 96 t34.5 111t14 119.5q-24 -30 -55 -56.5t-70 -46.5t-86.5 -31.5t-103.5 -11.5q-108 0 -186.5 42.5t-129.5 111.5t-75 156t-24 175zM331 982q0 -64 16 -125.5t48.5 -109.5t82 -77.5t116.5 -29.5q47 0 91.5 15.5t82 44t67 67t46.5 85.5v60q0 97 -22.5 173t-61 128.5t-89 80.5 t-107.5 28q-65 0 -115 -26t-84.5 -71.5t-52.5 -108t-18 -134.5z" />
<glyph unicode=":" d="M546 120q0 30 9.5 56t27.5 45.5t45 30.5t63 11t63.5 -11t46 -30.5t28 -45.5t9.5 -56q0 -29 -9.5 -54.5t-28 -44.5t-46 -29.5t-63.5 -10.5t-63 10.5t-45 29.5t-27.5 44.5t-9.5 54.5zM546 996q0 30 9.5 56t27.5 45.5t45 30.5t63 11t63.5 -11t46 -30.5t28 -45.5t9.5 -56 q0 -29 -9.5 -54.5t-28 -44.5t-46 -29.5t-63.5 -10.5t-63 10.5t-45 29.5t-27.5 44.5t-9.5 54.5z" />
<glyph unicode=";" d="M486 -273q48 70 68 149t20 164v179h201v-176q0 -47 -11.5 -98.5t-34 -102t-54.5 -96.5t-74 -82zM537 996q0 30 9.5 56t27.5 45.5t45 30.5t63 11t63.5 -11t46 -30.5t28 -45.5t9.5 -56q0 -29 -9.5 -54.5t-28 -44.5t-46 -29.5t-63.5 -10.5t-63 10.5t-45 29.5t-27.5 44.5 t-9.5 54.5z" />
<glyph unicode="&#x3c;" d="M170 575v146l848 378v-196l-612 -240l-53 -17l53 -18l612 -236v-196z" />
<glyph unicode="=" d="M173 365v160h893v-160h-893zM173 780v161h893v-161h-893z" />
<glyph unicode="&#x3e;" d="M178 197v192l647 244l60 17l-60 19l-647 240v191l883 -378v-146z" />
<glyph unicode="?" d="M191 1116q1 84 35 151t91.5 113.5t136 71t169.5 24.5q101 0 180.5 -25.5t134.5 -74.5t84 -119t29 -160q0 -72 -25 -135.5t-64 -120t-87.5 -105.5t-95.5 -91q-30 -29 -46.5 -55t-24.5 -53t-10 -57.5t-2 -69.5h-185q1 72 6 118.5t21 83t46 70t80 79.5q34 35 69.5 72 t65 77.5t48.5 85.5t19 95q0 109 -63 166.5t-180 57.5q-47 0 -91.5 -11.5t-79 -36t-55.5 -62t-21 -89.5h-185zM490 97q0 48 28.5 80t85.5 32t86.5 -32t29.5 -80q0 -46 -29.5 -77t-86.5 -31t-85.5 31t-28.5 77z" />
<glyph unicode="@" d="M69 691q4 103 25 200.5t57.5 182.5t88 155.5t115.5 121.5t140.5 79t162.5 28q122 0 217 -47.5t159.5 -135.5t96.5 -211.5t28 -274.5q-3 -80 -19 -163.5t-48.5 -151.5t-83.5 -111t-125 -43q-61 0 -101.5 32t-57.5 89q-35 -56 -86.5 -88.5t-113.5 -32.5q-49 0 -85 26 t-58.5 73t-31 112t-2.5 143q9 111 37 200.5t72.5 152t103.5 96t130 33.5q67 0 111 -26.5t70 -62.5l-44 -504q-3 -41 2 -66.5t14.5 -40t23.5 -19.5t30 -5q37 0 65.5 28.5t47.5 77t29 113.5t11 138q4 127 -21 228t-76.5 171t-126.5 107t-171 37q-101 0 -184.5 -47.5 t-144.5 -132.5t-96 -203t-39 -258q-5 -136 19 -242t77 -179.5t135.5 -112t194.5 -38.5q30 0 61 4.5t61 13t57 20.5t49 27l32 -117q-25 -19 -57 -33t-67 -23.5t-71 -14t-68 -4.5q-147 0 -252.5 51.5t-172 144.5t-96 221.5t-24.5 281.5zM470 674q-5 -102 17 -159t70 -57 q49 0 89 27t70 90l39 445q-28 13 -58 13q-53 0 -92.5 -25.5t-66.5 -72t-43.5 -113t-24.5 -148.5z" />
<glyph unicode="A" d="M81 0l470 1456h155l462 -1456h-184l-115 377h-486l-117 -377h-185zM433 538h387l-192 632z" />
<glyph unicode="B" d="M172 0v1456h433q90 -1 176 -23.5t153 -69.5t107 -120q39 -71 39 -170q0 -59 -18 -109q-18 -47 -48.5 -84.5t-71.5 -65.5t-87 -48q58 -17 106.5 -48.5t83.5 -76t54.5 -100.5t19.5 -126q0 -99 -39 -175q-40 -78 -107 -130.5t-154.5 -80.5t-180.5 -29h-466zM358 157h285 q58 1 110 19.5t92 51.5t63.5 81t23.5 109v5q0 59 -20 105q-22 48 -60 81.5t-89 51.5t-110 20h-295v-524zM358 835h258q52 1 102 16.5t89 45t63 72.5t24 100q0 61 -23.5 104t-63 70.5t-91 40.5t-105.5 14h-253v-463z" />
<glyph unicode="C" d="M107 626v203q1 81 14.5 160t41 151t69 133.5t99 106.5t130.5 70.5t164 25.5q109 0 195 -33.5t148 -95t99.5 -147.5t49.5 -190h-185q-9 66 -31 123t-59 100t-90.5 67.5t-126.5 24.5q-66 0 -116.5 -21.5t-87 -58.5t-61 -86t-39.5 -104t-21.5 -112.5t-6.5 -111.5v-205 q0 -54 6.5 -111.5t21.5 -113t39 -104.5t61 -86.5t87 -59t117 -21.5q73 0 126.5 23t90.5 64.5t59 98t31 122.5h185q-13 -101 -52 -185.5t-101.5 -145t-148 -94t-190.5 -33.5q-90 0 -163.5 25.5t-131 70.5t-99 106t-69 133t-41 151t-14.5 160z" />
<glyph unicode="D" d="M155 0v1456h337q152 -2 271.5 -51.5t202 -138t126 -212t44.5 -273.5v-107q-1 -150 -44.5 -273.5t-126 -212t-202 -138t-271.5 -50.5h-337zM343 151h149q118 1 204 41.5t142.5 110.5t84 165t28.5 206v109q-1 111 -29 205.5t-84 164t-142 109.5t-204 42h-149v-1153z" />
<glyph unicode="E" d="M182 0v1456h885v-158h-700v-468h608v-157h-608v-516h709v-157h-894z" />
<glyph unicode="F" d="M191 0v1456h894v-158h-707v-498h606v-157h-606v-643h-187z" />
<glyph unicode="G" d="M100 643v169q1 81 14.5 161.5t41.5 154.5t70 137.5t100.5 110t132.5 73.5t166 27q102 0 188 -31.5t150 -90t103 -141t48 -184.5h-183q-11 63 -34 116.5t-60.5 91.5t-89.5 59.5t-121 21.5q-66 0 -117 -22.5t-89 -60.5t-63 -88.5t-41 -106.5t-23 -114t-7 -112v-171 q1 -55 9.5 -113.5t26.5 -114.5t46 -106t67.5 -88t91.5 -60.5t118 -23.5h15q31 0 64 3q42 4 81 16t73 32.5t57 53.5l2 327h-296v156h472l3 -534q-92 -108 -211 -160q-117 -51 -256 -51h-5q-90 1 -165.5 27.5t-135.5 73t-105 109.5t-75.5 136.5t-46 154t-16.5 162.5z" />
<glyph unicode="H" d="M141 0v1456h174v-626h597v626h175v-1456h-175v673h-597v-673h-174z" />
<glyph unicode="I" d="M174 0v160h341v1135h-341v161h880v-161h-349v-1135h349v-160h-880z" />
<glyph unicode="J" d="M98 421h188q3 -61 24.5 -113t58.5 -90.5t88.5 -59.5t115.5 -21q66 0 118 24.5t88.5 66.5t56 97.5t21.5 117.5v1013h189v-1013q-2 -101 -38.5 -186t-99.5 -146.5t-148.5 -96t-186.5 -34.5q-102 0 -185.5 31t-145 88.5t-98.5 139t-46 182.5z" />
<glyph unicode="K" d="M172 0v1456h189v-711l141 176l427 535h225l-509 -637l543 -819h-225l-440 676l-162 -184v-492h-189z" />
<glyph unicode="L" d="M198 0v1456h185v-1299h712v-157h-897z" />
<glyph unicode="M" d="M148 0v1456h229l237 -728l256 728h230v-1456h-180v581l15 608l-269 -784h-106l-247 763l15 -587v-581h-180z" />
<glyph unicode="N" d="M143 0v1456h188l565 -1086l3 1086h187v-1456h-188l-565 1088l-3 -1088h-187z" />
<glyph unicode="O" d="M106 644v166q1 78 13.5 157.5t39 153.5t67 138.5t96.5 113t128.5 76t162.5 27.5t163 -27.5t129 -75.5t96.5 -112.5t67 -138.5t39 -154t13.5 -158v-166q-1 -78 -13.5 -157.5t-38.5 -153.5t-66.5 -138t-96.5 -112t-128.5 -75.5t-162.5 -27.5t-162.5 27.5t-128.5 75.5 t-97 112.5t-67.5 138.5t-39.5 153t-14 157zM288 644q1 -51 7.5 -108t21.5 -112.5t39 -106.5t60 -89.5t85 -61.5t114 -23t114.5 23t85 61.5t59 89t38 106t20 112.5t6.5 109v168q-1 52 -7 108.5t-20.5 112t-38.5 106t-60 89t-85 61t-114 22.5q-64 0 -113 -23t-85 -61.5 t-60 -89t-38.5 -106t-21 -112t-7.5 -107.5v-168z" />
<glyph unicode="P" d="M191 0v1456h472q98 -2 185.5 -31t153.5 -84t104.5 -136t38.5 -186t-38.5 -185.5t-104.5 -135.5t-153.5 -84t-185.5 -30h-287v-584h-185zM376 736h287q64 1 118 20.5t94 55.5t62.5 87.5t22.5 117.5t-22.5 119t-62 90t-94 57t-118.5 21h-287v-568z" />
<glyph unicode="Q" d="M94 663v128q1 80 14 162t40 158t68 142.5t98.5 116t132 78t167.5 28.5t167.5 -28.5t132 -77.5t99 -115.5t68 -142.5t39.5 -158.5t14 -162.5v-128q-1 -81 -14 -163t-39.5 -158t-68 -142.5t-99.5 -115.5l251 -209l-127 -121l-288 244q-62 -18 -134 -18q-93 0 -167 28.5 t-131.5 77.5t-99.5 115.5t-69 142.5t-40 157.5t-14 161.5zM278 663q0 -54 6.5 -113.5t21.5 -117.5t39.5 -110t61.5 -92t88.5 -63.5t119.5 -23.5q69 0 120.5 23.5t88.5 63t61 91.5t38.5 110t20 117.5t6.5 114.5v130q-1 55 -6.5 114.5t-20 117t-39 109.5t-61.5 91.5 t-88.5 62.5t-120.5 23q-68 0 -119 -23.5t-88 -63t-61.5 -91.5t-39.5 -109.5t-21.5 -117t-6.5 -113.5v-130z" />
<glyph unicode="R" d="M181 0v1456h427q102 -2 192 -29t157.5 -81t106 -135.5t38.5 -191.5q0 -71 -20.5 -130t-56.5 -107t-86 -85t-110 -63l309 -622l-1 -12h-195l-286 594h-291v-594h-184zM365 746h248q62 1 117 19.5t96.5 53.5t65.5 85.5t24 116.5q0 70 -23 122.5t-64 88t-97.5 53.5 t-123.5 19h-243v-558z" />
<glyph unicode="S" d="M118 420h189q9 -68 37 -120.5t72 -89t101.5 -55t125.5 -18.5q54 0 106.5 13.5t93.5 42t67 72t26 103.5q0 67 -30.5 113t-78.5 77.5t-105.5 52.5t-110.5 38q-77 25 -156.5 60t-145 86t-107 120.5t-41.5 163.5t41.5 168t108.5 125t152 77.5t171 26.5q95 0 183 -31.5 t156 -88.5t109 -138t43 -181h-190q-8 63 -31 114.5t-61 88.5t-90.5 57.5t-118.5 20.5q-53 0 -103.5 -15t-90 -45t-63 -74t-23.5 -102q1 -63 32 -106.5t78.5 -73.5t103 -50t104.5 -35q54 -17 109 -38.5t106 -49.5t95 -63t77 -79.5t51.5 -98t18.5 -118.5q0 -98 -43.5 -171 t-112.5 -121.5t-156 -73t-174 -24.5q-97 0 -190 30t-166.5 86.5t-119.5 138t-49 185.5z" />
<glyph unicode="T" d="M76 1298v158h1080v-158h-450v-1298h-180v1298h-450z" />
<glyph unicode="U" d="M139 470l2 986h176l4 -986q1 -65 20.5 -125t56 -106t91 -74t125.5 -28t125 27.5t90.5 74t55.5 106.5t21 125l3 986h179l2 -986q-2 -102 -37 -191t-98 -155.5t-150 -105t-191 -38.5q-106 0 -193 38t-149 104.5t-97 156t-36 191.5z" />
<glyph unicode="V" d="M71 1456h198l341 -1158l344 1158h197l-459 -1456h-161z" />
<glyph unicode="W" d="M73 1456h176l111 -1062l187 1062h161l188 -1062l111 1062h175l-177 -1456h-189l-187 1097l-189 -1097h-190z" />
<glyph unicode="X" d="M87 0l434 734l-423 722h217l310 -571l314 571h218l-423 -722l433 -734h-216l-322 582l-323 -582h-219z" />
<glyph unicode="Y" d="M61 1456h211l331 -731l332 731h210l-453 -913l-3 -543h-172l-3 543z" />
<glyph unicode="Z" d="M114 144l725 1154h-712v158h923l2 -141l-727 -1158h754v-157h-963z" />
<glyph unicode="[" d="M426 -312v1976h396v-152h-221v-1672h221v-152h-396z" />
<glyph unicode="\" d="M231 1456h167l608 -1581h-167z" />
<glyph unicode="]" d="M405 -160h222v1672h-222v152h397v-1976h-397v152z" />
<glyph unicode="^" d="M231 677l320 779h127l319 -779h-171l-198 486l-15 68l-15 -68l-195 -486h-172z" />
<glyph unicode="_" d="M155 0h917v-151h-917v151z" />
<glyph unicode="`" d="M415 1481h223l175 -266h-150z" />
<glyph unicode="a" d="M156 300q0 89 35.5 156t100.5 111.5t156.5 66.5t204.5 22h202v85q0 49 -18 88t-51 66.5t-80.5 42.5t-106.5 15q-55 0 -98.5 -14t-73.5 -37t-46.5 -54.5t-16.5 -65.5h-186q1 59 30.5 116t85 102.5t135 73.5t180.5 28q92 0 171 -22.5t136.5 -68t90.5 -113.5t33 -159v-503 q0 -54 10 -114.5t28 -105.5v-16h-193q-11 21 -17.5 52.5t-9.5 65.5q-28 -28 -62.5 -53t-76 -44t-88.5 -30t-100 -11q-86 0 -155.5 25t-118 67.5t-75 101t-26.5 126.5zM341 326q0 -40 13.5 -74t40.5 -58.5t68 -38.5t95 -14t101 14t85.5 37t66.5 52.5t44 61.5v219h-172 q-162 0 -252 -48t-90 -151z" />
<glyph unicode="b" d="M175 0v1536h185v-570q53 66 128 101t175 35q104 0 184 -41t134 -114t82 -174.5t28 -222.5v-21q0 -116 -28 -216.5t-82 -174.5t-133.5 -116t-182.5 -42q-104 0 -180.5 37t-130.5 106l-9 -123h-170zM360 305q18 -36 42.5 -66.5t56.5 -53.5t72 -35.5t88 -12.5 q76 0 130.5 31.5t89 85.5t51 125t16.5 150v21q0 79 -15.5 150.5t-49.5 126t-89 86.5t-135 32q-48 0 -88 -12.5t-71.5 -35t-56 -53t-41.5 -66.5v-473z" />
<glyph unicode="c" d="M143 520v42q0 107 31 205t92.5 172.5t153.5 118.5t215 44q96 0 176.5 -30.5t139 -83t91.5 -124.5t33 -154h-175q-1 49 -21.5 92.5t-55.5 76.5t-83.5 52t-104.5 19q-86 0 -144.5 -34.5t-94.5 -90t-51.5 -124.5t-15.5 -139v-42q0 -71 15.5 -140.5t51 -125t94 -90 t145.5 -34.5q50 0 97.5 16t84.5 44.5t59.5 67t23.5 83.5h175q-1 -72 -37.5 -137.5t-97.5 -115t-140 -79t-165 -29.5q-123 0 -215 44t-153.5 118.5t-92.5 172t-31 205.5z" />
<glyph unicode="d" d="M139 529v21q0 121 30.5 222.5t87 174.5t136.5 114t179 41q97 0 169.5 -32.5t125.5 -94.5v561h185v-1536h-170l-8 114q-54 -66 -129 -100t-175 -34q-98 0 -177.5 42t-135.5 116t-87 174.5t-31 216.5zM324 529q0 -79 17 -150t52.5 -125t90.5 -85.5t132 -31.5q47 0 85 11 t69 31.5t55 49t42 63.5v502q-36 66 -97 108.5t-152 42.5q-78 0 -133.5 -32t-91 -86.5t-52.5 -126t-17 -150.5v-21z" />
<glyph unicode="e" d="M135 503v42q0 131 42 234.5t111.5 175t158 109.5t181.5 38q117 0 204.5 -40.5t145.5 -112t86.5 -168.5t28.5 -210v-83h-773q3 -74 28.5 -139t70 -113.5t106.5 -76.5t137 -28q99 0 176 40t128 106l113 -88q-27 -41 -67.5 -78.5t-93.5 -66.5t-120 -46.5t-146 -17.5 q-114 0 -209.5 39t-163.5 109t-106 166t-38 209zM326 640h582v14q-3 54 -20.5 107t-51.5 95t-85.5 68t-122.5 26q-56 0 -106 -20.5t-90 -60t-67.5 -97t-38.5 -132.5z" />
<glyph unicode="f" horiz-adv-x="1230" d="M152 939v143h298v76q0 104 30.5 182.5t86 131.5t133.5 80t174 27q66 0 128.5 -11t128.5 -28l-22 -153q-41 14 -95.5 24.5t-116.5 10.5q-130 -1 -195.5 -66t-65.5 -198v-76h417v-143h-417v-939h-186v939h-298z" />
<glyph unicode="g" d="M140 529v21q0 121 29.5 222.5t85.5 174.5t136 114t181 41q100 0 175.5 -35.5t128.5 -102.5l9 118h168v-1059q0 -107 -33.5 -190t-94 -141t-144.5 -88t-186 -30q-42 0 -96 9.5t-109.5 31t-107 57.5t-88.5 89l96 111q34 -41 70 -69.5t73 -45.5t74 -24.5t74 -7.5 q66 0 119 19t90.5 55.5t57.5 90.5t20 124v93q-54 -62 -127.5 -94.5t-170.5 -32.5q-99 0 -179 42t-135.5 116t-85.5 174.5t-30 216.5zM325 529q0 -79 16.5 -150t52 -125t90.5 -85.5t132 -31.5q48 0 86.5 11.5t69 32.5t54.5 50t42 64v496q-18 34 -42 62t-55 48.5t-69 32 t-84 11.5q-78 0 -133.5 -32t-91 -86.5t-52 -126t-16.5 -150.5v-21z" />
<glyph unicode="h" d="M174 0v1536h185v-615q58 85 143 132.5t191 48.5q85 0 154.5 -24.5t118.5 -76.5t75.5 -131.5t26.5 -188.5v-681h-185v683q1 133 -63 198q-63 64 -178 64h-4q-89 0 -161.5 -43.5t-117.5 -115.5v-786h-185z" />
<glyph unicode="i" d="M203 0v160h368v761h-368v161h553v-922h353v-160h-906zM547 1366q0 46 27.5 77.5t83.5 31.5q55 0 83 -31.5t28 -77.5q0 -45 -28 -75t-83 -30q-56 0 -83.5 30t-27.5 75z" />
<glyph unicode="j" d="M211 -420l13 152q17 -3 43 -5.5t52.5 -4t51 -2t38.5 -0.5q52 0 98 13.5t80 45.5t53.5 84.5t19.5 129.5v928h-361v161h546v-1089q0 -104 -28.5 -184t-83 -134.5t-133 -83t-178.5 -28.5q-57 0 -106.5 3.5t-104.5 13.5zM634 1367q0 45 27 76.5t83 31.5t84 -31.5t28 -76.5 t-28 -75.5t-84 -30.5t-83 30.5t-27 75.5z" />
<glyph unicode="k" d="M176 0v1536h186v-940l121 130l355 356h225l-438 -451l505 -631h-235l-397 505l-136 -131v-374h-186z" />
<glyph unicode="l" d="M203 0v160h368v1215h-368v161h553v-1376h353v-160h-906z" />
<glyph unicode="m" d="M93 0v1082h166l5 -102q33 57 86.5 89t129.5 33q149 0 199 -116q32 52 84.5 83.5t127.5 32.5q119 0 183 -73t64 -221v-808h-176v810q0 135 -123 135h-2q-33 0 -57 -9t-40 -24.5t-25 -36t-12 -42.5v-833h-176v811q0 65 -29 100q-28 34 -89 34h-3q-58 0 -90 -23t-47 -61 v-861h-176z" />
<glyph unicode="n" d="M174 0v1082h166l13 -160q59 84 145 131.5t192 48.5q85 0 154.5 -24t118.5 -75t75.5 -129.5t26.5 -186.5v-687h-185v683q0 72 -16 122t-47.5 81t-77 45t-104.5 14q-93 0 -163.5 -46.5t-112.5 -122.5v-776h-185z" />
<glyph unicode="o" d="M122 529v22q0 117 34 217.5t97.5 174.5t154.5 116.5t205 42.5q115 0 206.5 -42.5t155 -116.5t97.5 -174.5t34 -217.5v-22q0 -117 -34 -217t-97.5 -174t-154.5 -116t-205 -42q-115 0 -206.5 42t-155 116t-97.5 174t-34 217zM307 529q0 -80 19 -152.5t57.5 -127.5t96.5 -87 t135 -32q76 0 133.5 32t96 87t57.5 127.5t19 152.5v22q0 79 -19.5 151.5t-58 127.5t-96 87.5t-134.5 32.5t-134 -32.5t-95.5 -87.5t-57.5 -127.5t-19 -151.5v-22z" />
<glyph unicode="p" d="M173 -416v1498h169l9 -118q54 67 130.5 102.5t177.5 35.5q104 0 184 -41t134 -114t82 -174.5t28 -222.5v-21q0 -116 -28 -216.5t-82 -174.5t-133.5 -116t-181.5 -42q-99 0 -174.5 32t-129.5 92v-520h-185zM358 276q36 -64 96 -104.5t152 -40.5q77 0 133 32.5t92 87.5 t53.5 127t17.5 151v21q0 79 -17.5 150.5t-54 126t-92.5 86.5t-134 32q-89 0 -149.5 -41.5t-96.5 -106.5v-521z" />
<glyph unicode="q" d="M140 529v21q0 121 29 222.5t85 174.5t137.5 114t185.5 41q96 0 169.5 -32.5t127.5 -94.5l8 107h170v-1498h-185v514q-54 -57 -126 -87.5t-166 -30.5q-103 0 -183.5 42t-136.5 116t-85.5 174.5t-29.5 216.5zM325 529q0 -79 17.5 -151t53.5 -127t91.5 -87.5t132.5 -32.5 q89 0 149 40t98 104v534q-19 31 -43.5 56.5t-55 44.5t-67 29.5t-79.5 10.5q-77 0 -133 -33t-92.5 -88.5t-54 -127.5t-17.5 -151v-21z" />
<glyph unicode="r" d="M329 0v1082h176l9 -172q66 89 158.5 140.5t210.5 51.5q26 0 54 -1.5t53.5 -5t47 -8.5t35.5 -11l-25 -181q-54 12 -102.5 17.5t-101.5 5.5q-130 0 -210.5 -59t-118.5 -165v-694h-186z" />
<glyph unicode="s" d="M175 333h185q4 -57 30.5 -96t66 -63t87.5 -34t95 -10q117 0 185 43t69 114q0 33 -13 59.5t-44 48.5t-82 40.5t-127 33.5q-93 19 -169.5 46t-131 64.5t-84.5 88t-30 117.5q0 66 31 123.5t87 100.5t133.5 68t170.5 25q100 0 180 -26t136 -72t86.5 -107.5t30.5 -132.5h-185 q0 35 -18 68.5t-50 59.5t-77.5 42t-102.5 16q-59 0 -103.5 -13t-74 -35t-44.5 -51t-15 -60q0 -32 12 -57t41.5 -45t79 -36t125.5 -31q100 -21 179 -48.5t133 -66t82.5 -89.5t28.5 -118q0 -72 -32.5 -131t-90.5 -101t-139 -65t-177 -23q-110 0 -196 29.5t-145.5 78t-91 112.5 t-31.5 133z" />
<glyph unicode="t" d="M142 939v143h284v262h186v-262h412v-143h-412v-588q0 -63 16 -104t44 -65.5t64.5 -34.5t77.5 -10q30 0 62 3.5t62.5 8.5t57 10.5t43.5 9.5l26 -131q-23 -14 -56 -24.5t-72 -18t-82.5 -11.5t-86.5 -4q-72 0 -134.5 20.5t-108.5 65t-72.5 115t-26.5 170.5v588h-284z" />
<glyph unicode="u" d="M180 439v643h185v-645q0 -88 14 -146t42 -92.5t68.5 -48.5t93.5 -14q113 0 182.5 46t103.5 124v776h186v-1082h-168l-11 149q-54 -80 -135 -124.5t-187 -44.5q-85 0 -154 26.5t-118 82.5t-75.5 142.5t-26.5 207.5z" />
<glyph unicode="v" d="M98 1082h190l310 -816l17 -67l18 67l303 816h189l-441 -1082h-141z" />
<glyph unicode="w" d="M48 1082h164l126 -690l22 -155l27 155l173 690h119l172 -690l29 -170l27 170l120 690h164l-230 -1082h-146l-169 663l-28 168l-27 -168l-167 -663h-146z" />
<glyph unicode="x" d="M110 0l414 547l-403 535h214l286 -401l289 401h217l-403 -535l414 -547h-214l-299 412l-299 -412h-216z" />
<glyph unicode="y" d="M68 1082h207l297 -698l48 -131l330 829h207l-549 -1249q-19 -42 -48.5 -89t-71.5 -87t-98 -67t-129 -27q-13 0 -29 1.5t-32 4t-30 5.5t-23 5l30 151q7 0 19 -1t25 -2t25 -1.5t19 -0.5q38 0 69.5 21t56 50t42 60t27.5 51l74 144z" />
<glyph unicode="z" d="M160 0v136l646 793h-637v153h880v-131l-653 -800h689v-151h-925z" />
<glyph unicode="{" d="M323 543v145q141 0 209.5 64.5t68.5 209.5v170q0 53 9 107.5t28 106t48.5 96.5t71.5 79t96.5 54t123.5 22l21 -115q-72 -2 -114.5 -34t-64 -81.5t-27.5 -111.5t-6 -123v-170q-1 -120 -56 -210.5t-171 -137.5q116 -46 171 -136.5t56 -209.5v-169q0 -62 10 -123.5 t34.5 -111t65 -81.5t102.5 -34l-21 -115q-65 2 -118 22t-95 54t-72.5 79t-51 96.5t-30.5 106t-10 107.5v169q0 144 -68.5 209t-209.5 66z" />
<glyph unicode="|" d="M540 -398v1854h149v-1854h-149z" />
<glyph unicode="}" d="M323 -251q61 2 102 34t65.5 81.5t35 111t10.5 123.5v169q0 119 55 209.5t171 136.5q-116 47 -171 137.5t-55 210.5v170q0 61 -6.5 123t-28 111.5t-63.5 81.5t-114 34l20 115q69 -2 123.5 -22t96.5 -54t71.5 -79t48.5 -96.5t28 -106t9 -107.5v-170q0 -145 69 -209.5 t209 -64.5v-145q-140 -1 -209 -66t-69 -209v-169q0 -80 -22 -161.5t-68.5 -148.5t-117.5 -110t-169 -45z" />
<glyph unicode="~" d="M48 473q0 66 22 126t61.5 105t94.5 71.5t122 26.5q46 0 87.5 -9.5t80.5 -27.5t76.5 -44t76.5 -58q57 -48 105.5 -73.5t104.5 -24.5q35 0 65.5 16t53 42.5t35.5 61.5t13 73l134 -18q0 -66 -22 -127t-62 -108t-95 -75t-122 -28q-47 0 -87.5 9t-79 27t-76 44t-77.5 60 q-55 45 -105 71.5t-106 25.5q-35 0 -65.5 -14.5t-52.5 -39t-35 -58t-13 -71.5z" />
<glyph unicode="&#xa0;" />
<glyph unicode="&#xa1;" d="M498 990q0 48 29 80.5t86 32.5q56 0 85.5 -32.5t29.5 -80.5q0 -46 -29.5 -77.5t-85.5 -31.5q-57 0 -86 31.5t-29 77.5zM522 -372v983h185v-983h-185z" />
<glyph unicode="&#xa2;" d="M147 520v42q0 95 24.5 182.5t72.5 159t120.5 121t168.5 67.5v226h185v-222q80 -12 146 -46.5t114 -85.5t74.5 -116t26.5 -138h-175q-1 49 -21.5 92.5t-55.5 76.5t-83.5 52t-104.5 19q-86 0 -144.5 -34.5t-94.5 -90t-51.5 -124.5t-15.5 -139v-42q0 -71 15.5 -140.5 t51 -125t94 -90t145.5 -34.5q50 0 97.5 16t84.5 44.5t59.5 67t23.5 83.5h175q-1 -64 -30 -122.5t-78 -106t-114.5 -80.5t-138.5 -45v-232h-185v235q-96 18 -168.5 67.5t-120.5 120.5t-72.5 159t-24.5 183z" />
<glyph unicode="&#xa3;" d="M113 626v152h160l-9 261q0 102 33.5 183t92.5 137.5t141 86.5t178 30t172 -28t128.5 -79t80.5 -122t28 -158h-186q0 63 -19.5 107.5t-53 73t-77 42t-91.5 13.5q-51 0 -95.5 -19.5t-76.5 -56t-50.5 -90t-18.5 -120.5l8 -261h320v-152h-315l8 -226q0 -69 -14.5 -135 t-46.5 -114h738l-1 -151h-1030v151h75q27 7 45.5 35t29.5 64.5t15 77t4 72.5l-8 226h-165z" />
<glyph unicode="&#xa4;" d="M103 109l112 115q-38 63 -58 136.5t-20 154.5q0 86 22 163t64 142l-120 124l131 135l117 -122q60 44 131.5 68t151.5 24t152 -24.5t132 -69.5l120 125l132 -136l-124 -128q40 -64 62 -140t22 -161q0 -80 -20 -152.5t-56 -134.5l116 -119l-132 -136l-107 111 q-62 -50 -137 -77t-160 -27t-159.5 27t-136.5 75l-104 -108zM309 515q0 -74 25 -140t68.5 -115.5t103 -79t128.5 -29.5t128 29.5t102.5 79t68 115.5t24.5 140t-24.5 140t-68 115.5t-102.5 78.5t-128 29t-128.5 -29t-103 -78.5t-68.5 -115.5t-25 -140z" />
<glyph unicode="&#xa5;" d="M33 1456h212l369 -677l369 677h212l-421 -720h318v-121h-388l-1 -2v-167h389v-120h-389v-326h-185v326h-380v120h380v169h-380v121h316z" />
<glyph unicode="&#xa6;" d="M511 -270v791h185v-791h-185zM511 698v758h185v-758h-185z" />
<glyph unicode="&#xa7;" d="M87 -64l185 2q0 -78 30 -131.5t78 -87t108 -48t120 -14.5q70 0 126 16t95.5 44t60.5 67t21 86q0 48 -19 83t-61 63.5t-108.5 54.5t-162.5 55q-106 29 -192.5 63.5t-147.5 83.5t-94 116t-33 162q0 94 48 163.5t134 110.5q-66 49 -101.5 117t-35.5 168q0 84 35.5 151.5 t99.5 115.5t154 73.5t199 25.5q114 0 205 -28.5t154.5 -83t98 -135t34.5 -184.5h-185q0 58 -20.5 109.5t-59.5 89t-96.5 59.5t-130.5 22q-75 0 -131.5 -16.5t-95 -45t-57.5 -67.5t-19 -84q0 -52 17 -88t57.5 -64.5t107.5 -53t167 -52.5q108 -30 194.5 -65t147.5 -83 t93.5 -114.5t32.5 -160.5q0 -97 -49 -166t-137 -109q69 -48 105.5 -116t36.5 -168q0 -88 -35.5 -156t-100 -115t-154 -71.5t-198.5 -24.5q-98 0 -191.5 22.5t-166.5 73t-118 133t-45 202.5zM278 553q0 -53 18 -90t59 -66.5t109 -54.5t168 -53q44 -13 84 -25t77 -26 q76 20 119 69.5t44 120.5q0 48 -20 84.5t-63 66.5t-111 56.5t-164 55.5q-45 12 -85.5 24.5t-77.5 26.5q-78 -18 -117.5 -68t-39.5 -121z" />
<glyph unicode="&#xa8;" d="M287 1371q0 45 27.5 75.5t81.5 30.5t82 -30.5t28 -75.5t-28 -75t-82 -30t-81.5 30t-27.5 75zM717 1369q0 45 27.5 76t81.5 31t82 -31t28 -76q0 -44 -28 -74.5t-82 -30.5t-81.5 30.5t-27.5 74.5z" />
<glyph unicode="&#xa9;" d="M90 542q0 78 18.5 149.5t52.5 134t82.5 113.5t107.5 87t128 56t144 20q113 0 210 -44t168.5 -119.5t112.5 -177.5t41 -219t-41 -219.5t-112.5 -179t-168.5 -120.5t-210 -44t-210.5 44t-169 120.5t-112.5 179t-41 219.5zM177 542q0 -98 34 -184.5t94 -151t141.5 -101.5 t176.5 -37q94 0 175.5 37.5t141.5 102t94 150.5t34 184q0 97 -34 182.5t-94 149.5t-141.5 100.5t-175.5 36.5q-95 0 -176.5 -36.5t-141.5 -100.5t-94 -149.5t-34 -182.5zM353 498v87q0 62 18 115.5t51 92.5t81 61t110 22q118 0 184 -60t66 -175h-110q-1 71 -34.5 104 t-105.5 33q-38 0 -66.5 -15t-47.5 -40.5t-28 -61t-9 -75.5v-88q0 -41 9 -76t28 -61t47.5 -41t66.5 -15q72 0 105 33t34 105h110q0 -116 -65.5 -175.5t-183.5 -59.5q-62 0 -110 22t-81 60.5t-51 91.5t-18 116z" />
<glyph unicode="&#xaa;" d="M284 918q0 112 86.5 171.5t244.5 59.5h141v52q-1 65 -32 100t-94 35q-67 0 -107.5 -26.5t-41.5 -78.5l-161 12q1 51 23.5 94t63 74t97.5 48t126 17q65 0 118.5 -17.5t91 -52t58.5 -86.5t21 -120v-314q0 -48 6 -92t20 -89h-165q-15 44 -21 97q-30 -43 -86 -76.5 t-140 -34.5q-118 0 -183.5 61t-65.5 166zM446 922q0 -45 32 -69.5t94 -24.5q27 0 56.5 8.5t55 23t45 32.5t27.5 36v109h-140q-79 0 -124.5 -33t-45.5 -82z" />
<glyph unicode="&#xab;" d="M212 506v19l295 389h141l-258 -399l258 -397h-141zM547 506v19l295 389h141l-258 -399l258 -397h-141z" />
<glyph unicode="&#xac;" d="M189 639v161h830v-425h-185v264h-645z" />
<glyph unicode="&#xad;" horiz-adv-x="1230" d="M218 561v152h765v-152h-765z" />
<glyph unicode="&#xae;" d="M87 540q0 117 41 219.5t112.5 178.5t169 119.5t210.5 43.5t210 -43.5t168.5 -119.5t112.5 -178.5t41 -219.5t-41 -219.5t-112.5 -178t-168.5 -119.5t-210 -44t-210.5 44t-169 119.5t-112.5 178t-41 219.5zM174 540q0 -98 34 -183.5t94 -149.5t141.5 -101t176.5 -37 q94 0 175.5 37t141.5 101t94 149.5t34 183.5t-34 184t-94 149.5t-141.5 100t-175.5 36.5q-95 0 -176.5 -36.5t-141.5 -100t-94 -149.5t-34 -184zM401 232v635h211q55 0 99 -12t75.5 -36t48.5 -60t17 -84q0 -56 -35 -95t-101 -61l147 -287h-110l-120 253h-125v-253h-107z M508 582h119q48 1 83 24t35 65q0 55 -30 77t-103 22h-104v-188z" />
<glyph unicode="&#xaf;" d="M257 1313v143h714v-143h-714z" />
<glyph unicode="&#xb0;" d="M361 1216q0 53 20.5 100.5t55 83t81 56t98.5 20.5q51 0 96.5 -20.5t79.5 -56t54 -83t20 -100.5t-20 -100t-54 -81.5t-79.5 -54.5t-96.5 -20q-52 0 -98.5 20t-81 54.5t-55 81t-20.5 100.5zM485 1216q0 -27 10.5 -50.5t28 -41t41.5 -27t51 -9.5t50 9.5t40.5 27t27 41 t9.5 50.5q0 28 -9.5 52.5t-27 42.5t-40.5 28t-50 10t-51 -10t-41.5 -28t-28 -42.5t-10.5 -52.5z" />
<glyph unicode="&#xb1;" d="M156 703v152h385v412h168v-412h363v-152h-363v-414h-168v414h-385zM195 1v151h835v-151h-835z" />
<glyph unicode="&#xb2;" d="M316 1205q0 54 21 102t60 83.5t94.5 56t124.5 20.5q66 0 119 -16.5t90 -47.5t57 -74.5t20 -98.5q0 -40 -13.5 -75.5t-39 -70t-61 -70t-78.5 -74.5l-175 -145h399v-128h-599v108l288 271q65 60 93 103.5t28 78.5q0 49 -33 79.5t-91 30.5q-74 0 -109.5 -37.5t-36.5 -95.5 h-158z" />
<glyph unicode="&#xb3;" d="M323 888h158q1 -46 40.5 -75.5t104.5 -29.5q68 0 106 30t37 81q0 63 -43.5 89t-115.5 26h-84v116h84q70 0 108 29t38 80q0 45 -33 74t-100 29q-57 0 -94 -24t-38 -68h-157q0 51 22.5 92t61 69.5t90.5 44t112 15.5q64 0 118 -14.5t93 -43t60.5 -70.5t21.5 -97 q0 -56 -35.5 -101t-100.5 -70q150 -42 150 -184q0 -56 -23.5 -99t-65 -72t-97.5 -44.5t-120 -15.5q-57 0 -110.5 13.5t-95 42t-67 72.5t-25.5 105z" />
<glyph unicode="&#xb4;" d="M410 1215l184 266h224l-268 -266h-140z" />
<glyph unicode="&#xb5;" d="M188 -416v1498h185v-622q0 -100 16 -164t45.5 -101t70 -51t88.5 -14q107 0 169.5 41t91.5 112v799h186v-1082h-167l-9 116q-44 -65 -108.5 -100.5t-154.5 -35.5q-146 0 -228 73v-469h-185z" />
<glyph unicode="&#xb6;" d="M211 988q0 101 32.5 186.5t95.5 148t154.5 98t209.5 35.5h273v-1456h-186v520h-87q-118 0 -209.5 35t-154.5 97t-95.5 148t-32.5 188z" />
<glyph unicode="&#xb7;" d="M504 729q0 48 29 80t86 32q56 0 85.5 -32t29.5 -80q0 -47 -29.5 -78.5t-85.5 -31.5q-57 0 -86 31.5t-29 78.5z" />
<glyph unicode="&#xb8;" d="M461 -328q34 0 64 5.5t52.5 17.5t36 30.5t13.5 45.5q0 25 -10 42t-30.5 27.5t-50.5 16.5t-70 9l31 134h133l-12 -52q29 -5 56.5 -17t49 -32t34.5 -50.5t13 -73.5q0 -97 -79 -153t-224 -57z" />
<glyph unicode="&#xb9;" d="M386 1209v128l354 117h18v-789h-157v601z" />
<glyph unicode="&#xba;" d="M272 1024v117q0 73 24 134.5t68.5 106t107.5 69.5t142 25t142.5 -25t108 -69.5t68 -106t23.5 -134.5v-117q0 -72 -23.5 -133.5t-67.5 -106t-107 -69.5t-142 -25q-80 0 -143.5 25t-108 69.5t-68.5 106t-24 133.5zM435 1024q0 -42 11 -77.5t33.5 -61.5t56.5 -41t80 -15 q44 0 77.5 15t55.5 41t33.5 61.5t11.5 77.5v117q0 41 -11.5 76.5t-34 62t-56 41.5t-78.5 15t-78.5 -15t-56 -41.5t-33.5 -62t-11 -76.5v-117z" />
<glyph unicode="&#xbb;" d="M241 152l258 398l-258 399h142l294 -389v-19l-294 -389h-142zM586 152l258 398l-258 399h142l294 -389v-19l-294 -389h-142z" />
<glyph unicode="&#xbc;" d="M74 1166v115l319 105h16v-710h-141v541zM289 287l513 954l114 -66l-514 -954zM552 244l339 466h145v-441h96v-117h-96v-152h-141v152h-338zM694 269h201v260l-15 -25z" />
<glyph unicode="&#xbd;" d="M64 1162v115l319 105h16v-710h-141v541zM229 287l513 954l114 -66l-514 -954zM585 484q0 49 18.5 92t54 75t85.5 50.5t112 18.5q59 0 106.5 -15t81 -42.5t51.5 -67t18 -88.5q0 -36 -12 -68t-35 -63t-55 -63t-71 -67l-157 -131h359v-115h-539v97l259 244q58 54 83.5 93 t25.5 71q0 44 -30 71.5t-82 27.5q-66 0 -98 -34t-33 -86h-142z" />
<glyph unicode="&#xbe;" d="M62 870h142q1 -42 36.5 -68.5t94.5 -26.5q61 0 95 27t33 73q0 57 -39 80.5t-104 23.5h-75v104h75q63 0 97.5 26t34.5 72q0 41 -30 67t-90 26q-51 0 -84.5 -21.5t-34.5 -61.5h-141q0 46 20 83t55 62.5t81.5 39.5t100.5 14q58 0 106.5 -13t83.5 -38.5t54.5 -63.5t19.5 -87 q0 -51 -32 -91.5t-91 -62.5q135 -38 135 -166q0 -50 -21 -89t-58.5 -65t-87.5 -40t-108 -14q-51 0 -99.5 12t-85.5 38t-60 65.5t-23 94.5zM356 286l513 954l114 -66l-514 -954zM582 244l339 466h145v-441h96v-117h-96v-152h-141v152h-338zM724 269h201v260l-15 -25z" />
<glyph unicode="&#xbf;" d="M204 -13q0 72 23.5 136t60 120.5t82 106t90.5 92.5q29 29 45 54t23.5 51.5t9 56.5t1.5 69h185q-1 -71 -5.5 -117t-19.5 -82t-44.5 -69.5t-78.5 -78.5q-31 -35 -64 -72.5t-60.5 -78.5t-45 -86t-17.5 -96q0 -109 58 -166.5t167 -57.5q43 0 83.5 11.5t72 36t50.5 62t19 89.5 h185q-1 -84 -32.5 -151t-86.5 -113.5t-129.5 -71t-161.5 -24.5q-97 0 -173.5 25.5t-129 74.5t-80 119t-27.5 160zM509 988q0 48 29 80.5t86 32.5t86 -32.5t29 -80.5q0 -46 -29 -77.5t-86 -31.5t-86 31.5t-29 77.5z" />
<glyph unicode="&#xc0;" d="M81 0l470 1456h155l462 -1456h-184l-115 377h-486l-117 -377h-185zM312 1827h223l175 -266h-150zM433 538h387l-192 632z" />
<glyph unicode="&#xc1;" d="M81 0l470 1456h155l462 -1456h-184l-115 377h-486l-117 -377h-185zM433 538h387l-192 632zM543 1558l184 266h224l-268 -266h-140z" />
<glyph unicode="&#xc2;" d="M81 0l470 1456h155l462 -1456h-184l-115 377h-486l-117 -377h-185zM328 1599v26l245 239h112l248 -240v-25h-154l-150 151l-149 -151h-152zM433 538h387l-192 632z" />
<glyph unicode="&#xc3;" d="M81 0l470 1456h155l462 -1456h-184l-115 377h-486l-117 -377h-185zM285 1628q0 45 15.5 86.5t42.5 73t64.5 50.5t83.5 19q42 0 75.5 -15t65 -32.5t64 -32.5t71.5 -15q21 0 40 9t32.5 24t22 35.5t8.5 43.5l103 -30q0 -45 -15.5 -86t-42.5 -71.5t-65 -48.5t-83 -18 q-33 0 -59 7t-47.5 17.5t-40.5 23t-38.5 23t-41.5 17.5t-49 7q-44 0 -72.5 -32.5t-29.5 -78.5zM433 538h387l-192 632z" />
<glyph unicode="&#xc4;" d="M81 0l470 1456h155l462 -1456h-184l-115 377h-486l-117 -377h-185zM302 1718q0 45 27.5 75.5t81.5 30.5t82 -30.5t28 -75.5t-28 -75t-82 -30t-81.5 30t-27.5 75zM433 538h387l-192 632zM732 1716q0 45 27.5 76t81.5 31t82 -31t28 -76q0 -44 -28 -74.5t-82 -30.5 t-81.5 30.5t-27.5 74.5z" />
<glyph unicode="&#xc5;" d="M81 0l470 1456h155l462 -1456h-184l-115 377h-486l-117 -377h-185zM424 1732q0 43 16.5 79.5t44 63t65 41.5t79.5 15t78.5 -15t64 -41.5t43.5 -63t16 -79.5t-16 -79t-43.5 -61.5t-64 -39.5t-78.5 -14t-79.5 14t-65 39.5t-44 61.5t-16.5 79zM433 538h387l-192 632z M523 1732q0 -22 8.5 -41t23 -33.5t33.5 -22.5t41 -8t40.5 8t32.5 22t22 33t8 42q0 48 -29.5 78.5t-73.5 30.5t-75 -30.5t-31 -78.5z" />
<glyph unicode="&#xc6;" d="M32 0l560 1456h580v-152h-337l2 -471h302v-151h-302l1 -531h357v-151h-531l-1 353h-310l-123 -353h-198zM414 527h249l-2 706z" />
<glyph unicode="&#xc7;" d="M107 626v203q1 81 14.5 160t41 151t69 133.5t99 106.5t130.5 70.5t164 25.5q109 0 195 -33.5t148 -95t99.5 -147.5t49.5 -190h-185q-9 66 -31 123t-59 100t-90.5 67.5t-126.5 24.5q-66 0 -116.5 -21.5t-87 -58.5t-61 -86t-39.5 -104t-21.5 -112.5t-6.5 -111.5v-205 q0 -54 6.5 -111.5t21.5 -113t39 -104.5t61 -86.5t87 -59t117 -21.5q73 0 126.5 23t90.5 64.5t59 98t31 122.5h185q-13 -101 -52 -185.5t-101.5 -145t-148 -94t-190.5 -33.5q-90 0 -163.5 25.5t-131 70.5t-99 106t-69 133t-41 151t-14.5 160zM515 -328q34 0 64 5.5t52.5 17.5 t36 30.5t13.5 45.5q0 25 -10 42t-30.5 27.5t-50.5 16.5t-70 9l31 134h133l-12 -52q29 -5 56.5 -17t49 -32t34.5 -50.5t13 -73.5q0 -97 -79 -153t-224 -57z" />
<glyph unicode="&#xc8;" d="M182 0v1456h885v-158h-700v-468h608v-157h-608v-516h709v-157h-894zM302 1827h223l175 -266h-150z" />
<glyph unicode="&#xc9;" d="M182 0v1456h885v-158h-700v-468h608v-157h-608v-516h709v-157h-894zM533 1558l184 266h224l-268 -266h-140z" />
<glyph unicode="&#xca;" d="M182 0v1456h885v-158h-700v-468h608v-157h-608v-516h709v-157h-894zM318 1599v26l245 239h112l248 -240v-25h-154l-150 151l-149 -151h-152z" />
<glyph unicode="&#xcb;" d="M182 0v1456h885v-158h-700v-468h608v-157h-608v-516h709v-157h-894zM292 1718q0 45 27.5 75.5t81.5 30.5t82 -30.5t28 -75.5t-28 -75t-82 -30t-81.5 30t-27.5 75zM722 1716q0 45 27.5 76t81.5 31t82 -31t28 -76q0 -44 -28 -74.5t-82 -30.5t-81.5 30.5t-27.5 74.5z" />
<glyph unicode="&#xcc;" d="M174 0v160h341v1135h-341v161h880v-161h-349v-1135h349v-160h-880zM250 1827h223l175 -266h-150z" />
<glyph unicode="&#xcd;" d="M174 0v160h341v1135h-341v161h880v-161h-349v-1135h349v-160h-880zM481 1558l184 266h224l-268 -266h-140z" />
<glyph unicode="&#xce;" d="M174 0v160h341v1135h-341v161h880v-161h-349v-1135h349v-160h-880zM266 1599v26l245 239h112l248 -240v-25h-154l-150 151l-149 -151h-152z" />
<glyph unicode="&#xcf;" d="M174 0v160h341v1135h-341v161h880v-161h-349v-1135h349v-160h-880zM241 1718q0 45 27.5 75.5t81.5 30.5t82 -30.5t28 -75.5t-28 -75t-82 -30t-81.5 30t-27.5 75zM671 1716q0 45 27.5 76t81.5 31t82 -31t28 -76q0 -44 -28 -74.5t-82 -30.5t-81.5 30.5t-27.5 74.5z" />
<glyph unicode="&#xd0;" horiz-adv-x="1259" d="M-44 666v151h229v639h337q152 -2 271.5 -51.5t202 -138t126 -212t44.5 -273.5v-107q-1 -150 -44.5 -273.5t-126 -212t-202 -138t-271.5 -50.5h-337v666h-229zM373 151h149q118 1 204 41.5t142.5 110.5t84 165t28.5 206v109q-1 111 -29 205.5t-84 164t-142 109.5t-204 42 h-149v-487h220v-151h-220v-515z" />
<glyph unicode="&#xd1;" d="M143 0v1456h188l565 -1086l3 1086h187v-1456h-188l-565 1088l-3 -1088h-187zM246 1628q0 45 15.5 86.5t42.5 73t64.5 50.5t83.5 19q42 0 75.5 -15t65 -32.5t64 -32.5t71.5 -15q21 0 40 9t32.5 24t22 35.5t8.5 43.5l103 -30q0 -45 -15.5 -86t-42.5 -71.5t-65 -48.5 t-83 -18q-33 0 -59 7t-47.5 17.5t-40.5 23t-38.5 23t-41.5 17.5t-49 7q-44 0 -72.5 -32.5t-29.5 -78.5z" />
<glyph unicode="&#xd2;" d="M106 644v166q1 78 13.5 157.5t39 153.5t67 138.5t96.5 113t128.5 76t162.5 27.5t163 -27.5t129 -75.5t96.5 -112.5t67 -138.5t39 -154t13.5 -158v-166q-1 -78 -13.5 -157.5t-38.5 -153.5t-66.5 -138t-96.5 -112t-128.5 -75.5t-162.5 -27.5t-162.5 27.5t-128.5 75.5 t-97 112.5t-67.5 138.5t-39.5 153t-14 157zM288 644q1 -51 7.5 -108t21.5 -112.5t39 -106.5t60 -89.5t85 -61.5t114 -23t114.5 23t85 61.5t59 89t38 106t20 112.5t6.5 109v168q-1 52 -7 108.5t-20.5 112t-38.5 106t-60 89t-85 61t-114 22.5q-64 0 -113 -23t-85 -61.5 t-60 -89t-38.5 -106t-21 -112t-7.5 -107.5v-168zM316 1848h223l175 -266h-150z" />
<glyph unicode="&#xd3;" d="M106 644v166q1 78 13.5 157.5t39 153.5t67 138.5t96.5 113t128.5 76t162.5 27.5t163 -27.5t129 -75.5t96.5 -112.5t67 -138.5t39 -154t13.5 -158v-166q-1 -78 -13.5 -157.5t-38.5 -153.5t-66.5 -138t-96.5 -112t-128.5 -75.5t-162.5 -27.5t-162.5 27.5t-128.5 75.5 t-97 112.5t-67.5 138.5t-39.5 153t-14 157zM288 644q1 -51 7.5 -108t21.5 -112.5t39 -106.5t60 -89.5t85 -61.5t114 -23t114.5 23t85 61.5t59 89t38 106t20 112.5t6.5 109v168q-1 52 -7 108.5t-20.5 112t-38.5 106t-60 89t-85 61t-114 22.5q-64 0 -113 -23t-85 -61.5 t-60 -89t-38.5 -106t-21 -112t-7.5 -107.5v-168zM547 1579l184 266h224l-268 -266h-140z" />
<glyph unicode="&#xd4;" d="M106 644v166q1 78 13.5 157.5t39 153.5t67 138.5t96.5 113t128.5 76t162.5 27.5t163 -27.5t129 -75.5t96.5 -112.5t67 -138.5t39 -154t13.5 -158v-166q-1 -78 -13.5 -157.5t-38.5 -153.5t-66.5 -138t-96.5 -112t-128.5 -75.5t-162.5 -27.5t-162.5 27.5t-128.5 75.5 t-97 112.5t-67.5 138.5t-39.5 153t-14 157zM288 644q1 -51 7.5 -108t21.5 -112.5t39 -106.5t60 -89.5t85 -61.5t114 -23t114.5 23t85 61.5t59 89t38 106t20 112.5t6.5 109v168q-1 52 -7 108.5t-20.5 112t-38.5 106t-60 89t-85 61t-114 22.5q-64 0 -113 -23t-85 -61.5 t-60 -89t-38.5 -106t-21 -112t-7.5 -107.5v-168zM332 1620v26l245 239h112l248 -240v-25h-154l-150 151l-149 -151h-152z" />
<glyph unicode="&#xd5;" d="M106 644v166q1 78 13.5 157.5t39 153.5t67 138.5t96.5 113t128.5 76t162.5 27.5t163 -27.5t129 -75.5t96.5 -112.5t67 -138.5t39 -154t13.5 -158v-166q-1 -78 -13.5 -157.5t-38.5 -153.5t-66.5 -138t-96.5 -112t-128.5 -75.5t-162.5 -27.5t-162.5 27.5t-128.5 75.5 t-97 112.5t-67.5 138.5t-39.5 153t-14 157zM288 644q1 -51 7.5 -108t21.5 -112.5t39 -106.5t60 -89.5t85 -61.5t114 -23t114.5 23t85 61.5t59 89t38 106t20 112.5t6.5 109v168q-1 52 -7 108.5t-20.5 112t-38.5 106t-60 89t-85 61t-114 22.5q-64 0 -113 -23t-85 -61.5 t-60 -89t-38.5 -106t-21 -112t-7.5 -107.5v-168zM289 1649q0 45 15.5 86.5t42.5 73t64.5 50.5t83.5 19q42 0 75.5 -15t65 -32.5t64 -32.5t71.5 -15q21 0 40 9t32.5 24t22 35.5t8.5 43.5l103 -30q0 -45 -15.5 -86t-42.5 -71.5t-65 -48.5t-83 -18q-33 0 -59 7t-47.5 17.5 t-40.5 23t-38.5 23t-41.5 17.5t-49 7q-44 0 -72.5 -32.5t-29.5 -78.5z" />
<glyph unicode="&#xd6;" d="M106 644v166q1 78 13.5 157.5t39 153.5t67 138.5t96.5 113t128.5 76t162.5 27.5t163 -27.5t129 -75.5t96.5 -112.5t67 -138.5t39 -154t13.5 -158v-166q-1 -78 -13.5 -157.5t-38.5 -153.5t-66.5 -138t-96.5 -112t-128.5 -75.5t-162.5 -27.5t-162.5 27.5t-128.5 75.5 t-97 112.5t-67.5 138.5t-39.5 153t-14 157zM288 644q1 -51 7.5 -108t21.5 -112.5t39 -106.5t60 -89.5t85 -61.5t114 -23t114.5 23t85 61.5t59 89t38 106t20 112.5t6.5 109v168q-1 52 -7 108.5t-20.5 112t-38.5 106t-60 89t-85 61t-114 22.5q-64 0 -113 -23t-85 -61.5 t-60 -89t-38.5 -106t-21 -112t-7.5 -107.5v-168zM306 1739q0 45 27.5 75.5t81.5 30.5t82 -30.5t28 -75.5t-28 -75t-82 -30t-81.5 30t-27.5 75zM736 1737q0 45 27.5 76t81.5 31t82 -31t28 -76q0 -44 -28 -74.5t-82 -30.5t-81.5 30.5t-27.5 74.5z" />
<glyph unicode="&#xd7;" d="M181 329l330 337l-327 334l119 123l328 -335l329 335l119 -123l-328 -334l331 -337l-119 -123l-332 337l-331 -337z" />
<glyph unicode="&#xd8;" d="M71 -93l160 270q-34 49 -59 105t-41.5 116t-24.5 122.5t-8 123.5v166q1 78 13.5 157.5t39 153.5t67 138.5t96.5 113t128.5 76t162.5 27.5q102 0 180.5 -34.5t137.5 -93.5l99 168h142l-161 -272q28 -47 48.5 -99.5t34 -108t20 -113t7.5 -113.5v-166q-1 -78 -13.5 -157.5 t-38.5 -153.5t-66.5 -138t-96.5 -112t-128.5 -75.5t-162.5 -27.5q-91 0 -162 27.5t-128 75.5l-104 -176h-142zM280 644q1 -69 12.5 -146.5t40.5 -147.5l498 843q-37 53 -92.5 85.5t-133.5 32.5q-64 0 -113 -23t-85 -61.5t-60 -89t-38.5 -106t-21 -112t-7.5 -107.5v-168z M404 231q37 -41 87 -64.5t116 -23.5q65 0 114.5 23t85 61.5t59 89t38 106t20 112.5t6.5 109v168q-1 58 -8.5 122.5t-26.5 126.5z" />
<glyph unicode="&#xd9;" d="M139 470l2 986h176l4 -986q1 -65 20.5 -125t56 -106t91 -74t125.5 -28t125 27.5t90.5 74t55.5 106.5t21 125l3 986h179l2 -986q-2 -102 -37 -191t-98 -155.5t-150 -105t-191 -38.5q-106 0 -193 38t-149 104.5t-97 156t-36 191.5zM342 1815h223l175 -266h-150z" />
<glyph unicode="&#xda;" d="M139 470l2 986h176l4 -986q1 -65 20.5 -125t56 -106t91 -74t125.5 -28t125 27.5t90.5 74t55.5 106.5t21 125l3 986h179l2 -986q-2 -102 -37 -191t-98 -155.5t-150 -105t-191 -38.5q-106 0 -193 38t-149 104.5t-97 156t-36 191.5zM573 1546l184 266h224l-268 -266h-140z " />
<glyph unicode="&#xdb;" d="M139 470l2 986h176l4 -986q1 -65 20.5 -125t56 -106t91 -74t125.5 -28t125 27.5t90.5 74t55.5 106.5t21 125l3 986h179l2 -986q-2 -102 -37 -191t-98 -155.5t-150 -105t-191 -38.5q-106 0 -193 38t-149 104.5t-97 156t-36 191.5zM358 1587v26l245 239h112l248 -240v-25 h-154l-150 151l-149 -151h-152z" />
<glyph unicode="&#xdc;" d="M139 470l2 986h176l4 -986q1 -65 20.5 -125t56 -106t91 -74t125.5 -28t125 27.5t90.5 74t55.5 106.5t21 125l3 986h179l2 -986q-2 -102 -37 -191t-98 -155.5t-150 -105t-191 -38.5q-106 0 -193 38t-149 104.5t-97 156t-36 191.5zM332 1706q0 45 27.5 75.5t81.5 30.5 t82 -30.5t28 -75.5t-28 -75t-82 -30t-81.5 30t-27.5 75zM762 1704q0 45 27.5 76t81.5 31t82 -31t28 -76q0 -44 -28 -74.5t-82 -30.5t-81.5 30.5t-27.5 74.5z" />
<glyph unicode="&#xdd;" d="M61 1456h211l331 -731l332 731h210l-453 -913l-3 -543h-172l-3 543zM523 1557l184 266h224l-268 -266h-140z" />
<glyph unicode="&#xde;" d="M168 0v1456h185v-293h277q117 0 207.5 -31.5t153 -88t95 -134.5t32.5 -171t-32.5 -171t-95 -134.5t-153 -88t-207.5 -31.5h-277v-313h-185zM353 465h277q78 0 135 22.5t94.5 60t55.5 86.5t18 102q0 54 -18 103.5t-55 88t-94.5 61t-135.5 22.5h-277v-546z" />
<glyph unicode="&#xdf;" d="M169 0v1087q0 112 29.5 200t82 148t124.5 91.5t157 31.5q75 0 140 -20.5t114 -62.5t77 -105.5t28 -149.5q0 -79 -20 -132.5t-44 -95.5t-43.5 -80.5t-19.5 -88.5q0 -46 22.5 -83t56.5 -72t74 -70t74 -76t56.5 -91t22.5 -115q0 -85 -25.5 -148t-71.5 -105t-109.5 -63 t-139.5 -21q-41 0 -85 5.5t-84.5 15t-74.5 22.5t-54 29l42 155q18 -11 44.5 -24.5t58 -25t66 -19t68.5 -7.5q47 0 81 13.5t56 37.5t32.5 56t10.5 70q0 47 -22.5 85.5t-56.5 73t-74 70t-74 77t-57 93t-23 119.5q0 39 10 72t25.5 62.5t33.5 57t33.5 57t25.5 61t10 69.5 q0 50 -15 87.5t-39.5 63t-56 38.5t-63.5 13q-99 0 -158.5 -82t-60.5 -237v-1087h-184z" />
<glyph unicode="&#xe0;" d="M156 300q0 89 35.5 156t100.5 111.5t156.5 66.5t204.5 22h202v85q0 49 -18 88t-51 66.5t-80.5 42.5t-106.5 15q-55 0 -98.5 -14t-73.5 -37t-46.5 -54.5t-16.5 -65.5h-186q1 59 30.5 116t85 102.5t135 73.5t180.5 28q92 0 171 -22.5t136.5 -68t90.5 -113.5t33 -159v-503 q0 -54 10 -114.5t28 -105.5v-16h-193q-11 21 -17.5 52.5t-9.5 65.5q-28 -28 -62.5 -53t-76 -44t-88.5 -30t-100 -11q-86 0 -155.5 25t-118 67.5t-75 101t-26.5 126.5zM308 1505h223l175 -266h-150zM341 326q0 -40 13.5 -74t40.5 -58.5t68 -38.5t95 -14t101 14t85.5 37 t66.5 52.5t44 61.5v219h-172q-162 0 -252 -48t-90 -151z" />
<glyph unicode="&#xe1;" d="M156 300q0 89 35.5 156t100.5 111.5t156.5 66.5t204.5 22h202v85q0 49 -18 88t-51 66.5t-80.5 42.5t-106.5 15q-55 0 -98.5 -14t-73.5 -37t-46.5 -54.5t-16.5 -65.5h-186q1 59 30.5 116t85 102.5t135 73.5t180.5 28q92 0 171 -22.5t136.5 -68t90.5 -113.5t33 -159v-503 q0 -54 10 -114.5t28 -105.5v-16h-193q-11 21 -17.5 52.5t-9.5 65.5q-28 -28 -62.5 -53t-76 -44t-88.5 -30t-100 -11q-86 0 -155.5 25t-118 67.5t-75 101t-26.5 126.5zM341 326q0 -40 13.5 -74t40.5 -58.5t68 -38.5t95 -14t101 14t85.5 37t66.5 52.5t44 61.5v219h-172 q-162 0 -252 -48t-90 -151zM539 1236l184 266h224l-268 -266h-140z" />
<glyph unicode="&#xe2;" d="M156 300q0 89 35.5 156t100.5 111.5t156.5 66.5t204.5 22h202v85q0 49 -18 88t-51 66.5t-80.5 42.5t-106.5 15q-55 0 -98.5 -14t-73.5 -37t-46.5 -54.5t-16.5 -65.5h-186q1 59 30.5 116t85 102.5t135 73.5t180.5 28q92 0 171 -22.5t136.5 -68t90.5 -113.5t33 -159v-503 q0 -54 10 -114.5t28 -105.5v-16h-193q-11 21 -17.5 52.5t-9.5 65.5q-28 -28 -62.5 -53t-76 -44t-88.5 -30t-100 -11q-86 0 -155.5 25t-118 67.5t-75 101t-26.5 126.5zM324 1277v26l245 239h112l248 -240v-25h-154l-150 151l-149 -151h-152zM341 326q0 -40 13.5 -74 t40.5 -58.5t68 -38.5t95 -14t101 14t85.5 37t66.5 52.5t44 61.5v219h-172q-162 0 -252 -48t-90 -151z" />
<glyph unicode="&#xe3;" d="M156 300q0 89 35.5 156t100.5 111.5t156.5 66.5t204.5 22h202v85q0 49 -18 88t-51 66.5t-80.5 42.5t-106.5 15q-55 0 -98.5 -14t-73.5 -37t-46.5 -54.5t-16.5 -65.5h-186q1 59 30.5 116t85 102.5t135 73.5t180.5 28q92 0 171 -22.5t136.5 -68t90.5 -113.5t33 -159v-503 q0 -54 10 -114.5t28 -105.5v-16h-193q-11 21 -17.5 52.5t-9.5 65.5q-28 -28 -62.5 -53t-76 -44t-88.5 -30t-100 -11q-86 0 -155.5 25t-118 67.5t-75 101t-26.5 126.5zM281 1306q0 45 15.5 86.5t42.5 73t64.5 50.5t83.5 19q42 0 75.5 -15t65 -32.5t64 -32.5t71.5 -15 q21 0 40 9t32.5 24t22 35.5t8.5 43.5l103 -30q0 -45 -15.5 -86t-42.5 -71.5t-65 -48.5t-83 -18q-33 0 -59 7t-47.5 17.5t-40.5 23t-38.5 23t-41.5 17.5t-49 7q-44 0 -72.5 -32.5t-29.5 -78.5zM341 326q0 -40 13.5 -74t40.5 -58.5t68 -38.5t95 -14t101 14t85.5 37t66.5 52.5 t44 61.5v219h-172q-162 0 -252 -48t-90 -151z" />
<glyph unicode="&#xe4;" d="M156 300q0 89 35.5 156t100.5 111.5t156.5 66.5t204.5 22h202v85q0 49 -18 88t-51 66.5t-80.5 42.5t-106.5 15q-55 0 -98.5 -14t-73.5 -37t-46.5 -54.5t-16.5 -65.5h-186q1 59 30.5 116t85 102.5t135 73.5t180.5 28q92 0 171 -22.5t136.5 -68t90.5 -113.5t33 -159v-503 q0 -54 10 -114.5t28 -105.5v-16h-193q-11 21 -17.5 52.5t-9.5 65.5q-28 -28 -62.5 -53t-76 -44t-88.5 -30t-100 -11q-86 0 -155.5 25t-118 67.5t-75 101t-26.5 126.5zM298 1396q0 45 27.5 75.5t81.5 30.5t82 -30.5t28 -75.5t-28 -75t-82 -30t-81.5 30t-27.5 75zM341 326 q0 -40 13.5 -74t40.5 -58.5t68 -38.5t95 -14t101 14t85.5 37t66.5 52.5t44 61.5v219h-172q-162 0 -252 -48t-90 -151zM728 1394q0 45 27.5 76t81.5 31t82 -31t28 -76q0 -44 -28 -74.5t-82 -30.5t-81.5 30.5t-27.5 74.5z" />
<glyph unicode="&#xe5;" d="M156 300q0 89 35.5 156t100.5 111.5t156.5 66.5t204.5 22h202v85q0 49 -18 88t-51 66.5t-80.5 42.5t-106.5 15q-55 0 -98.5 -14t-73.5 -37t-46.5 -54.5t-16.5 -65.5h-186q1 59 30.5 116t85 102.5t135 73.5t180.5 28q92 0 171 -22.5t136.5 -68t90.5 -113.5t33 -159v-503 q0 -54 10 -114.5t28 -105.5v-16h-193q-11 21 -17.5 52.5t-9.5 65.5q-28 -28 -62.5 -53t-76 -44t-88.5 -30t-100 -11q-86 0 -155.5 25t-118 67.5t-75 101t-26.5 126.5zM341 326q0 -40 13.5 -74t40.5 -58.5t68 -38.5t95 -14t101 14t85.5 37t66.5 52.5t44 61.5v219h-172 q-162 0 -252 -48t-90 -151zM420 1410q0 43 16.5 79.5t44 63t65 41.5t79.5 15t78.5 -15t64 -41.5t43.5 -63t16 -79.5t-16 -79t-43.5 -61.5t-64 -39.5t-78.5 -14t-79.5 14t-65 39.5t-44 61.5t-16.5 79zM519 1410q0 -22 8.5 -41t23 -33.5t33.5 -22.5t41 -8t40.5 8t32.5 22 t22 33t8 42q0 48 -29.5 78.5t-73.5 30.5t-75 -30.5t-31 -78.5z" />
<glyph unicode="&#xe6;" d="M43 285q0 166 104 258t301 92h63v148q0 76 -31 121.5t-99 45.5q-63 0 -102 -41.5t-39 -116.5l-179 8q0 69 22.5 124.5t64 95t100.5 61t131 21.5q83 0 145.5 -27t101.5 -80q43 51 102.5 79t133.5 28q81 0 142.5 -26.5t103.5 -75t63.5 -117t21.5 -152.5v-234h-505v-86 q0 -66 13.5 -118t43 -88t75.5 -55.5t112 -19.5q38 0 67.5 7t53 17.5t42.5 22.5t35 23l46 -136q-13 -10 -36 -24.5t-57.5 -27.5t-81 -22.5t-105.5 -9.5q-103 0 -177 37.5t-120 108.5q-19 -29 -44.5 -55.5t-58.5 -46.5t-73 -32t-88 -12q-71 0 -125 22t-91 61.5t-56.5 96 t-19.5 125.5zM224 281q0 -31 9.5 -58.5t28 -48t46 -32.5t63.5 -12q37 0 75 21.5t66 50.5l-1 293h-61q-53 0 -95 -17.5t-71 -47t-44.5 -68t-15.5 -81.5zM688 640h329v128q0 35 -10 67.5t-30 58t-49 41t-66 15.5q-45 0 -77.5 -19.5t-53.5 -52.5t-31.5 -77t-11.5 -92v-69z" />
<glyph unicode="&#xe7;" d="M143 520v42q0 107 31 205t92.5 172.5t153.5 118.5t215 44q96 0 176.5 -30.5t139 -83t91.5 -124.5t33 -154h-175q-1 49 -21.5 92.5t-55.5 76.5t-83.5 52t-104.5 19q-86 0 -144.5 -34.5t-94.5 -90t-51.5 -124.5t-15.5 -139v-42q0 -71 15.5 -140.5t51 -125t94 -90 t145.5 -34.5q50 0 97.5 16t84.5 44.5t59.5 67t23.5 83.5h175q-1 -72 -37.5 -137.5t-97.5 -115t-140 -79t-165 -29.5q-123 0 -215 44t-153.5 118.5t-92.5 172t-31 205.5zM536 -328q34 0 64 5.5t52.5 17.5t36 30.5t13.5 45.5q0 25 -10 42t-30.5 27.5t-50.5 16.5t-70 9l31 134 h133l-12 -52q29 -5 56.5 -17t49 -32t34.5 -50.5t13 -73.5q0 -97 -79 -153t-224 -57z" />
<glyph unicode="&#xe8;" d="M135 503v42q0 131 42 234.5t111.5 175t158 109.5t181.5 38q117 0 204.5 -40.5t145.5 -112t86.5 -168.5t28.5 -210v-83h-773q3 -74 28.5 -139t70 -113.5t106.5 -76.5t137 -28q99 0 176 40t128 106l113 -88q-27 -41 -67.5 -78.5t-93.5 -66.5t-120 -46.5t-146 -17.5 q-114 0 -209.5 39t-163.5 109t-106 166t-38 209zM303 1506h223l175 -266h-150zM326 640h582v14q-3 54 -20.5 107t-51.5 95t-85.5 68t-122.5 26q-56 0 -106 -20.5t-90 -60t-67.5 -97t-38.5 -132.5z" />
<glyph unicode="&#xe9;" d="M135 503v42q0 131 42 234.5t111.5 175t158 109.5t181.5 38q117 0 204.5 -40.5t145.5 -112t86.5 -168.5t28.5 -210v-83h-773q3 -74 28.5 -139t70 -113.5t106.5 -76.5t137 -28q99 0 176 40t128 106l113 -88q-27 -41 -67.5 -78.5t-93.5 -66.5t-120 -46.5t-146 -17.5 q-114 0 -209.5 39t-163.5 109t-106 166t-38 209zM326 640h582v14q-3 54 -20.5 107t-51.5 95t-85.5 68t-122.5 26q-56 0 -106 -20.5t-90 -60t-67.5 -97t-38.5 -132.5zM534 1237l184 266h224l-268 -266h-140z" />
<glyph unicode="&#xea;" d="M135 503v42q0 131 42 234.5t111.5 175t158 109.5t181.5 38q117 0 204.5 -40.5t145.5 -112t86.5 -168.5t28.5 -210v-83h-773q3 -74 28.5 -139t70 -113.5t106.5 -76.5t137 -28q99 0 176 40t128 106l113 -88q-27 -41 -67.5 -78.5t-93.5 -66.5t-120 -46.5t-146 -17.5 q-114 0 -209.5 39t-163.5 109t-106 166t-38 209zM319 1278v26l245 239h112l248 -240v-25h-154l-150 151l-149 -151h-152zM326 640h582v14q-3 54 -20.5 107t-51.5 95t-85.5 68t-122.5 26q-56 0 -106 -20.5t-90 -60t-67.5 -97t-38.5 -132.5z" />
<glyph unicode="&#xeb;" d="M135 503v42q0 131 42 234.5t111.5 175t158 109.5t181.5 38q117 0 204.5 -40.5t145.5 -112t86.5 -168.5t28.5 -210v-83h-773q3 -74 28.5 -139t70 -113.5t106.5 -76.5t137 -28q99 0 176 40t128 106l113 -88q-27 -41 -67.5 -78.5t-93.5 -66.5t-120 -46.5t-146 -17.5 q-114 0 -209.5 39t-163.5 109t-106 166t-38 209zM293 1397q0 45 27.5 75.5t81.5 30.5t82 -30.5t28 -75.5t-28 -75t-82 -30t-81.5 30t-27.5 75zM326 640h582v14q-3 54 -20.5 107t-51.5 95t-85.5 68t-122.5 26q-56 0 -106 -20.5t-90 -60t-67.5 -97t-38.5 -132.5zM723 1395 q0 45 27.5 76t81.5 31t82 -31t28 -76q0 -44 -28 -74.5t-82 -30.5t-81.5 30.5t-27.5 74.5z" />
<glyph unicode="&#xec;" d="M203 0v160h368v761h-368v161h553v-922h353v-160h-906zM349 1484h223l175 -266h-150z" />
<glyph unicode="&#xed;" d="M203 0v160h368v761h-368v161h553v-922h353v-160h-906zM580 1215l184 266h224l-268 -266h-140z" />
<glyph unicode="&#xee;" d="M203 0v160h368v761h-368v161h553v-922h353v-160h-906zM365 1256v26l245 239h112l248 -240v-25h-154l-150 151l-149 -151h-152z" />
<glyph unicode="&#xef;" d="M203 0v160h368v761h-368v161h553v-922h353v-160h-906zM339 1375q0 45 27.5 75.5t81.5 30.5t82 -30.5t28 -75.5t-28 -75t-82 -30t-81.5 30t-27.5 75zM769 1373q0 45 27.5 76t81.5 31t82 -31t28 -76q0 -44 -28 -74.5t-82 -30.5t-81.5 30.5t-27.5 74.5z" />
<glyph unicode="&#xf0;" d="M73 467q0 115 36.5 209t102 161t155 103.5t194.5 36.5q88 0 164.5 -34t133.5 -90q-23 110 -68 194t-107 147l-266 -152l-73 99l239 137q-41 27 -84.5 47.5t-89.5 36.5l57 159q80 -22 151.5 -58.5t134.5 -87.5l230 132l73 -100l-211 -121q104 -118 162.5 -282.5 t58.5 -370.5v-62q0 -138 -37.5 -247.5t-104.5 -186t-158.5 -117t-200.5 -40.5q-108 0 -198.5 37.5t-156 103.5t-101.5 155t-36 191zM259 467q0 -62 21 -122.5t60.5 -108t97 -77t131.5 -29.5q72 0 129.5 32t98 89.5t62.5 139t22 180.5v64q0 13 -0.5 25t-0.5 25 q-17 27 -45.5 52.5t-68.5 45t-91.5 31t-113.5 11.5q-69 0 -125 -28.5t-95.5 -77.5t-60.5 -114t-21 -138z" />
<glyph unicode="&#xf1;" d="M174 0v1082h166l13 -160q59 84 145 131.5t192 48.5q85 0 154.5 -24t118.5 -75t75.5 -129.5t26.5 -186.5v-687h-185v683q0 72 -16 122t-47.5 81t-77 45t-104.5 14q-93 0 -163.5 -46.5t-112.5 -122.5v-776h-185zM261 1306q0 45 15.5 86.5t42.5 73t64.5 50.5t83.5 19 q42 0 75.5 -15t65 -32.5t64 -32.5t71.5 -15q21 0 40 9t32.5 24t22 35.5t8.5 43.5l103 -30q0 -45 -15.5 -86t-42.5 -71.5t-65 -48.5t-83 -18q-33 0 -59 7t-47.5 17.5t-40.5 23t-38.5 23t-41.5 17.5t-49 7q-44 0 -72.5 -32.5t-29.5 -78.5z" />
<glyph unicode="&#xf2;" d="M122 529v22q0 117 34 217.5t97.5 174.5t154.5 116.5t205 42.5q115 0 206.5 -42.5t155 -116.5t97.5 -174.5t34 -217.5v-22q0 -117 -34 -217t-97.5 -174t-154.5 -116t-205 -42q-115 0 -206.5 42t-155 116t-97.5 174t-34 217zM297 1505h223l175 -266h-150zM307 529 q0 -80 19 -152.5t57.5 -127.5t96.5 -87t135 -32q76 0 133.5 32t96 87t57.5 127.5t19 152.5v22q0 79 -19.5 151.5t-58 127.5t-96 87.5t-134.5 32.5t-134 -32.5t-95.5 -87.5t-57.5 -127.5t-19 -151.5v-22z" />
<glyph unicode="&#xf3;" d="M122 529v22q0 117 34 217.5t97.5 174.5t154.5 116.5t205 42.5q115 0 206.5 -42.5t155 -116.5t97.5 -174.5t34 -217.5v-22q0 -117 -34 -217t-97.5 -174t-154.5 -116t-205 -42q-115 0 -206.5 42t-155 116t-97.5 174t-34 217zM307 529q0 -80 19 -152.5t57.5 -127.5t96.5 -87 t135 -32q76 0 133.5 32t96 87t57.5 127.5t19 152.5v22q0 79 -19.5 151.5t-58 127.5t-96 87.5t-134.5 32.5t-134 -32.5t-95.5 -87.5t-57.5 -127.5t-19 -151.5v-22zM528 1236l184 266h224l-268 -266h-140z" />
<glyph unicode="&#xf4;" d="M122 529v22q0 117 34 217.5t97.5 174.5t154.5 116.5t205 42.5q115 0 206.5 -42.5t155 -116.5t97.5 -174.5t34 -217.5v-22q0 -117 -34 -217t-97.5 -174t-154.5 -116t-205 -42q-115 0 -206.5 42t-155 116t-97.5 174t-34 217zM307 529q0 -80 19 -152.5t57.5 -127.5t96.5 -87 t135 -32q76 0 133.5 32t96 87t57.5 127.5t19 152.5v22q0 79 -19.5 151.5t-58 127.5t-96 87.5t-134.5 32.5t-134 -32.5t-95.5 -87.5t-57.5 -127.5t-19 -151.5v-22zM313 1277v26l245 239h112l248 -240v-25h-154l-150 151l-149 -151h-152z" />
<glyph unicode="&#xf5;" d="M122 529v22q0 117 34 217.5t97.5 174.5t154.5 116.5t205 42.5q115 0 206.5 -42.5t155 -116.5t97.5 -174.5t34 -217.5v-22q0 -117 -34 -217t-97.5 -174t-154.5 -116t-205 -42q-115 0 -206.5 42t-155 116t-97.5 174t-34 217zM270 1306q0 45 15.5 86.5t42.5 73t64.5 50.5 t83.5 19q42 0 75.5 -15t65 -32.5t64 -32.5t71.5 -15q21 0 40 9t32.5 24t22 35.5t8.5 43.5l103 -30q0 -45 -15.5 -86t-42.5 -71.5t-65 -48.5t-83 -18q-33 0 -59 7t-47.5 17.5t-40.5 23t-38.5 23t-41.5 17.5t-49 7q-44 0 -72.5 -32.5t-29.5 -78.5zM307 529q0 -80 19 -152.5 t57.5 -127.5t96.5 -87t135 -32q76 0 133.5 32t96 87t57.5 127.5t19 152.5v22q0 79 -19.5 151.5t-58 127.5t-96 87.5t-134.5 32.5t-134 -32.5t-95.5 -87.5t-57.5 -127.5t-19 -151.5v-22z" />
<glyph unicode="&#xf6;" d="M122 529v22q0 117 34 217.5t97.5 174.5t154.5 116.5t205 42.5q115 0 206.5 -42.5t155 -116.5t97.5 -174.5t34 -217.5v-22q0 -117 -34 -217t-97.5 -174t-154.5 -116t-205 -42q-115 0 -206.5 42t-155 116t-97.5 174t-34 217zM287 1396q0 45 27.5 75.5t81.5 30.5t82 -30.5 t28 -75.5t-28 -75t-82 -30t-81.5 30t-27.5 75zM307 529q0 -80 19 -152.5t57.5 -127.5t96.5 -87t135 -32q76 0 133.5 32t96 87t57.5 127.5t19 152.5v22q0 79 -19.5 151.5t-58 127.5t-96 87.5t-134.5 32.5t-134 -32.5t-95.5 -87.5t-57.5 -127.5t-19 -151.5v-22zM717 1394 q0 45 27.5 76t81.5 31t82 -31t28 -76q0 -44 -28 -74.5t-82 -30.5t-81.5 30.5t-27.5 74.5z" />
<glyph unicode="&#xf7;" d="M115 600v184h998v-184h-998zM505 282q0 45 27.5 76t81.5 31t82 -31t28 -76q0 -44 -28 -74.5t-82 -30.5t-81.5 30.5t-27.5 74.5zM507 1097q0 45 27.5 76t81.5 31t82 -31t28 -76t-28 -75t-82 -30t-81.5 30t-27.5 75z" />
<glyph unicode="&#xf8;" d="M122 529v22q0 117 34 217.5t97.5 174.5t154.5 116.5t205 42.5q57 0 107.5 -10.5t95.5 -30.5l73 148h123l-101 -205q94 -75 144.5 -192t50.5 -261v-22q0 -117 -34 -217t-97.5 -174t-154.5 -116t-205 -42q-54 0 -101.5 9.5t-90.5 26.5l-74 -151h-123l101 205 q-99 73 -152 192t-53 267zM307 529q0 -91 24 -169.5t72 -135.5l342 694q-29 15 -61.5 23.5t-70.5 8.5q-77 0 -134 -32.5t-95.5 -87.5t-57.5 -127.5t-19 -151.5v-22zM492 156q55 -26 123 -26q76 0 133.5 32t96 87t57.5 127.5t19 152.5v22q0 85 -22 161t-67 133z" />
<glyph unicode="&#xf9;" d="M180 439v643h185v-645q0 -88 14 -146t42 -92.5t68.5 -48.5t93.5 -14q113 0 182.5 46t103.5 124v776h186v-1082h-168l-11 149q-54 -80 -135 -124.5t-187 -44.5q-85 0 -154 26.5t-118 82.5t-75.5 142.5t-26.5 207.5zM296 1485h223l175 -266h-150z" />
<glyph unicode="&#xfa;" d="M180 439v643h185v-645q0 -88 14 -146t42 -92.5t68.5 -48.5t93.5 -14q113 0 182.5 46t103.5 124v776h186v-1082h-168l-11 149q-54 -80 -135 -124.5t-187 -44.5q-85 0 -154 26.5t-118 82.5t-75.5 142.5t-26.5 207.5zM527 1216l184 266h224l-268 -266h-140z" />
<glyph unicode="&#xfb;" d="M180 439v643h185v-645q0 -88 14 -146t42 -92.5t68.5 -48.5t93.5 -14q113 0 182.5 46t103.5 124v776h186v-1082h-168l-11 149q-54 -80 -135 -124.5t-187 -44.5q-85 0 -154 26.5t-118 82.5t-75.5 142.5t-26.5 207.5zM312 1257v26l245 239h112l248 -240v-25h-154l-150 151 l-149 -151h-152z" />
<glyph unicode="&#xfc;" d="M180 439v643h185v-645q0 -88 14 -146t42 -92.5t68.5 -48.5t93.5 -14q113 0 182.5 46t103.5 124v776h186v-1082h-168l-11 149q-54 -80 -135 -124.5t-187 -44.5q-85 0 -154 26.5t-118 82.5t-75.5 142.5t-26.5 207.5zM287 1376q0 45 27.5 75.5t81.5 30.5t82 -30.5t28 -75.5 t-28 -75t-82 -30t-81.5 30t-27.5 75zM717 1374q0 45 27.5 76t81.5 31t82 -31t28 -76q0 -44 -28 -74.5t-82 -30.5t-81.5 30.5t-27.5 74.5z" />
<glyph unicode="&#xfd;" d="M68 1082h207l297 -698l48 -131l330 829h207l-549 -1249q-19 -42 -48.5 -89t-71.5 -87t-98 -67t-129 -27q-13 0 -29 1.5t-32 4t-30 5.5t-23 5l30 151q7 0 19 -1t25 -2t25 -1.5t19 -0.5q38 0 69.5 21t56 50t42 60t27.5 51l74 144zM547 1216l184 266h224l-268 -266h-140z " />
<glyph unicode="&#xfe;" d="M173 -416v1974h185v-588q55 64 131 98t176 34q104 0 183 -41t132 -114t80 -174.5t27 -222.5v-21q0 -116 -27 -216.5t-80.5 -174.5t-131.5 -116t-180 -42q-100 0 -177 32.5t-133 94.5v-523h-185zM358 278q38 -65 99 -106t155 -41q76 0 131 32.5t90 87.5t52 127t17 151v21 q0 79 -17 150.5t-52.5 126t-90.5 86.5t-132 32q-91 0 -153 -41.5t-99 -107.5v-518z" />
<glyph unicode="&#xff;" d="M68 1082h207l297 -698l48 -131l330 829h207l-549 -1249q-19 -42 -48.5 -89t-71.5 -87t-98 -67t-129 -27q-13 0 -29 1.5t-32 4t-30 5.5t-23 5l30 151q7 0 19 -1t25 -2t25 -1.5t19 -0.5q38 0 69.5 21t56 50t42 60t27.5 51l74 144zM306 1376q0 45 27.5 75.5t81.5 30.5 t82 -30.5t28 -75.5t-28 -75t-82 -30t-81.5 30t-27.5 75zM736 1374q0 45 27.5 76t81.5 31t82 -31t28 -76q0 -44 -28 -74.5t-82 -30.5t-81.5 30.5t-27.5 74.5z" />
<glyph unicode="&#x152;" d="M79 502v451q0 128 29 225.5t83 163.5t131.5 100t174.5 34q69 0 136 -6t129 -14h418v-152h-397v-476h344v-152h-344v-525h407v-151h-428q-62 -7 -128 -13.5t-135 -6.5q-97 0 -174.5 33.5t-132 99.5t-84 163.5t-29.5 225.5zM264 502q0 -105 15 -176.5t45 -114.5t74 -61.5 t101 -18.5q49 0 99 3v1186q-25 2 -50 3t-51 1q-57 0 -101 -18.5t-73 -61.5t-44 -113.5t-15 -175.5v-453z" />
<glyph unicode="&#x153;" d="M46 441v198q0 105 22.5 190t66 146t107.5 94t146 33q84 0 148 -33.5t108 -95.5q45 63 105 96t130 33q83 0 143.5 -32t100 -89t58.5 -135t19 -169v-181h-458v-64q0 -68 10 -123.5t30 -95.5t51 -61.5t74 -21.5q68 0 113.5 21t77.5 49l55 -126q-17 -18 -39.5 -35t-52.5 -30 t-68 -21t-86 -8q-87 0 -152.5 32.5t-110.5 94.5q-44 -61 -107.5 -94t-146.5 -33t-147 33t-108 93t-66.5 145t-22.5 190zM232 441q0 -68 8.5 -125.5t27.5 -98.5t49 -64t73 -23q42 0 71.5 23t48.5 64t28 98.5t9 125.5v198q0 68 -9 125t-28 98.5t-49.5 64.5t-72.5 23 t-71.5 -23.5t-48 -64.5t-27.5 -98.5t-9 -124.5v-198zM742 647h273v85q0 42 -7.5 81t-24 69.5t-42 49t-62.5 18.5q-32 0 -57.5 -21.5t-43 -60.5t-27 -94.5t-9.5 -122.5v-4z" />
<glyph unicode="&#x178;" d="M61 1456h211l331 -731l332 731h210l-453 -913l-3 -543h-172l-3 543zM283 1717q0 45 27.5 75.5t81.5 30.5t82 -30.5t28 -75.5t-28 -75t-82 -30t-81.5 30t-27.5 75zM713 1715q0 45 27.5 76t81.5 31t82 -31t28 -76q0 -44 -28 -74.5t-82 -30.5t-81.5 30.5t-27.5 74.5z" />
<glyph unicode="&#x2c6;" d="M193 1252v26l245 239h112l248 -240v-25h-154l-150 151l-149 -151h-152z" />
<glyph unicode="&#x2dc;" d="M138 1275q0 45 15.5 86.5t42.5 73t64.5 50.5t83.5 19q42 0 75.5 -15t65 -32.5t64 -32.5t71.5 -15q21 0 40 9t32.5 24t22 35.5t8.5 43.5l103 -30q0 -45 -15.5 -86t-42.5 -71.5t-65 -48.5t-83 -18q-33 0 -59 7t-47.5 17.5t-40.5 23t-38.5 23t-41.5 17.5t-49 7 q-44 0 -72.5 -32.5t-29.5 -78.5z" />
<glyph unicode="&#x2000;" horiz-adv-x="965" />
<glyph unicode="&#x2001;" horiz-adv-x="1931" />
<glyph unicode="&#x2002;" horiz-adv-x="965" />
<glyph unicode="&#x2003;" horiz-adv-x="1931" />
<glyph unicode="&#x2004;" horiz-adv-x="643" />
<glyph unicode="&#x2005;" horiz-adv-x="482" />
<glyph unicode="&#x2006;" horiz-adv-x="321" />
<glyph unicode="&#x2007;" horiz-adv-x="321" />
<glyph unicode="&#x2008;" horiz-adv-x="241" />
<glyph unicode="&#x2009;" horiz-adv-x="386" />
<glyph unicode="&#x200a;" horiz-adv-x="107" />
<glyph unicode="&#x2010;" horiz-adv-x="1230" d="M218 561v152h765v-152h-765z" />
<glyph unicode="&#x2011;" horiz-adv-x="1230" d="M218 561v152h765v-152h-765z" />
<glyph unicode="&#x2012;" horiz-adv-x="1230" d="M218 561v152h765v-152h-765z" />
<glyph unicode="&#x2013;" d="M30 651v151h1085v-151h-1085z" />
<glyph unicode="&#x2014;" d="M37 651v151h1085v-151h-1085z" />
<glyph unicode="&#x2018;" d="M492 1039v146q0 47 11.5 99t34 102.5t54.5 96.5t74 82l101 -72q-47 -71 -70.5 -145t-23.5 -160v-149h-181z" />
<glyph unicode="&#x2019;" d="M461 1103q47 71 70.5 145t23.5 160v150h181v-147q0 -47 -11.5 -99t-34 -102.5t-54.5 -96.5t-74 -82z" />
<glyph unicode="&#x201a;" d="M444 -230q47 70 70.5 144t23.5 160v151h185v-149q0 -47 -11.5 -98.5t-34 -101.5t-54.5 -96.5t-74 -82.5z" />
<glyph unicode="&#x201c;" d="M329 1039v146q0 47 11.5 99t34 102.5t54.5 96.5t74 82l101 -72q-47 -71 -70.5 -145t-23.5 -160v-149h-181zM654 1039v146q0 47 11.5 99t34 102.5t54.5 96.5t74 82l101 -72q-47 -71 -70.5 -145t-23.5 -160v-149h-181z" />
<glyph unicode="&#x201d;" d="M301 1103q47 71 70.5 145t23.5 160v150h181v-147q0 -47 -11.5 -99t-34 -102.5t-54.5 -96.5t-74 -82zM633 1103q47 71 70.5 145t23.5 160v150h181v-147q0 -47 -11.5 -99t-34 -102.5t-54.5 -96.5t-74 -82z" />
<glyph unicode="&#x201e;" d="M303 -232q47 70 70.5 144t23.5 160v151h185v-148q0 -47 -11.5 -99t-34 -102t-54.5 -96.5t-74 -82.5zM593 -232q47 70 70.5 144t23.5 160v151h185v-148q0 -47 -11.5 -99t-34 -102t-54.5 -96.5t-74 -82.5z" />
<glyph unicode="&#x2022;" d="M410 732v58q0 43 14.5 79.5t40.5 62.5t63.5 41t84.5 15t85 -15t64.5 -41t40.5 -62.5t14 -79.5v-58q0 -43 -14 -79t-40.5 -62.5t-64 -41t-84.5 -14.5t-84.5 14.5t-64 41t-41 62.5t-14.5 79z" />
<glyph unicode="&#x2026;" d="M265 120q0 30 9.5 56t27.5 45.5t45 30.5t63 11t63.5 -11t46 -30.5t28 -45.5t9.5 -56q0 -29 -9.5 -54.5t-28 -44.5t-46 -29.5t-63.5 -10.5t-63 10.5t-45 29.5t-27.5 44.5t-9.5 54.5zM652 120q0 30 9.5 56t27.5 45.5t45 30.5t63 11t63.5 -11t46 -30.5t28 -45.5t9.5 -56 q0 -29 -9.5 -54.5t-28 -44.5t-46 -29.5t-63.5 -10.5t-63 10.5t-45 29.5t-27.5 44.5t-9.5 54.5zM1026 120q0 30 9.5 56t27.5 45.5t45 30.5t63 11t63.5 -11t46 -30.5t28 -45.5t9.5 -56q0 -29 -9.5 -54.5t-28 -44.5t-46 -29.5t-63.5 -10.5t-63 10.5t-45 29.5t-27.5 44.5 t-9.5 54.5z" />
<glyph unicode="&#x202f;" horiz-adv-x="386" />
<glyph unicode="&#x2039;" d="M396 541v19l295 389h141l-258 -399l258 -397h-141z" />
<glyph unicode="&#x203a;" d="M396 152l258 398l-258 399h142l294 -389v-19l-294 -389h-142z" />
<glyph unicode="&#x205f;" horiz-adv-x="482" />
<glyph unicode="&#x20ac;" d="M127 543v122h179v138h-179v123h179q5 136 45.5 239t110.5 172t166 104t212 35q63 0 121.5 -8.5t119.5 -22.5l-18 -155q-52 16 -107.5 25.5t-115.5 9.5q-78 0 -141 -25t-108 -74.5t-70.5 -124.5t-28.5 -175h386v-123h-386v-138h386v-122h-386q2 -103 27.5 -180.5 t70.5 -129t109 -77.5t143 -26q59 0 114 8.5t107 25.5l18 -154q-56 -15 -116 -23t-123 -8q-117 0 -214.5 36t-168 107t-110.5 176.5t-43 244.5h-179z" />
<glyph unicode="&#x2122;" d="M103 1375v81h386v-81h-148v-456h-91v456h-147zM568 919v537h112l143 -399l144 399h112v-537h-90v394l-140 -394h-52l-139 393v-393h-90z" />
<glyph unicode="&#x25fc;" horiz-adv-x="1080" d="M0 0v1080h1080v-1080h-1080z" />
</font>
</defs>
</svg>
