<?xml version="1.0" standalone="no"?>
<!DOCTYPE svg PUBLIC "-//W3C//DTD SVG 1.1//EN" "http://www.w3.org/Graphics/SVG/1.1/DTD/svg11.dtd" >
<svg xmlns="http://www.w3.org/2000/svg" xmlns:xlink="http://www.w3.org/1999/xlink" version="1.1">
<metadata></metadata>
<defs>
<font id="roboto_monolight" horiz-adv-x="1229" >
<font-face units-per-em="2048" ascent="1638" descent="-410" />
<missing-glyph horiz-adv-x="500" />
<glyph horiz-adv-x="0" />
<glyph unicode="&#xd;" />
<glyph horiz-adv-x="0" />
<glyph horiz-adv-x="0" />
<glyph />
<glyph unicode="&#x9;" />
<glyph unicode=" " />
<glyph unicode="!" d="M514 72q0 35 23 59.5t62 24.5q40 0 63.5 -24.5t23.5 -59.5q0 -34 -24 -57t-63 -23t-62 23t-23 57zM534 435v1021h120v-1021h-120z" />
<glyph unicode="&#x22;" d="M402 1090l4 310l-1 136h105l-1 -126l-16 -320h-91zM705 1090l5 310l-1 136h105l-2 -126l-16 -320h-91z" />
<glyph unicode="#" d="M61 410v93h272l83 441h-279v96h297l79 416h99l-79 -416h315l79 416h99l-79 -416h230v-96h-248l-83 -441h256v-93h-274l-77 -410h-99l77 410h-314l-77 -410h-99l77 410h-255zM432 503h315l83 441h-315z" />
<glyph unicode="$" d="M177 418h120q1 -88 30 -151t76.5 -104t109 -60t129.5 -18q64 0 122 18t101.5 53t69.5 86t26 117q0 64 -25 112.5t-69 85.5t-103.5 65t-127.5 52q-83 27 -156.5 62t-129 84t-88 116t-32.5 159q0 85 28 152.5t77.5 115.5t117.5 76.5t147 35.5v202h102v-203q86 -8 153.5 -42 t114.5 -91.5t72.5 -136.5t27.5 -176h-119q-1 75 -22 138t-60 108t-94.5 70.5t-125.5 25.5q-63 0 -117.5 -18t-95 -53t-63.5 -85.5t-24 -116.5q0 -67 24.5 -115.5t68 -85t104 -64t131.5 -52.5q84 -28 157.5 -62.5t128 -83.5t86.5 -115.5t32 -157.5q0 -86 -29.5 -153.5 t-80.5 -115t-120.5 -75.5t-150.5 -35v-190h-103v189q-85 6 -160.5 34.5t-132.5 82t-91 133t-36 187.5z" />
<glyph unicode="%" d="M44 1107v77q0 55 16.5 107.5t48 94t79 66.5t109.5 25q63 0 110.5 -25.5t79 -66.5t48 -93.5t16.5 -107.5v-77q0 -54 -16.5 -106t-48 -93t-78.5 -66t-109 -25q-63 0 -110.5 25t-79.5 65.5t-48.5 93t-16.5 106.5zM140 1107q0 -36 9 -72.5t28.5 -65.5t49.5 -47t72 -18 t71 18.5t48 47.5t28 65t9 72v77q0 37 -9 73.5t-28 66t-49 48t-72 18.5t-71.5 -18.5t-48.5 -48t-28 -66.5t-9 -73v-77zM280 205l594 1088l77 -46l-594 -1088zM673 270v78q1 54 17 106.5t48 93.5t79 66t110 25t110 -25t79 -66t48.5 -93.5t17.5 -106.5v-78q-1 -55 -17 -107 t-48 -93t-79 -66t-109 -25q-63 0 -110.5 25t-79.5 66t-48.5 93t-17.5 107zM770 270q0 -37 9 -73.5t28 -66t49 -47.5t73 -18q42 0 71.5 18t48 47.5t27.5 66t9 73.5v78q0 37 -9 73.5t-27.5 65.5t-48.5 47t-73 18t-72.5 -18t-48.5 -47t-27.5 -65.5t-8.5 -73.5v-78z" />
<glyph unicode="&#x26;" d="M135 362q0 67 22 125.5t59 110t86.5 97.5t105.5 89l9 7q-33 43 -60.5 86t-48 87t-32 89.5t-11.5 93.5q0 73 22.5 134t64.5 104.5t102 67.5t134 24q64 0 116.5 -22.5t90 -61.5t58 -91t20.5 -111q0 -49 -16 -91.5t-42.5 -80t-61.5 -71t-73 -63.5l-118 -100l372 -470 q44 72 68 158t26 178h110q0 -121 -34 -227.5t-100 -196.5l180 -227h-143l-113 142q-77 -74 -170.5 -118t-202.5 -44q-92 0 -169 27t-132.5 77t-87 120.5t-31.5 157.5zM255 362q0 -63 22.5 -115t62 -88.5t94.5 -57t121 -20.5q94 -1 172 37t139 104l-378 479l-10 12l-37 -32 q-90 -77 -138.5 -159.5t-47.5 -159.5zM386 1149q-1 -74 32 -145.5t84 -141.5l132 109q60 46 92.5 101.5t33.5 118.5q0 37 -12.5 70t-35 58.5t-54 40.5t-70.5 15q-49 0 -86.5 -18.5t-63 -49.5t-39 -72t-13.5 -86z" />
<glyph unicode="'" d="M516 1090l5 296v150h107v-141l-18 -305h-94z" />
<glyph unicode="(" d="M381 573v15q0 172 35 334t95.5 300t143 244t178.5 166l29 -81q-85 -61 -152 -161t-113.5 -226.5t-71 -272.5t-24.5 -300v-20q0 -153 24.5 -299.5t71 -273t113.5 -227.5t152 -164l-29 -77q-97 61 -179.5 166.5t-143 243t-95 299t-34.5 334.5z" />
<glyph unicode=")" d="M342 -393q85 61 152 162t113.5 228t71 274t24.5 300v20q0 154 -25.5 301t-72.5 274t-114 227.5t-149 161.5l29 77q96 -60 178.5 -166t143 -244t95.5 -300t35 -334v-15q0 -173 -34.5 -334.5t-95 -299t-143 -243t-179.5 -166.5z" />
<glyph unicode="*" d="M184 964l36 113l380 -142l-11 407h118l-18 -410l373 146l38 -114l-387 -116l268 -320l-98 -71l-244 342l-235 -339l-96 68l262 325z" />
<glyph unicode="+" d="M119 623v117h434v466h120v-466h444v-117h-444v-477h-120v477h-434z" />
<glyph unicode="," d="M385 -247q88 125 88 279v156h128v-153q0 -44 -9.5 -88t-27 -87t-43.5 -82.5t-60 -72.5z" />
<glyph unicode="-" horiz-adv-x="1230" d="M229 601v101h741v-101h-741z" />
<glyph unicode="." d="M542 85q0 42 27.5 71.5t74.5 29.5q48 0 75.5 -29.5t27.5 -71.5t-27.5 -69.5t-75.5 -27.5q-47 0 -74.5 27.5t-27.5 69.5z" />
<glyph unicode="/" d="M279 -125l608 1581h112l-608 -1581h-112z" />
<glyph unicode="0" d="M158 576v303q1 122 28 230.5t83.5 190.5t142.5 129.5t204 47.5q119 0 205.5 -47.5t142.5 -129t83.5 -190.5t27.5 -231v-303q0 -122 -27 -230.5t-83 -189.5t-142 -128.5t-205 -47.5q-118 0 -204.5 47.5t-143 128.5t-84 189.5t-28.5 230.5zM278 558q0 -41 3 -78l657 595 q-14 64 -39 119t-64.5 95t-93.5 63t-125 23q-93 0 -157.5 -39t-104.5 -105t-58 -152t-18 -180v-341zM298 370q15 -62 41 -115t65 -91.5t92 -60.5t122 -22q93 0 157.5 39.5t104 105.5t57.5 152t18 180v341q0 33 -3 65z" />
<glyph unicode="1" d="M219 1132v113l506 211h17v-1456h-120v1305z" />
<glyph unicode="2" d="M98 1036q1 90 33 170t90 140t139.5 95t183.5 35q96 0 174.5 -28.5t134.5 -81t86.5 -126t30.5 -162.5q0 -72 -25.5 -140t-66 -133t-92 -126t-102.5 -119l-407 -459h766v-101h-913v92l477 541q53 60 97.5 115t77 108.5t50.5 107.5t18 111q0 66 -22 121t-62.5 94.5 t-96.5 61.5t-125 22q-77 0 -137 -26t-101.5 -71t-64 -106.5t-23.5 -134.5h-120z" />
<glyph unicode="3" d="M97 395h119q2 -72 29 -130t73.5 -99t109 -63t135.5 -22q71 0 131.5 20t104 59t68 97t24.5 134q0 80 -29.5 136.5t-79.5 92.5t-117 53t-142 18h-121v102h121q70 1 132 20t108.5 55t73.5 88t27 120q0 71 -22 126.5t-62 93.5t-96.5 58t-125.5 20t-127 -21.5t-100.5 -60.5 t-67 -94.5t-25.5 -123.5h-120q2 86 35.5 159.5t91.5 127.5t138 84.5t175 30.5q93 0 171 -27.5t134.5 -79t88 -126.5t31.5 -171q0 -54 -17.5 -103.5t-50.5 -92t-80 -76t-105 -54.5q136 -38 208 -130.5t72 -220.5q0 -98 -34.5 -175t-95 -130t-142 -81.5t-175.5 -28.5 q-96 0 -180 28.5t-147 82t-100 130.5t-39 174z" />
<glyph unicode="4" d="M84 368v68l673 1020h131v-987h228v-101h-228v-368h-119v368h-685zM228 469h541v836l-57 -101z" />
<glyph unicode="5" d="M209 383h116q9 -71 35 -127t68 -95t99 -59.5t128 -20.5q80 0 139 29t98 80.5t57.5 121t18.5 150.5q0 76 -22.5 142t-65.5 115t-104.5 77t-139.5 28q-46 0 -84.5 -6t-72 -19.5t-64 -33t-60.5 -46.5l-95 27l71 710h728v-116h-626l-50 -487q54 37 124 58.5t150 21.5 q99 0 179 -34.5t136 -97t86 -149t30 -188.5q0 -101 -26 -189t-79.5 -153.5t-135 -103.5t-192.5 -38q-91 0 -168.5 27t-136 79t-95 127t-46.5 170z" />
<glyph unicode="6" d="M149 514v129q0 104 16 205.5t50 192.5t88 169t131 134.5t179 89t232 33.5h18v-109h-18q-146 -1 -251 -49t-174 -128.5t-105 -186.5t-43 -221q28 40 67 74t85.5 58t99.5 37.5t109 13.5q105 0 183.5 -40.5t131 -107t78.5 -153t26 -178.5q0 -96 -27.5 -185.5t-82 -158.5 t-135 -111t-186.5 -42q-114 0 -201.5 45.5t-147.5 120t-91 170.5t-32 198zM270 512q0 -94 26 -173.5t72.5 -136.5t111 -89t141.5 -31q76 0 134.5 33t98 87.5t60 125t20.5 145.5t-20.5 143.5t-61 121t-100 84t-138.5 31.5q-57 0 -111.5 -18t-100.5 -50t-80.5 -77.5 t-51.5 -100.5v-95z" />
<glyph unicode="7" d="M125 1349v107h957v-69l-622 -1387h-125l618 1349h-828z" />
<glyph unicode="8" d="M177 386q0 66 20.5 123t57.5 102.5t87.5 80t110.5 55.5q-53 21 -96.5 53.5t-75.5 75t-49.5 94.5t-17.5 111q0 93 32.5 166t89.5 124t134 78t167 27q89 0 167.5 -27t136.5 -78t91.5 -124t33.5 -166q0 -59 -18.5 -111t-50.5 -94.5t-76.5 -75t-97.5 -53.5q60 -21 111.5 -55 t89 -80t58.5 -103t21 -123q0 -99 -37 -175t-100.5 -127t-147.5 -77.5t-177 -26.5q-94 0 -178.5 26t-148 77.5t-100.5 127.5t-37 175zM297 385q0 -74 27.5 -131t74 -95.5t109 -58t133.5 -19.5q69 0 131 20t109 58.5t74.5 95t27.5 130.5q0 72 -28 130t-75.5 98t-110 61.5 t-130.5 21.5q-69 0 -131.5 -21.5t-109 -61.5t-74 -98t-27.5 -130zM334 1082q0 -67 24.5 -119.5t66 -89t97 -56t117.5 -19.5t117.5 19.5t97.5 56t67 89.5t25 119q0 65 -25 119t-67.5 92.5t-98.5 59.5t-118 21q-63 0 -118 -20.5t-96.5 -58t-65 -92t-23.5 -121.5z" />
<glyph unicode="9" d="M155 965q0 98 28.5 189.5t84 163t137.5 114.5t190 44q126 0 213.5 -49.5t143 -131.5t81 -186.5t25.5 -213.5v-116q0 -100 -13.5 -197t-44.5 -184.5t-81.5 -162t-125.5 -129t-177 -85.5t-234 -32h-27l1 108h26q153 1 257.5 47.5t170 125.5t95.5 184t33 224 q-26 -44 -62.5 -80.5t-82.5 -63.5t-101 -42t-119 -15q-104 0 -182 42.5t-130.5 111.5t-79 156.5t-26.5 177.5zM273 970q0 -72 20 -142t60 -125t99 -89t136 -34q60 0 115.5 19.5t102 55t81 84t52.5 106.5v61q0 97 -22 182t-65 148.5t-107 100t-148 36.5q-78 0 -138 -34.5 t-101.5 -90.5t-63 -128.5t-21.5 -149.5z" />
<glyph unicode=":" d="M596 85q0 42 27.5 71.5t74.5 29.5q48 0 75.5 -29.5t27.5 -71.5t-27.5 -69.5t-75.5 -27.5q-47 0 -74.5 27.5t-27.5 69.5zM596 961q0 42 27.5 71.5t74.5 29.5q48 0 75.5 -29.5t27.5 -71.5t-27.5 -69.5t-75.5 -27.5q-47 0 -74.5 27.5t-27.5 69.5z" />
<glyph unicode=";" d="M528 -247q88 125 88 279v156h128v-153q0 -44 -9.5 -88t-27 -87t-43.5 -82.5t-60 -72.5zM592 961q0 42 27.5 71.5t74.5 29.5q48 0 75.5 -29.5t27.5 -71.5t-27.5 -69.5t-75.5 -27.5q-47 0 -74.5 27.5t-27.5 69.5z" />
<glyph unicode="&#x3c;" d="M166 609v96l857 378v-125l-721 -302l721 -300v-126z" />
<glyph unicode="=" d="M174 401v106h892v-106h-892zM174 812v106h892v-106h-892z" />
<glyph unicode="&#x3e;" d="M183 232v123l735 305l-735 302v123l874 -378v-96z" />
<glyph unicode="?" d="M220 1116q3 82 35 148.5t86.5 113.5t128 72.5t159.5 25.5q91 0 164 -26.5t124 -75.5t79 -117.5t28 -153.5q0 -69 -21.5 -129.5t-56.5 -114t-81 -100t-94 -87.5q-33 -30 -54 -59t-34 -61.5t-18 -68.5t-5 -79h-120q1 63 9.5 109.5t26.5 85.5t48.5 74.5t75.5 76.5 q39 37 75.5 75.5t65.5 81t46 90.5t17 105q0 61 -19 111t-54.5 84.5t-86.5 53.5t-115 19q-59 0 -110.5 -17t-90.5 -49t-62.5 -79.5t-25.5 -108.5h-120zM517 72q0 35 23 59.5t62 24.5t63 -24.5t24 -59.5q0 -34 -24 -57t-63 -23t-62 23t-23 57z" />
<glyph unicode="@" d="M62 684q3 103 23 201t56 184.5t88 159t119.5 125t149.5 81.5t178 29q139 0 234 -55t153 -149t82 -219.5t20 -265.5q-2 -45 -8 -98t-18.5 -106t-32 -102t-48.5 -87t-68 -60.5t-89 -22.5q-37 0 -65 13.5t-47.5 36t-32 52.5t-18.5 63q-18 -33 -40 -63t-48.5 -52.5t-57.5 -36 t-66 -13.5q-41 0 -71 17.5t-51 47t-34 68.5t-20 82t-8 87t2 84q8 99 33.5 186t68 151.5t103 102t137.5 37.5q32 0 58 -8t47.5 -20.5t39 -28.5t34.5 -33l-1 -1l-48 -504q-2 -34 1 -67t13.5 -59.5t29.5 -42.5t49 -16q33 0 58.5 18.5t45 49t32.5 71t21 84t12 87.5t5 83 q5 135 -18 245.5t-74 189t-130.5 121t-187.5 42.5q-103 0 -195.5 -46.5t-163.5 -134.5t-115 -216.5t-49 -291.5q-5 -122 16 -232t75.5 -193t147.5 -131.5t233 -48.5q31 0 65.5 5.5t67.5 15t63.5 23t54.5 29.5l27 -81q-27 -19 -61.5 -34.5t-72 -26t-75.5 -16t-72 -5.5 q-110 0 -195.5 26t-148 72.5t-105 111t-67.5 141.5t-34.5 164.5t-6.5 179.5zM430 626q0 -32 3.5 -64.5t11 -62.5t20 -53.5t31.5 -37.5t45 -14q35 0 64 17.5t53 46t43.5 66t34.5 76.5l44 440q-18 14 -40 23.5t-52 9.5q-66 0 -111.5 -34t-75.5 -89t-46 -124.5t-23 -140.5 q-2 -27 -2 -59z" />
<glyph unicode="A" d="M101 0l474 1456h108l470 -1456h-120l-128 406h-554l-129 -406h-121zM385 513h486l-242 766z" />
<glyph unicode="B" d="M194 0v1456h398q88 -1 171.5 -23.5t148.5 -68.5q64 -46 104 -118q39 -70 39 -166q0 -67 -19 -116.5t-51.5 -88t-76.5 -67t-95 -47.5q63 -15 116.5 -46t92.5 -76.5t61.5 -103.5t22.5 -125v-5q0 -93 -36 -167q-37 -76 -100 -128.5t-145.5 -80.5t-172.5 -29h-458zM314 104 h341q66 1 126 22.5t105.5 60.5t72 94.5t26.5 126.5q0 69 -25.5 122.5t-70 90.5t-103 57t-122.5 22h-350v-596zM314 803h293q63 1 122 18t104.5 51t73.5 85t28 121q0 73 -29 124.5t-77 84t-109 48t-125 16.5h-281v-548z" />
<glyph unicode="C" d="M125 622v211q1 76 13.5 153t38.5 148.5t66 133.5t94.5 108.5t125 73t157.5 26.5q106 0 189.5 -35t144.5 -97.5t97.5 -147.5t47.5 -185h-119q-12 75 -38.5 141t-70.5 115.5t-106 78t-145 28.5q-71 0 -126 -24t-96.5 -64t-70.5 -93.5t-47 -113.5t-26.5 -122.5t-8.5 -121.5 v-213q0 -59 8.5 -122t26.5 -123t47 -113.5t70.5 -94t96.5 -64.5t126 -24q84 0 146.5 27.5t106 76.5t70 115t37.5 142h119q-12 -98 -49 -182.5t-98 -147t-144.5 -97.5t-187.5 -35q-87 0 -157.5 26.5t-125 72.5t-94.5 108t-66 133.5t-38.5 148.5t-13.5 153z" />
<glyph unicode="D" d="M177 0v1456h352q140 -2 250 -55t186 -142t116 -207.5t42 -252.5v-143q-2 -134 -42 -252.5t-116 -207.5t-186 -141.5t-250 -54.5h-352zM297 101h232q117 2 205.5 48t147.5 122.5t89.5 176t31.5 208.5v146q-1 108 -31.5 207t-89.5 175t-147.5 122t-205.5 48h-232v-1253z " />
<glyph unicode="E" d="M201 0v1456h855v-105h-736v-549h642v-104h-642v-594h740v-104h-859z" />
<glyph unicode="F" d="M210 0v1456h861v-105h-741v-566h644v-105h-644v-680h-120z" />
<glyph unicode="G" d="M117 631v204q1 76 14.5 153t41 148.5t68.5 133t97 107.5t126.5 72.5t157.5 26.5q97 0 179.5 -31.5t144.5 -88t100.5 -135.5t48.5 -175h-118q-14 70 -42.5 130t-72.5 103t-103.5 67.5t-135.5 24.5q-70 0 -126 -23.5t-98.5 -63t-73 -92t-50 -112t-28.5 -122t-10 -121.5 v-206q1 -61 11.5 -125t31.5 -124.5t53 -114.5t76.5 -94.5t101.5 -64t129 -24.5h14q38 0 79 4q48 6 93.5 20.5t85 39.5t68.5 63l1 376h-345v104h459l2 -518q-43 -51 -95 -88t-110.5 -60.5t-122.5 -34t-130 -10.5q-87 1 -159.5 27.5t-130.5 73t-101 109t-71.5 134.5 t-43.5 150.5t-16 156.5z" />
<glyph unicode="H" d="M159 0v1456h113v-654h684v654h113v-1456h-113v698h-684v-698h-113z" />
<glyph unicode="I" d="M193 0v106h354v1242h-354v108h843v-108h-365v-1242h365v-106h-843z" />
<glyph unicode="J" d="M111 410h122q3 -72 28 -132.5t68.5 -103.5t103.5 -66.5t135 -23.5q76 0 137 29t104.5 78t67 114t25.5 137v1014h122v-1014q-2 -98 -36 -182t-94.5 -146t-143.5 -98t-182 -36t-180.5 30.5t-140.5 87t-94 135.5t-42 177z" />
<glyph unicode="K" d="M200 0v1456h121v-779l179 206l492 573h149l-552 -647l592 -809h-146l-527 721l-187 -199v-522h-121z" />
<glyph unicode="L" d="M220 0v1456h120v-1352h741v-104h-861z" />
<glyph unicode="M" d="M167 0v1456h154l293 -824l312 824h157v-1456h-117v645l9 651l-323 -858h-78l-300 844l10 -637v-645h-117z" />
<glyph unicode="N" d="M161 0v1456h119l668 -1227l1 1227h119v-1456h-119l-668 1229l-1 -1229h-119z" />
<glyph unicode="O" d="M124 631v192q1 74 13.5 151.5t37.5 150t64.5 136.5t93.5 112t123.5 75.5t156.5 27.5t157 -27.5t124.5 -75t93.5 -111.5t64.5 -136.5t37.5 -150t13 -152.5v-192q-1 -74 -13 -151.5t-37.5 -150t-64.5 -136t-92.5 -111t-123.5 -75t-157 -27.5q-86 0 -156 27.5t-124.5 75 t-94 111.5t-65 136.5t-38 149.5t-13.5 151zM242 631q1 -58 9.5 -120.5t26.5 -123t46.5 -115t69.5 -95.5t96 -65.5t125 -24.5q71 0 125.5 24.5t95.5 65.5t69.5 95.5t46 115t25 123t8.5 120.5v194q-1 58 -9 121t-26 123t-46.5 114.5t-69.5 95.5t-96 65t-125 24t-124.5 -24.5 t-95.5 -65.5t-69.5 -95.5t-46.5 -114.5t-26 -123t-9 -120v-194z" />
<glyph unicode="P" d="M216 0v1456h458q96 -2 179.5 -32t146 -85.5t98.5 -134.5t36 -179t-36 -178.5t-98.5 -133t-146.5 -83.5t-179 -30h-338v-600h-120zM336 701h338q72 1 134 24t108 64t72.5 100t26.5 134t-26 136t-72 103.5t-108 66t-135 25.5h-338v-653z" />
<glyph unicode="Q" d="M106 640v174q1 77 14 156t40 153t68.5 138t98 112t128.5 75.5t161 27.5t161.5 -27.5t129 -75t97.5 -112t68.5 -138t40.5 -153t14 -156.5v-174q-1 -83 -16 -167.5t-46 -162t-78.5 -143t-112.5 -110.5l250 -235l-83 -76l-276 257q-33 -11 -69.5 -17t-77.5 -6 q-89 0 -161.5 27.5t-129 75t-98 112t-68.5 137.5t-40.5 152t-14.5 156zM225 640q1 -61 10 -125.5t28.5 -126t50 -116t73.5 -96t100.5 -65.5t130.5 -24t130.5 24t101 65t73 96t48.5 116.5t27.5 126t9.5 125.5v176q-1 61 -9.5 126t-28 126t-49.5 115.5t-73.5 95.5t-101 65 t-130.5 24t-129.5 -24t-100 -65t-73.5 -96t-49.5 -116t-28.5 -125.5t-10 -125.5v-176z" />
<glyph unicode="R" d="M204 0v1456h411q96 -2 181 -31t148.5 -83.5t100 -133.5t36.5 -181q0 -73 -21.5 -133t-59.5 -108.5t-90.5 -85.5t-115.5 -63l332 -624v-13h-125l-319 609h-360v-609h-118zM322 710h317q68 2 127 26t102.5 65.5t68 99.5t24.5 127q0 77 -27 137t-73.5 101.5t-110 63.5 t-136.5 24h-292v-644z" />
<glyph unicode="S" d="M137 405h121q9 -78 41.5 -138.5t83.5 -101t118 -61t144 -20.5q64 0 125.5 16t110.5 49.5t79 85t30 123.5q0 51 -15.5 91.5t-43 72.5t-63.5 56.5t-77 43.5t-84 34t-83 28q-51 16 -103.5 35.5t-102 45t-93 58t-76 73.5t-51 91.5t-18.5 112.5q0 91 40.5 161t105.5 118 t146.5 72.5t164.5 24.5q93 0 177 -30.5t147.5 -85.5t101.5 -133.5t41 -174.5h-121q-8 71 -35 129.5t-72 100.5t-105.5 65.5t-133.5 23.5q-61 0 -120.5 -16.5t-107 -50t-77 -84t-29.5 -118.5q0 -73 34.5 -124t87.5 -86t116.5 -58.5t120.5 -40.5q53 -16 107 -36.5t104.5 -47.5 t94.5 -60.5t76.5 -76.5t51 -95.5t18.5 -116.5q0 -96 -41.5 -167t-107.5 -118.5t-150 -71t-170 -23.5q-96 0 -186 28t-160.5 82t-114.5 133.5t-47 181.5z" />
<glyph unicode="T" d="M94 1351v105h1045v-105h-464v-1351h-117l1 1351h-465z" />
<glyph unicode="U" d="M157 469l2 987h113l3 -987q1 -75 24 -144.5t66 -123t106 -85.5t144 -32t143.5 32t105 85.5t65 123t24.5 144.5l2 987h116l1 -987q-2 -99 -34.5 -188t-91.5 -155.5t-143 -106t-188 -39.5q-105 0 -189 39t-143 106t-92 156t-34 188z" />
<glyph unicode="V" d="M88 1456h127l394 -1275l397 1275h127l-467 -1456h-111z" />
<glyph unicode="W" d="M85 1456h113l150 -1126l8 -102l12 102l212 1126h104l212 -1126l12 -105l9 105l149 1126h112l-205 -1456h-119l-222 1214l-223 -1214h-119z" />
<glyph unicode="X" d="M107 0l453 738l-439 718h141l367 -622l369 622h141l-439 -718l453 -738h-140l-382 642l-383 -642h-141z" />
<glyph unicode="Y" d="M75 1456h139l386 -794l389 794h136l-467 -908l-2 -548h-112l-2 548z" />
<glyph unicode="Z" d="M128 93l765 1258h-741v105h880l1 -88l-767 -1264h794v-104h-930z" />
<glyph unicode="[" d="M452 -312v1976h346v-102h-231v-1772h231v-102h-346z" />
<glyph unicode="\" d="M256 1456h113l608 -1581h-113z" />
<glyph unicode="]" d="M430 -210h230v1772h-230v102h346v-1976h-346v102z" />
<glyph unicode="^" d="M245 667l325 789h89l324 -789h-116l-253 626l-1 2v-2l-252 -626h-116z" />
<glyph unicode="_" d="M173 0h881v-101h-881v101z" />
<glyph unicode="`" d="M453 1498h144l178 -266h-104z" />
<glyph unicode="a" d="M170 287q0 93 41 158t111 105.5t162 59.5t193 19h234v123q-1 61 -24 107.5t-62.5 78t-94 47.5t-118.5 16q-58 0 -110.5 -15t-93 -43t-65.5 -68.5t-27 -91.5l-120 1q3 69 36.5 127t90.5 100.5t132.5 66.5t161.5 24t161.5 -22t131 -66t88 -110t33.5 -154v-524 q0 -54 9.5 -109t23.5 -105l1 -12h-128q-11 33 -17 73.5t-8 82.5q-31 -38 -72 -70t-89.5 -55.5t-104.5 -37t-117 -13.5q-76 0 -141.5 22t-114 62t-76 96.5t-27.5 126.5zM289 297q0 -49 20 -88t54 -66.5t80 -42t99 -14.5h7q59 0 113 15q58 16 106 44.5t85 68t58 86.5v237h-218 q-79 0 -152 -12t-129 -39.5t-89.5 -73.5t-33.5 -115z" />
<glyph unicode="b" d="M199 0v1536h120v-605q55 81 137.5 126t187.5 45q111 0 192 -45.5t133 -122t77.5 -176t25.5 -207.5v-21q0 -105 -25.5 -204.5t-78 -176t-132.5 -123t-190 -46.5q-104 0 -188.5 42.5t-141.5 122.5l-5 -145h-112zM319 280q20 -44 50.5 -80.5t70 -62t86 -39.5t97.5 -14 q91 0 153.5 39t101 102.5t56 143.5t17.5 161v21q0 81 -17 161t-55 143.5t-101.5 103t-156.5 39.5q-54 0 -101 -16t-85.5 -44t-67.5 -67.5t-48 -85.5v-505z" />
<glyph unicode="c" d="M161 520v42q0 105 29.5 202.5t88 172.5t146.5 120t206 45q90 0 166.5 -28.5t133 -80t89.5 -122t37 -154.5h-115q-3 61 -28 113t-66 90t-96.5 59t-120.5 21q-94 0 -160.5 -38t-108.5 -100t-61.5 -140.5t-19.5 -159.5v-42q0 -82 19.5 -161t61.5 -140.5t108.5 -99.5 t161.5 -38q60 0 114.5 17.5t96.5 50.5t68.5 79.5t30.5 105.5h115q-4 -77 -40 -142t-94 -112t-133 -73.5t-158 -26.5q-119 0 -207 45t-146.5 120t-88 172.5t-29.5 202.5z" />
<glyph unicode="d" d="M157 530v21q0 108 27 207.5t80.5 176t134 122t189.5 45.5q103 0 184.5 -44t136.5 -123v601h119v-1536h-112l-5 141q-57 -78 -140 -119.5t-185 -41.5q-107 0 -187.5 46.5t-134 123t-80.5 176t-27 204.5zM278 530q0 -81 17.5 -161t56.5 -143.5t102 -102.5t154 -39 q51 0 96.5 13t84 37.5t69 59t51.5 77.5v524q-20 45 -49.5 82t-67.5 64t-84 42t-98 15q-92 0 -155 -39.5t-102.5 -103t-57 -143.5t-17.5 -161v-21z" />
<glyph unicode="e" d="M149 510v43q1 116 38.5 216t102.5 174t153 116.5t189 42.5q108 0 191 -39t139.5 -106.5t86 -157.5t30.5 -193v-73h-810v-23q1 -85 29 -162.5t79 -136.5t123 -94.5t160 -35.5h5q97 0 176 37q81 38 138 110l76 -57q-30 -42 -71 -77.5t-91.5 -60.5t-110.5 -39t-127 -14 q-113 0 -206 42t-159.5 114t-103 168.5t-37.5 205.5zM274 635h685v13q-2 67 -24.5 130.5t-64 112.5t-101.5 79t-137 30q-73 0 -134 -27.5t-107 -76.5t-76 -115.5t-41 -145.5z" />
<glyph unicode="f" horiz-adv-x="1230" d="M181 984v98h296v86q1 111 34.5 187t91 123.5t134 68t163.5 20.5q57 0 111 -7t110 -20l-15 -102q-42 11 -91 18t-103 7q-65 0 -121.5 -14t-99.5 -47.5t-68 -90.5t-26 -143v-86h431v-98h-431l2 -984h-124l1 984h-295z" />
<glyph unicode="g" d="M159 530v21q0 108 26 207.5t79.5 176t134 122t190.5 45.5q104 0 186.5 -44.5t137.5 -125.5l5 150h112v-1063q-1 -99 -31 -182t-86.5 -142.5t-136.5 -92.5t-180 -33q-48 0 -100 11t-102 34t-95.5 57.5t-79.5 82.5l67 72q129 -156 302 -156q77 0 137 25t100.5 70.5t62 109 t22.5 139.5v123q-57 -76 -139.5 -116.5t-183.5 -40.5q-108 0 -188.5 46.5t-133.5 123t-79.5 176t-26.5 204.5zM279 530q0 -81 17.5 -161t56.5 -143.5t102 -102.5t154 -39q51 0 97 13.5t84.5 38.5t69 60.5t50.5 79.5v515q-20 45 -49 83t-67 65.5t-84 43t-99 15.5 q-92 0 -155 -39.5t-102.5 -103t-57 -143.5t-17.5 -161v-21z" />
<glyph unicode="h" d="M193 0v1536h120v-663q57 104 152 166t217 63q89 0 157.5 -27.5t115 -80t71 -129t24.5 -174.5v-691h-120v691q0 72 -17 129t-51.5 96.5t-86.5 60.5t-122 21q-57 0 -109 -18t-96 -50t-78.5 -75.5t-56.5 -95.5v-759h-120z" />
<glyph unicode="i" d="M221 0v106h382v869h-382v107h502v-976h368v-106h-870zM568 1378q0 37 21 64t70 27q48 0 69.5 -27t21.5 -64q0 -35 -21.5 -61.5t-69.5 -26.5q-49 0 -70 26.5t-21 61.5z" />
<glyph unicode="j" d="M195 -420l8 99q18 -3 44.5 -5.5t54 -4t52.5 -2t40 -0.5q60 0 114 17t94.5 56.5t64.5 103t24 156.5v975h-390v107h510v-1082q0 -102 -27.5 -183t-80 -137.5t-128.5 -86.5t-173 -30q-57 0 -104.5 3.5t-102.5 13.5zM652 1379q0 37 20.5 63.5t69.5 26.5q48 0 70 -26.5 t22 -63.5q0 -35 -22 -61.5t-70 -26.5q-49 0 -69.5 26.5t-20.5 61.5z" />
<glyph unicode="k" d="M216 0v1536h121v-988l129 127l439 407h153l-483 -456l533 -626h-154l-464 547l-153 -137v-410h-121z" />
<glyph unicode="l" d="M221 0v106h384v1323h-384v107h504v-1430h366v-106h-870z" />
<glyph unicode="m" d="M89 0v1082h108l3 -121q33 63 90.5 101.5t145.5 39.5q46 0 81.5 -10.5t61.5 -29.5t44 -45.5t29 -57.5q34 61 93.5 101.5t148.5 41.5q70 0 117 -24t76 -65t41.5 -95t12.5 -114l-1 -804h-112l-1 804q0 35 -7 70t-24.5 63t-49.5 45q-30 16 -75 16h-5q-50 -1 -84.5 -16 t-57 -39t-35 -53.5t-18.5 -59.5l-1 -830h-112l-1 815q0 34 -7 67t-24.5 59t-48.5 42q-29 15 -73 15h-6q-48 -1 -81.5 -15t-56 -37.5t-36 -54t-21.5 -63.5l-1 -828h-113z" />
<glyph unicode="n" d="M193 0v1082h110l9 -203q57 101 152 161.5t216 61.5q178 0 272 -106.5t95 -302.5v-693h-120v691q-1 149 -68 229q-66 79 -205 78h-3q-58 0 -110.5 -19t-96 -52t-77 -78t-54.5 -98v-751h-120z" />
<glyph unicode="o" d="M131 524v33q1 110 34 209t94.5 173.5t151 118.5t202.5 44q114 0 203.5 -44t151.5 -118.5t95 -173.5t34 -209v-33q-1 -110 -33.5 -209t-94.5 -173.5t-151 -118t-203 -43.5t-203.5 43.5t-151.5 118t-95 173.5t-34 209zM251 524q0 -86 24 -166t70 -141.5t113.5 -98.5 t156.5 -37q88 0 155.5 37t113 98.5t69.5 141.5t24 166v33q0 85 -24 165t-70 141.5t-114 99t-156 37.5t-155.5 -37.5t-113 -99t-69.5 -141.5t-24 -165v-33z" />
<glyph unicode="p" d="M196 -416v1498h112l5 -148q57 80 140 124t187 44q111 0 192 -45.5t133 -122t77.5 -176t25.5 -207.5v-21q0 -105 -25.5 -204.5t-78 -176t-132.5 -123t-190 -46.5q-101 0 -185 39t-141 113v-548h-120zM316 263q42 -84 120 -133t179 -49q91 0 154.5 40t103 103.5t57.5 144 t18 161.5v21q0 81 -18 161t-58 143.5t-103.5 103t-155.5 39.5q-52 0 -97.5 -14.5t-83 -41t-67 -63t-49.5 -80.5v-536z" />
<glyph unicode="q" d="M158 530v21q0 108 26 207.5t79.5 176t135 122t192.5 45.5q101 0 182.5 -42.5t137.5 -120.5l6 143h112v-1498h-120v546q-58 -73 -140 -111.5t-180 -38.5q-110 0 -191 46.5t-134 123t-79.5 176t-26.5 204.5zM279 530q0 -81 18 -161.5t57.5 -144t102.5 -103.5t154 -40 q99 0 176.5 49t121.5 131v546q-21 42 -51 77.5t-67.5 61t-82.5 40t-95 14.5q-92 0 -155.5 -40t-103 -103.5t-57.5 -144t-18 -161.5v-21z" />
<glyph unicode="r" d="M359 0v1082h115l8 -188v-22q66 107 175 168.5t252 61.5q45 0 90 -5.5t75 -15.5l-15 -115q-42 9 -84 14t-86 5q-152 0 -258 -72t-149 -221l1 -692h-124z" />
<glyph unicode="s" d="M189 303h120q6 -64 38.5 -107t80 -68.5t103.5 -36t110 -10.5q55 0 109.5 11.5t98 35t71 60t28.5 87.5q0 50 -25 87t-68.5 63.5t-100.5 44.5t-121 31q-78 16 -151 38.5t-130 57.5t-91 85.5t-34 124.5q0 70 35 125t92 93t130 57.5t150 19.5q88 0 164.5 -21.5t134 -63 t91.5 -101.5t37 -137h-120q-2 52 -28 93.5t-69 69.5t-97.5 43t-112.5 15q-54 0 -105.5 -11.5t-92 -35t-65 -59t-24.5 -87.5q-1 -47 23 -81t66.5 -58t99 -39.5t120.5 -28.5q82 -17 156.5 -41.5t131.5 -61t90 -89.5t33 -127q0 -76 -36.5 -132.5t-96 -94t-136 -56t-157.5 -18.5 q-91 0 -171.5 22t-142 63.5t-98.5 101.5t-40 136z" />
<glyph unicode="t" d="M169 984v98h301v277h122v-277h401v-98h-401v-681q1 -63 19.5 -104.5t50 -67t74 -36.5t92.5 -11t102.5 7t89.5 14l18 -91q-43 -17 -105 -25.5t-126 -8.5q-72 0 -133 17.5t-106 56t-71 100t-27 150.5v680h-301z" />
<glyph unicode="u" d="M198 416v666h119v-668q2 -163 66 -247t198 -84q135 0 219 62t117 168l-1 769h121v-1082h-112l-6 169q-54 -89 -142.5 -139t-209.5 -50q-90 0 -158.5 29t-115 85t-71 137t-24.5 185z" />
<glyph unicode="v" d="M107 1082h125l376 -920l5 -21l6 21l372 920h125l-455 -1082h-98z" />
<glyph unicode="w" d="M62 1082h111l151 -731l32 -192l40 192l183 731h84l183 -731l40 -197l35 197l148 731h111l-240 -1082h-97l-191 740l-32 173l-32 -173l-189 -740h-97z" />
<glyph unicode="x" d="M130 0l428 551l-412 531h143l335 -442l336 442h145l-412 -531l428 -551h-142l-353 461l-353 -461h-143z" />
<glyph unicode="y" d="M76 1082h135l389 -862l22 -59l391 921h136l-559 -1255q-22 -49 -52 -96t-71 -84.5t-94.5 -60.5t-122.5 -23q-24 0 -53 4.5t-49 9.5l14 100q17 -2 42.5 -4.5t42.5 -2.5q46 0 84 18t67.5 46.5t52 64t37.5 69.5l74 160z" />
<glyph unicode="z" d="M148 0l1 88l736 891h-714v103h875l-1 -89l-740 -892h793v-101h-950z" />
<glyph unicode="{" d="M330 570v27v22l1 28q136 3 206.5 69.5t71.5 205.5v210q1 84 23 161.5t66.5 140t113 105.5t161.5 58l19 -79q-74 -14 -124 -49.5t-80.5 -87t-44 -115.5t-14.5 -134v-210q-2 -124 -60.5 -208t-173.5 -120q115 -36 173.5 -120.5t60.5 -207.5v-208q1 -71 17 -134t49 -113.5 t82.5 -85.5t116.5 -49l-20 -80q-91 15 -159 57.5t-113.5 104t-68.5 139t-24 161.5v208q-1 140 -71 207t-207 70v27h-1z" />
<glyph unicode="|" d="M564 -332v1788h101v-1788h-101z" />
<glyph unicode="}" d="M330 -324q67 14 116.5 49t82.5 85.5t49 114t17 133.5v208q1 123 60 207.5t174 120.5q-115 36 -174 120t-60 208v210q-1 70 -14.5 134t-44 115.5t-80.5 87t-123 49.5l18 79q93 -15 161.5 -58t113.5 -105.5t67 -140t22 -161.5v-210q1 -139 71.5 -205.5t206.5 -69.5v-28h1 l-1 -25l1 -24h-1v-27q-136 -3 -206.5 -70.5t-71.5 -206.5v-208q0 -84 -23 -161.5t-68.5 -139t-114 -104t-159.5 -57.5z" />
<glyph unicode="~" d="M59 467q1 64 20.5 122t55.5 102t88 70t120 26q46 0 87 -11t79 -30.5t73.5 -46t71.5 -56.5q28 -24 54.5 -45t54.5 -36t57.5 -24t62.5 -9q46 0 81 19t59 50t36.5 72t13.5 85l95 -9q-1 -63 -20.5 -121.5t-56 -103.5t-89 -71.5t-119.5 -26.5q-46 0 -86.5 10.5t-78 30t-73 46 t-71.5 58.5q-27 23 -54 43.5t-55.5 36t-58.5 24t-63 8.5q-46 0 -81 -18t-58.5 -48.5t-36 -70.5t-13.5 -84z" />
<glyph unicode="&#xa0;" />
<glyph unicode="&#xa1;" d="M527 1020q0 35 23.5 59t62.5 24q38 0 62 -24t24 -59q0 -34 -23.5 -58t-62.5 -24t-62.5 23.5t-23.5 58.5zM558 -365v1019h120v-1019h-120z" />
<glyph unicode="&#xa2;" d="M166 520v42q0 97 25.5 189t76.5 165t128 121.5t180 60.5v220h121v-220q78 -9 143.5 -41t113.5 -82t76.5 -116t31.5 -142h-115q-3 61 -28 113t-66 90t-96.5 59t-120.5 21q-94 0 -160.5 -38t-108.5 -100t-61.5 -140.5t-19.5 -159.5v-42q0 -82 19.5 -161t61.5 -140.5 t108.5 -99.5t161.5 -38q60 0 114.5 17.5t96.5 50.5t68.5 79.5t30.5 105.5h115q-4 -70 -34 -130t-79 -106t-114 -75.5t-138 -38.5v-229h-121v229q-103 11 -180 59.5t-128 121.5t-76.5 164.5t-25.5 190.5z" />
<glyph unicode="&#xa3;" d="M134 647v101h184l-9 291q0 93 28 172.5t80.5 138.5t127.5 92.5t169 33.5q91 0 163.5 -28.5t122.5 -80t77 -122.5t28 -156h-120q-1 67 -22 120.5t-57.5 90t-87.5 55.5t-113 19q-66 0 -117.5 -26t-87 -71.5t-53.5 -106.5t-18 -131l9 -291h344v-101h-341l9 -280 q1 -72 -13 -142.5t-52 -123.5h748v-101h-995v101h97q31 12 50.5 42.5t29.5 69.5t13 80t2 74l-9 280h-187z" />
<glyph unicode="&#xa4;" d="M101 60l135 148q-51 77 -77.5 168t-26.5 187q0 99 29 193t83 172l-143 159l84 87l139 -153q62 57 139.5 90t170.5 33t171 -33.5t140 -91.5l141 156l85 -88l-146 -162q53 -78 81 -171t28 -191q0 -94 -26 -184.5t-75 -166.5l138 -152l-85 -87l-130 143q-63 -63 -144 -99.5 t-178 -36.5t-178 36t-144 98l-127 -140zM246 563q0 -85 27 -169.5t77.5 -151.5t122.5 -109t161 -42t160.5 42t122 109t77.5 151.5t27 169.5q0 84 -27 168t-77.5 151t-122 108.5t-160.5 41.5t-160.5 -41.5t-122 -108.5t-78 -150.5t-27.5 -168.5z" />
<glyph unicode="&#xa5;" d="M53 1456h138l423 -723l423 723h139l-454 -751h370v-87h-420v-206h420v-86h-420v-326h-120v326h-414v86h414v206h-414v87h368z" />
<glyph unicode="&#xa6;" d="M543 -270v771h120v-771h-120zM543 698v758h120v-758h-120z" />
<glyph unicode="&#xa7;" d="M105 -64l120 2q2 -86 34 -148t84.5 -103t121 -60.5t143.5 -19.5q69 0 132 16t111 47.5t77 78.5t29 110q0 64 -27.5 108t-77 76.5t-117.5 56t-148 46.5q-91 24 -176.5 54.5t-152.5 76.5t-107 112t-40 162q0 54 16.5 98t46 78.5t70.5 59.5t90 40q-40 23 -73 51t-56 64 t-36 80t-13 98q0 88 38 154.5t102.5 111.5t149.5 67.5t180 22.5q107 0 194 -29t148.5 -84t95 -135t35.5 -183h-120q-2 72 -27.5 132.5t-71.5 104t-110.5 68t-143.5 24.5q-72 0 -135.5 -15.5t-111 -47t-75.5 -79t-28 -110.5q0 -67 27 -112.5t76 -78.5t117.5 -56.5 t151.5 -46.5q91 -25 176.5 -54.5t151.5 -74t105.5 -109t39.5 -159.5q0 -55 -18 -99t-49 -78t-73.5 -57.5t-92.5 -38.5q42 -23 77 -51.5t60 -64.5t38.5 -80.5t13.5 -100.5q0 -90 -38 -157t-102 -111t-149.5 -66t-179.5 -22q-99 0 -189.5 25t-159.5 78t-111 134t-43 194z M231 553q-1 -71 30.5 -118t86 -80t127.5 -57t157 -47q31 -9 61.5 -18t59.5 -19q49 6 93.5 22t79 42t55 63t21.5 87q1 67 -32 114t-89 80.5t-129.5 58.5t-153.5 48q-36 10 -70.5 20t-66.5 21q-48 -6 -90 -22.5t-73 -43t-49 -64.5t-18 -87z" />
<glyph unicode="&#xa8;" d="M310 1396q0 33 22 57t60 24t60.5 -24t22.5 -57q0 -32 -22.5 -55.5t-60.5 -23.5t-60 23.5t-22 55.5zM748 1395q0 33 22 57t60 24t60.5 -24t22.5 -57q0 -32 -22.5 -55.5t-60.5 -23.5t-60 23.5t-22 55.5z" />
<glyph unicode="&#xa9;" d="M87 546q0 105 36.5 205t105.5 178.5t168.5 126.5t225.5 48t225.5 -48t168 -126.5t105 -178.5t36.5 -205q0 -107 -36.5 -208.5t-105 -181.5t-168 -128.5t-225.5 -48.5q-84 0 -156.5 22.5t-132 62t-105.5 93t-77.5 116.5t-48 132.5t-16.5 140.5zM158 546q0 -91 31 -179.5 t90.5 -158.5t146 -113.5t197.5 -43.5t197 43.5t145.5 113.5t90.5 159t31 179q0 89 -31 176t-90.5 155.5t-146 111t-196.5 42.5q-111 0 -197.5 -42.5t-146 -111t-90.5 -155.5t-31 -176zM362 514v67q0 52 14.5 104.5t45.5 94.5t78.5 68.5t114.5 26.5q61 0 106.5 -18t75 -49 t44 -73t13.5 -89h-79q-2 31 -10 59t-26.5 49t-48.5 33.5t-75 12.5q-49 0 -81.5 -20.5t-52.5 -52.5t-29 -70.5t-9 -74.5v-68q0 -36 9 -75.5t29 -72t52.5 -54t81.5 -22.5q45 0 75 13t48 35t26 51t10 60h79q1 -47 -13 -89.5t-43.5 -75t-75 -51t-106.5 -18.5q-67 0 -114.5 27 t-78.5 70t-45.5 96.5t-14.5 105.5z" />
<glyph unicode="&#xaa;" d="M302 908q0 62 26.5 106t72 71.5t105.5 41t127 13.5h159v61q-2 81 -43 129.5t-124 49.5q-39 0 -74.5 -8t-62 -25.5t-43 -44.5t-18.5 -65l-108 6q3 55 27.5 98.5t66 73.5t96 45.5t116.5 15.5q64 0 114.5 -19t86.5 -55t55 -87t20 -115v-314q0 -93 27 -181h-112 q-8 26 -14 53.5t-8 56.5q-36 -53 -97 -88t-142 -36q-53 0 -99.5 14t-80.5 41.5t-53.5 68t-19.5 93.5zM410 912q0 -33 13 -57t35 -39.5t52 -22.5t65 -7q31 0 65 10t64.5 27t54 40t33.5 50v145h-158q-42 0 -82 -8t-71.5 -25.5t-51 -45t-19.5 -67.5z" />
<glyph unicode="&#xab;" d="M244 511v19l295 379h105l-276 -389l276 -388h-105zM579 511v19l295 379h105l-276 -389l276 -388h-105z" />
<glyph unicode="&#xac;" d="M198 670v106h811v-390h-119v284h-692z" />
<glyph unicode="&#xad;" horiz-adv-x="1230" d="M229 601v101h741v-101h-741z" />
<glyph unicode="&#xae;" d="M84 539q0 107 36.5 207.5t105.5 178.5t168.5 125.5t225.5 47.5q84 0 156.5 -21.5t131.5 -60t105.5 -91t77.5 -115t47.5 -131.5t16.5 -140q0 -107 -36.5 -207.5t-105 -179t-168 -126t-225.5 -47.5t-225.5 47.5t-168.5 126t-105.5 179t-36.5 207.5zM154 539 q0 -91 31 -178.5t91 -156.5t146.5 -111t197.5 -42t197 42.5t145.5 111.5t90.5 156.5t31 177.5q0 91 -31 178.5t-90.5 156t-146 110.5t-196.5 42q-111 0 -197.5 -42t-146.5 -110.5t-91 -156t-31 -178.5zM414 234v622h207q105 -2 164.5 -49.5t59.5 -135.5q-1 -58 -36.5 -97 t-100.5 -58l152 -282h-84l-134 257h-148v-257h-80zM494 565h139q63 2 97 31t34 74q1 55 -33.5 82t-109.5 29h-127v-216z" />
<glyph unicode="&#xaf;" d="M279 1359v97h670v-97h-670z" />
<glyph unicode="&#xb0;" d="M370 1226q0 51 19.5 96t53 79.5t78.5 54.5t95 20q49 0 93 -20t77 -54.5t52 -80t19 -95.5q0 -51 -19 -95.5t-51.5 -78t-76.5 -53t-94 -19.5t-95 19.5t-78.5 52.5t-53 78t-19.5 96zM460 1226q0 -33 12 -61t33 -49t49.5 -33t61.5 -12q32 0 59.5 12t48 33t32 49t11.5 61 t-11.5 62t-31.5 50.5t-47.5 34t-60.5 12.5t-61.5 -12.5t-49.5 -34t-33 -50.5t-12 -62z" />
<glyph unicode="&#xb1;" d="M156 728v101h414v438h111v-438h391v-101h-391v-439h-111v439h-414zM203 -1v102h835v-102h-835z" />
<glyph unicode="&#xb2;" d="M331 1217q1 55 23 101t59.5 79t89 51.5t113.5 18.5q57 0 106 -15t85 -44t56 -71t20 -96q0 -42 -15.5 -79.5t-41.5 -73t-59 -69t-69 -67.5l-213 -198h437v-87h-571v75l289 283q28 27 53 53.5t43.5 53t29.5 53.5t11 54q0 33 -12 59t-33.5 44t-50.5 27.5t-63 9.5 q-83 0 -130.5 -43.5t-50.5 -118.5h-106z" />
<glyph unicode="&#xb3;" d="M337 885h106q2 -35 17.5 -61.5t41 -44.5t59 -27.5t71.5 -9.5q37 0 69.5 9t57 27t38.5 44.5t14 61.5q0 41 -17 68.5t-45 43.5t-64 23t-74 7h-78v82h78q36 0 69 8t58.5 24.5t41 41.5t15.5 60q0 33 -12.5 58.5t-35 42.5t-53 26t-66.5 9q-35 0 -65 -8.5t-53.5 -25 t-37.5 -41.5t-16 -57h-105q2 52 24.5 93t60 69t86.5 43t104 15q57 0 107 -14t87.5 -42t59 -69.5t21.5 -96.5q-1 -65 -43 -109t-107 -66q75 -19 120.5 -64.5t45.5 -123.5q0 -56 -23.5 -98t-63 -70.5t-92 -43t-109.5 -14.5q-55 0 -106.5 14t-92 42.5t-66 71.5t-27.5 102z" />
<glyph unicode="&#xb4;" d="M450 1232l184 266h145l-230 -266h-99z" />
<glyph unicode="&#xb5;" d="M206 -416v1498h118v-633q1 -87 17 -155.5t48 -115.5t81 -72t117 -25q72 0 125.5 18t91.5 51t62 78.5t37 100.5v753h120v-1082h-109l-7 162q-46 -84 -122 -132.5t-189 -49.5q-90 0 -158.5 34.5t-113.5 95.5v-526h-118z" />
<glyph unicode="&#xb6;" d="M233 988q0 104 35 190t99.5 147.5t155 95.5t201.5 35h226v-1456h-120v520h-106q-111 0 -201.5 34t-155 95.5t-99.5 147.5t-35 191z" />
<glyph unicode="&#xb7;" d="M534 717q0 34 23 58.5t62 24.5t62.5 -24.5t23.5 -58.5t-23.5 -58t-62.5 -24t-62 24t-23 58z" />
<glyph unicode="&#xb8;" d="M476 -357q33 0 69 6t65 19.5t48.5 36.5t19.5 58q0 32 -14 52t-38.5 31.5t-56.5 17t-66 9.5l28 127h93l-12 -64q33 -5 62.5 -17t52.5 -32t36.5 -50t13.5 -72q0 -52 -24 -89t-64.5 -61.5t-94 -36.5t-111.5 -13z" />
<glyph unicode="&#xb9;" d="M406 1258v90l324 107h13v-790h-105v663z" />
<glyph unicode="&#xba;" d="M291 1024v117q0 70 22.5 131t64 106.5t101.5 71.5t135 26q76 0 135.5 -26t101 -71.5t64 -106.5t22.5 -131v-117q0 -70 -22.5 -131t-63.5 -106t-100.5 -71t-134.5 -26q-76 0 -136 26t-102 71t-64.5 106t-22.5 131zM399 1024q1 -50 14.5 -93.5t40.5 -76t67.5 -51 t94.5 -18.5q52 0 92 19t67 51t40.5 75.5t14.5 93.5v117q-1 49 -15 92.5t-41 76t-67 51.5t-93 19t-93 -19t-67 -51.5t-40.5 -76t-14.5 -92.5v-117z" />
<glyph unicode="&#xbb;" d="M244 162l276 388l-276 394h106l294 -384v-19l-294 -379h-106zM589 162l276 388l-276 394h106l294 -384v-19l-294 -379h-106z" />
<glyph unicode="&#xbc;" d="M82 1210v81l292 96h11v-711h-94v597zM285 227l523 1048l83 -48l-525 -1048zM550 228l358 482h100v-462h114v-80h-114v-168h-95v168h-359zM653 248h260v345l-28 -45z" />
<glyph unicode="&#xbd;" d="M79 1206v81l292 96h11v-711h-94v597zM243 227l523 1048l83 -48l-525 -1048zM598 495q1 50 20.5 91t53.5 71t80 46.5t102 16.5q52 0 96 -13.5t76.5 -39.5t50.5 -64t18 -86q0 -38 -14 -72t-37.5 -66t-53.5 -62t-62 -60l-192 -179h394v-78h-514v68l260 254q25 25 47.5 48.5 t39 47.5t26.5 48.5t10 48.5q0 30 -10.5 53t-30 39.5t-45.5 25t-57 8.5q-75 0 -117.5 -39t-45.5 -107h-95z" />
<glyph unicode="&#xbe;" d="M74 867h95q2 -31 16 -55t37 -40t53 -25t64 -9q33 0 62.5 8.5t51.5 24.5t34.5 40t12.5 55q0 37 -15 62t-40.5 39t-58 20.5t-66.5 6.5h-70v74h70q33 0 62.5 7t52.5 22t37 37.5t14 53.5q0 30 -11.5 53t-31.5 38.5t-47.5 23.5t-59.5 8t-59 -7.5t-48 -22.5t-33.5 -37.5 t-14.5 -51.5h-95q2 47 22.5 84t54 62t77.5 38.5t94 13.5q51 0 96 -12.5t79 -38t53 -62.5t19 -87q-1 -58 -38.5 -97.5t-96.5 -59.5q68 -17 109 -58t41 -111q0 -51 -21.5 -88.5t-57 -63.5t-82.5 -39t-99 -13q-49 0 -95.5 12.5t-83 38.5t-59.5 64.5t-24 91.5zM357 222l523 1048 l83 -48l-525 -1048zM576 229l358 482h100v-462h114v-80h-114v-168h-95v168h-359zM679 249h260v345l-28 -45z" />
<glyph unicode="&#xbf;" d="M232 -14q0 72 21.5 136t57.5 120.5t82 106.5t94 94q30 28 48 54.5t27 54.5t11.5 60t2.5 72h119q-1 -60 -6 -102.5t-20 -77.5t-41 -67t-69 -72q-39 -40 -76.5 -81.5t-66.5 -87.5t-46.5 -97t-17.5 -111q0 -62 17.5 -111.5t51.5 -84t82.5 -53.5t110.5 -19q56 0 103.5 17.5 t82 50.5t55 80t22.5 106h119q-2 -81 -30.5 -147.5t-78.5 -113.5t-119.5 -73t-153.5 -26q-89 0 -159.5 27t-120 75.5t-76 117t-26.5 152.5zM544 1018q0 34 23.5 58.5t62.5 24.5t62 -24.5t23 -58.5t-23 -58t-62 -24t-62.5 24t-23.5 58z" />
<glyph unicode="&#xc0;" d="M101 0l474 1456h108l470 -1456h-120l-128 406h-554l-129 -406h-121zM369 1831h144l178 -266h-104zM385 513h486l-242 766z" />
<glyph unicode="&#xc1;" d="M101 0l474 1456h108l470 -1456h-120l-128 406h-554l-129 -406h-121zM385 513h486l-242 766zM568 1563l184 266h145l-230 -266h-99z" />
<glyph unicode="&#xc2;" d="M101 0l474 1456h108l470 -1456h-120l-128 406h-554l-129 -406h-121zM354 1591v20l238 239h76l241 -242v-17h-111l-169 174l-167 -174h-108zM385 513h486l-242 766z" />
<glyph unicode="&#xc3;" d="M101 0l474 1456h108l470 -1456h-120l-128 406h-554l-129 -406h-121zM300 1624q1 40 14.5 77t38 65t59 44.5t77.5 16.5q42 0 75.5 -17.5t65 -38t64 -37.5t72.5 -17q25 0 45 10t34 26.5t21.5 38.5t9.5 47l79 -15q-2 -41 -15.5 -78t-38 -65t-58.5 -44.5t-77 -16.5 q-47 0 -80.5 17t-63.5 38t-61 38t-72 17q-51 -1 -79 -35t-31 -84zM385 513h486l-242 766z" />
<glyph unicode="&#xc4;" d="M101 0l474 1456h108l470 -1456h-120l-128 406h-554l-129 -406h-121zM322 1729q0 33 22 57t60 24t60.5 -24t22.5 -57q0 -32 -22.5 -55.5t-60.5 -23.5t-60 23.5t-22 55.5zM385 513h486l-242 766zM760 1728q0 33 22 57t60 24t60.5 -24t22.5 -57q0 -32 -22.5 -55.5 t-60.5 -23.5t-60 23.5t-22 55.5z" />
<glyph unicode="&#xc5;" d="M101 0l474 1456h108l470 -1456h-120l-128 406h-554l-129 -406h-121zM385 513h486l-242 766zM444 1717q0 38 14.5 72t39 59.5t58 40t72.5 14.5q38 0 71.5 -14.5t58 -40t39 -59.5t14.5 -72q0 -39 -14.5 -72t-39 -57.5t-58 -38.5t-71.5 -14q-39 0 -72.5 14t-58 38.5 t-39 57.5t-14.5 72zM520 1717q0 -23 8.5 -43t23 -35t34 -24t42.5 -9t42.5 9t33.5 24t22 35t8 43t-8 44t-22 36.5t-33.5 24.5t-42.5 9t-43 -9t-34.5 -24.5t-22.5 -36.5t-8 -44z" />
<glyph unicode="&#xc6;" d="M55 0l552 1456h534v-102h-382l8 -545h332v-102h-330l8 -606h394v-101h-503l-6 389h-342l-140 -389h-125zM361 502h300l-11 798z" />
<glyph unicode="&#xc7;" d="M125 622v211q1 76 13.5 153t38.5 148.5t66 133.5t94.5 108.5t125 73t157.5 26.5q106 0 189.5 -35t144.5 -97.5t97.5 -147.5t47.5 -185h-119q-12 75 -38.5 141t-70.5 115.5t-106 78t-145 28.5q-71 0 -126 -24t-96.5 -64t-70.5 -93.5t-47 -113.5t-26.5 -122.5t-8.5 -121.5 v-213q0 -59 8.5 -122t26.5 -123t47 -113.5t70.5 -94t96.5 -64.5t126 -24q84 0 146.5 27.5t106 76.5t70 115t37.5 142h119q-12 -98 -49 -182.5t-98 -147t-144.5 -97.5t-187.5 -35q-87 0 -157.5 26.5t-125 72.5t-94.5 108t-66 133.5t-38.5 148.5t-13.5 153zM513 -361 q33 0 69 6t65 19.5t48.5 36.5t19.5 58q0 32 -14 52t-38.5 31.5t-56.5 17t-66 9.5l28 127h93l-12 -64q33 -5 62.5 -17t52.5 -32t36.5 -50t13.5 -72q0 -52 -24 -89t-64.5 -61.5t-94 -36.5t-111.5 -13z" />
<glyph unicode="&#xc8;" d="M201 0v1456h855v-105h-736v-549h642v-104h-642v-594h740v-104h-859zM313 1831h144l178 -266h-104z" />
<glyph unicode="&#xc9;" d="M201 0v1456h855v-105h-736v-549h642v-104h-642v-594h740v-104h-859zM512 1563l184 266h145l-230 -266h-99z" />
<glyph unicode="&#xca;" d="M201 0v1456h855v-105h-736v-549h642v-104h-642v-594h740v-104h-859zM298 1591v20l238 239h76l241 -242v-17h-111l-169 174l-167 -174h-108z" />
<glyph unicode="&#xcb;" d="M201 0v1456h855v-105h-736v-549h642v-104h-642v-594h740v-104h-859zM267 1729q0 33 22 57t60 24t60.5 -24t22.5 -57q0 -32 -22.5 -55.5t-60.5 -23.5t-60 23.5t-22 55.5zM705 1728q0 33 22 57t60 24t60.5 -24t22.5 -57q0 -32 -22.5 -55.5t-60.5 -23.5t-60 23.5t-22 55.5z " />
<glyph unicode="&#xcc;" d="M193 0v106h354v1242h-354v108h843v-108h-365v-1242h365v-106h-843zM340 1831h144l178 -266h-104z" />
<glyph unicode="&#xcd;" d="M193 0v106h354v1242h-354v108h843v-108h-365v-1242h365v-106h-843zM539 1563l184 266h145l-230 -266h-99z" />
<glyph unicode="&#xce;" d="M193 0v106h354v1242h-354v108h843v-108h-365v-1242h365v-106h-843zM325 1591v20l238 239h76l241 -242v-17h-111l-169 174l-167 -174h-108z" />
<glyph unicode="&#xcf;" d="M193 0v106h354v1242h-354v108h843v-108h-365v-1242h365v-106h-843zM294 1729q0 33 22 57t60 24t60.5 -24t22.5 -57q0 -32 -22.5 -55.5t-60.5 -23.5t-60 23.5t-22 55.5zM732 1728q0 33 22 57t60 24t60.5 -24t22.5 -57q0 -32 -22.5 -55.5t-60.5 -23.5t-60 23.5t-22 55.5z " />
<glyph unicode="&#xd0;" horiz-adv-x="1259" d="M-45 689v102h252v665h352q140 -2 250 -55t186 -142t116 -207.5t42 -252.5v-143q-2 -134 -42 -252.5t-116 -207.5t-186 -141.5t-250 -54.5h-352v689h-252zM327 101h232q117 2 205.5 48t147.5 122.5t89.5 176t31.5 208.5v146q-1 108 -31.5 207t-89.5 175t-147.5 122 t-205.5 48h-232v-563h240v-102h-240v-588z" />
<glyph unicode="&#xd1;" d="M161 0v1456h119l668 -1227l1 1227h119v-1456h-119l-668 1229l-1 -1229h-119zM282 1624q1 40 14.5 77t38 65t59 44.5t77.5 16.5q42 0 75.5 -17.5t65 -38t64 -37.5t72.5 -17q25 0 45 10t34 26.5t21.5 38.5t9.5 47l79 -15q-2 -41 -15.5 -78t-38 -65t-58.5 -44.5t-77 -16.5 q-47 0 -80.5 17t-63.5 38t-61 38t-72 17q-51 -1 -79 -35t-31 -84z" />
<glyph unicode="&#xd2;" d="M124 631v192q1 74 13.5 151.5t37.5 150t64.5 136.5t93.5 112t123.5 75.5t156.5 27.5t157 -27.5t124.5 -75t93.5 -111.5t64.5 -136.5t37.5 -150t13 -152.5v-192q-1 -74 -13 -151.5t-37.5 -150t-64.5 -136t-92.5 -111t-123.5 -75t-157 -27.5q-86 0 -156 27.5t-124.5 75 t-94 111.5t-65 136.5t-38 149.5t-13.5 151zM242 631q1 -58 9.5 -120.5t26.5 -123t46.5 -115t69.5 -95.5t96 -65.5t125 -24.5q71 0 125.5 24.5t95.5 65.5t69.5 95.5t46 115t25 123t8.5 120.5v194q-1 58 -9 121t-26 123t-46.5 114.5t-69.5 95.5t-96 65t-125 24t-124.5 -24.5 t-95.5 -65.5t-69.5 -95.5t-46.5 -114.5t-26 -123t-9 -120v-194zM367 1852h144l178 -266h-104z" />
<glyph unicode="&#xd3;" d="M124 631v192q1 74 13.5 151.5t37.5 150t64.5 136.5t93.5 112t123.5 75.5t156.5 27.5t157 -27.5t124.5 -75t93.5 -111.5t64.5 -136.5t37.5 -150t13 -152.5v-192q-1 -74 -13 -151.5t-37.5 -150t-64.5 -136t-92.5 -111t-123.5 -75t-157 -27.5q-86 0 -156 27.5t-124.5 75 t-94 111.5t-65 136.5t-38 149.5t-13.5 151zM242 631q1 -58 9.5 -120.5t26.5 -123t46.5 -115t69.5 -95.5t96 -65.5t125 -24.5q71 0 125.5 24.5t95.5 65.5t69.5 95.5t46 115t25 123t8.5 120.5v194q-1 58 -9 121t-26 123t-46.5 114.5t-69.5 95.5t-96 65t-125 24t-124.5 -24.5 t-95.5 -65.5t-69.5 -95.5t-46.5 -114.5t-26 -123t-9 -120v-194zM566 1584l184 266h145l-230 -266h-99z" />
<glyph unicode="&#xd4;" d="M124 631v192q1 74 13.5 151.5t37.5 150t64.5 136.5t93.5 112t123.5 75.5t156.5 27.5t157 -27.5t124.5 -75t93.5 -111.5t64.5 -136.5t37.5 -150t13 -152.5v-192q-1 -74 -13 -151.5t-37.5 -150t-64.5 -136t-92.5 -111t-123.5 -75t-157 -27.5q-86 0 -156 27.5t-124.5 75 t-94 111.5t-65 136.5t-38 149.5t-13.5 151zM242 631q1 -58 9.5 -120.5t26.5 -123t46.5 -115t69.5 -95.5t96 -65.5t125 -24.5q71 0 125.5 24.5t95.5 65.5t69.5 95.5t46 115t25 123t8.5 120.5v194q-1 58 -9 121t-26 123t-46.5 114.5t-69.5 95.5t-96 65t-125 24t-124.5 -24.5 t-95.5 -65.5t-69.5 -95.5t-46.5 -114.5t-26 -123t-9 -120v-194zM352 1612v20l238 239h76l241 -242v-17h-111l-169 174l-167 -174h-108z" />
<glyph unicode="&#xd5;" d="M124 631v192q1 74 13.5 151.5t37.5 150t64.5 136.5t93.5 112t123.5 75.5t156.5 27.5t157 -27.5t124.5 -75t93.5 -111.5t64.5 -136.5t37.5 -150t13 -152.5v-192q-1 -74 -13 -151.5t-37.5 -150t-64.5 -136t-92.5 -111t-123.5 -75t-157 -27.5q-86 0 -156 27.5t-124.5 75 t-94 111.5t-65 136.5t-38 149.5t-13.5 151zM242 631q1 -58 9.5 -120.5t26.5 -123t46.5 -115t69.5 -95.5t96 -65.5t125 -24.5q71 0 125.5 24.5t95.5 65.5t69.5 95.5t46 115t25 123t8.5 120.5v194q-1 58 -9 121t-26 123t-46.5 114.5t-69.5 95.5t-96 65t-125 24t-124.5 -24.5 t-95.5 -65.5t-69.5 -95.5t-46.5 -114.5t-26 -123t-9 -120v-194zM298 1645q1 40 14.5 77t38 65t59 44.5t77.5 16.5q42 0 75.5 -17.5t65 -38t64 -37.5t72.5 -17q25 0 45 10t34 26.5t21.5 38.5t9.5 47l79 -15q-2 -41 -15.5 -78t-38 -65t-58.5 -44.5t-77 -16.5q-47 0 -80.5 17 t-63.5 38t-61 38t-72 17q-51 -1 -79 -35t-31 -84z" />
<glyph unicode="&#xd6;" d="M124 631v192q1 74 13.5 151.5t37.5 150t64.5 136.5t93.5 112t123.5 75.5t156.5 27.5t157 -27.5t124.5 -75t93.5 -111.5t64.5 -136.5t37.5 -150t13 -152.5v-192q-1 -74 -13 -151.5t-37.5 -150t-64.5 -136t-92.5 -111t-123.5 -75t-157 -27.5q-86 0 -156 27.5t-124.5 75 t-94 111.5t-65 136.5t-38 149.5t-13.5 151zM242 631q1 -58 9.5 -120.5t26.5 -123t46.5 -115t69.5 -95.5t96 -65.5t125 -24.5q71 0 125.5 24.5t95.5 65.5t69.5 95.5t46 115t25 123t8.5 120.5v194q-1 58 -9 121t-26 123t-46.5 114.5t-69.5 95.5t-96 65t-125 24t-124.5 -24.5 t-95.5 -65.5t-69.5 -95.5t-46.5 -114.5t-26 -123t-9 -120v-194zM320 1750q0 33 22 57t60 24t60.5 -24t22.5 -57q0 -32 -22.5 -55.5t-60.5 -23.5t-60 23.5t-22 55.5zM758 1749q0 33 22 57t60 24t60.5 -24t22.5 -57q0 -32 -22.5 -55.5t-60.5 -23.5t-60 23.5t-22 55.5z" />
<glyph unicode="&#xd7;" d="M196 179l358 365l-343 350l79 80l342 -350l343 350l79 -80l-343 -350l359 -365l-79 -79l-359 364l-357 -364z" />
<glyph unicode="&#xd8;" d="M110 -84l144 244q-36 48 -62 105t-43.5 118t-26 124t-8.5 124v192q1 74 13.5 151.5t37.5 150t64.5 136.5t93.5 112t123.5 75.5t156.5 27.5q110 0 192 -43t141 -114l110 186h103l-158 -267q52 -93 76 -201t26 -214v-192q-1 -74 -13 -151.5t-37.5 -150t-64.5 -136 t-92.5 -111t-123.5 -75t-157 -27.5q-91 0 -162.5 29.5t-126.5 80.5l-103 -174h-103zM232 631q0 -44 5 -91t15.5 -94t26 -92.5t38.5 -85.5l558 947q-44 68 -110.5 110.5t-161.5 42.5q-70 0 -124.5 -24.5t-95.5 -65.5t-69.5 -95.5t-46.5 -114.5t-26 -123t-9 -120v-194z M373 188q42 -46 99.5 -73.5t132.5 -27.5q71 0 125.5 24.5t95.5 65.5t69.5 95.5t46 115t25 123t8.5 120.5v194q-1 71 -13 147.5t-40 148.5z" />
<glyph unicode="&#xd9;" d="M157 469l2 987h113l3 -987q1 -75 24 -144.5t66 -123t106 -85.5t144 -32t143.5 32t105 85.5t65 123t24.5 144.5l2 987h116l1 -987q-2 -99 -34.5 -188t-91.5 -155.5t-143 -106t-188 -39.5q-105 0 -189 39t-143 106t-92 156t-34 188zM376 1825h144l178 -266h-104z" />
<glyph unicode="&#xda;" d="M157 469l2 987h113l3 -987q1 -75 24 -144.5t66 -123t106 -85.5t144 -32t143.5 32t105 85.5t65 123t24.5 144.5l2 987h116l1 -987q-2 -99 -34.5 -188t-91.5 -155.5t-143 -106t-188 -39.5q-105 0 -189 39t-143 106t-92 156t-34 188zM575 1557l184 266h145l-230 -266h-99z " />
<glyph unicode="&#xdb;" d="M157 469l2 987h113l3 -987q1 -75 24 -144.5t66 -123t106 -85.5t144 -32t143.5 32t105 85.5t65 123t24.5 144.5l2 987h116l1 -987q-2 -99 -34.5 -188t-91.5 -155.5t-143 -106t-188 -39.5q-105 0 -189 39t-143 106t-92 156t-34 188zM361 1585v20l238 239h76l241 -242v-17 h-111l-169 174l-167 -174h-108z" />
<glyph unicode="&#xdc;" d="M157 469l2 987h113l3 -987q1 -75 24 -144.5t66 -123t106 -85.5t144 -32t143.5 32t105 85.5t65 123t24.5 144.5l2 987h116l1 -987q-2 -99 -34.5 -188t-91.5 -155.5t-143 -106t-188 -39.5q-105 0 -189 39t-143 106t-92 156t-34 188zM329 1723q0 33 22 57t60 24t60.5 -24 t22.5 -57q0 -32 -22.5 -55.5t-60.5 -23.5t-60 23.5t-22 55.5zM767 1722q0 33 22 57t60 24t60.5 -24t22.5 -57q0 -32 -22.5 -55.5t-60.5 -23.5t-60 23.5t-22 55.5z" />
<glyph unicode="&#xdd;" d="M75 1456h139l386 -794l389 794h136l-467 -908l-2 -548h-112l-2 548zM540 1556l184 266h145l-230 -266h-99z" />
<glyph unicode="&#xde;" d="M191 0v1456h119v-304h324q104 0 190 -29.5t148 -83t96.5 -130t34.5 -171.5t-34.5 -171.5t-96.5 -130t-148 -83t-190 -29.5h-324v-324h-119zM310 425h324q78 1 142 24t110.5 64t72 97.5t25.5 125.5t-25 127t-71 99.5t-110.5 64.5t-143.5 24h-324v-626z" />
<glyph unicode="&#xdf;" d="M193 0v1116q0 93 24 171.5t69.5 136t113 90t155.5 32.5q69 0 130 -21t106.5 -60t72.5 -96t27 -130q0 -68 -18.5 -121t-41 -99.5t-41.5 -92.5t-18 -100q0 -49 23.5 -88.5t58 -75.5t74.5 -71.5t74 -77.5t57 -93.5t23 -118.5q0 -77 -26.5 -136.5t-73 -101t-108.5 -63 t-133 -21.5q-39 0 -81.5 5t-83 15.5t-76 25t-60.5 34.5l33 101q23 -16 53 -30.5t63.5 -25.5t68.5 -17.5t70 -6.5q52 0 95.5 16t74.5 45t48 69.5t17 90.5q0 54 -23 96t-57.5 79t-74.5 72.5t-74.5 76.5t-58 90t-23.5 113q0 58 19 107t42 96t42 95.5t19 105.5q0 47 -17.5 86 t-46.5 67t-67 43.5t-78 15.5q-65 1 -112 -23.5t-78 -68.5t-46.5 -104.5t-16.5 -131.5v-1116h-119z" />
<glyph unicode="&#xe0;" d="M170 287q0 93 41 158t111 105.5t162 59.5t193 19h234v123q-1 61 -24 107.5t-62.5 78t-94 47.5t-118.5 16q-58 0 -110.5 -15t-93 -43t-65.5 -68.5t-27 -91.5l-120 1q3 69 36.5 127t90.5 100.5t132.5 66.5t161.5 24t161.5 -22t131 -66t88 -110t33.5 -154v-524 q0 -54 9.5 -109t23.5 -105l1 -12h-128q-11 33 -17 73.5t-8 82.5q-31 -38 -72 -70t-89.5 -55.5t-104.5 -37t-117 -13.5q-76 0 -141.5 22t-114 62t-76 96.5t-27.5 126.5zM289 297q0 -49 20 -88t54 -66.5t80 -42t99 -14.5q63 -1 120.5 15t105.5 44.5t85 68t58 86.5v237h-218 q-79 0 -152 -12t-129 -39.5t-89.5 -73.5t-33.5 -115zM374 1510h144l178 -266h-104z" />
<glyph unicode="&#xe1;" d="M170 287q0 93 41 158t111 105.5t162 59.5t193 19h234v123q-1 61 -24 107.5t-62.5 78t-94 47.5t-118.5 16q-58 0 -110.5 -15t-93 -43t-65.5 -68.5t-27 -91.5l-120 1q3 69 36.5 127t90.5 100.5t132.5 66.5t161.5 24t161.5 -22t131 -66t88 -110t33.5 -154v-524 q0 -54 9.5 -109t23.5 -105l1 -12h-128q-11 33 -17 73.5t-8 82.5q-31 -38 -72 -70t-89.5 -55.5t-104.5 -37t-117 -13.5q-76 0 -141.5 22t-114 62t-76 96.5t-27.5 126.5zM289 297q0 -49 20 -88t54 -66.5t80 -42t99 -14.5q63 -1 120.5 15t105.5 44.5t85 68t58 86.5v237h-218 q-79 0 -152 -12t-129 -39.5t-89.5 -73.5t-33.5 -115zM573 1242l184 266h145l-230 -266h-99z" />
<glyph unicode="&#xe2;" d="M170 287q0 93 41 158t111 105.5t162 59.5t193 19h234v123q-1 61 -24 107.5t-62.5 78t-94 47.5t-118.5 16q-58 0 -110.5 -15t-93 -43t-65.5 -68.5t-27 -91.5l-120 1q3 69 36.5 127t90.5 100.5t132.5 66.5t161.5 24t161.5 -22t131 -66t88 -110t33.5 -154v-524 q0 -54 9.5 -109t23.5 -105l1 -12h-128q-11 33 -17 73.5t-8 82.5q-31 -38 -72 -70t-89.5 -55.5t-104.5 -37t-117 -13.5q-76 0 -141.5 22t-114 62t-76 96.5t-27.5 126.5zM289 297q0 -49 20 -88t54 -66.5t80 -42t99 -14.5q63 -1 120.5 15t105.5 44.5t85 68t58 86.5v237h-218 q-79 0 -152 -12t-129 -39.5t-89.5 -73.5t-33.5 -115zM359 1270v20l238 239h76l241 -242v-17h-111l-169 174l-167 -174h-108z" />
<glyph unicode="&#xe3;" d="M170 287q0 93 41 158t111 105.5t162 59.5t193 19h234v123q-1 61 -24 107.5t-62.5 78t-94 47.5t-118.5 16q-58 0 -110.5 -15t-93 -43t-65.5 -68.5t-27 -91.5l-120 1q3 69 36.5 127t90.5 100.5t132.5 66.5t161.5 24t161.5 -22t131 -66t88 -110t33.5 -154v-524 q0 -54 9.5 -109t23.5 -105l1 -12h-128q-11 33 -17 73.5t-8 82.5q-31 -38 -72 -70t-89.5 -55.5t-104.5 -37t-117 -13.5q-76 0 -141.5 22t-114 62t-76 96.5t-27.5 126.5zM289 297q0 -49 20 -88t54 -66.5t80 -42t99 -14.5q63 -1 120.5 15t105.5 44.5t85 68t58 86.5v237h-218 q-79 0 -152 -12t-129 -39.5t-89.5 -73.5t-33.5 -115zM305 1303q1 40 14.5 77t38 65t59 44.5t77.5 16.5q42 0 75.5 -17.5t65 -38t64 -37.5t72.5 -17q25 0 45 10t34 26.5t21.5 38.5t9.5 47l79 -15q-2 -41 -15.5 -78t-38 -65t-58.5 -44.5t-77 -16.5q-47 0 -80.5 17t-63.5 38 t-61 38t-72 17q-51 -1 -79 -35t-31 -84z" />
<glyph unicode="&#xe4;" d="M170 287q0 93 41 158t111 105.5t162 59.5t193 19h234v123q-1 61 -24 107.5t-62.5 78t-94 47.5t-118.5 16q-58 0 -110.5 -15t-93 -43t-65.5 -68.5t-27 -91.5l-120 1q3 69 36.5 127t90.5 100.5t132.5 66.5t161.5 24t161.5 -22t131 -66t88 -110t33.5 -154v-524 q0 -54 9.5 -109t23.5 -105l1 -12h-128q-11 33 -17 73.5t-8 82.5q-31 -38 -72 -70t-89.5 -55.5t-104.5 -37t-117 -13.5q-76 0 -141.5 22t-114 62t-76 96.5t-27.5 126.5zM289 297q0 -49 20 -88t54 -66.5t80 -42t99 -14.5q63 -1 120.5 15t105.5 44.5t85 68t58 86.5v237h-218 q-79 0 -152 -12t-129 -39.5t-89.5 -73.5t-33.5 -115zM327 1408q0 33 22 57t60 24t60.5 -24t22.5 -57q0 -32 -22.5 -55.5t-60.5 -23.5t-60 23.5t-22 55.5zM765 1407q0 33 22 57t60 24t60.5 -24t22.5 -57q0 -32 -22.5 -55.5t-60.5 -23.5t-60 23.5t-22 55.5z" />
<glyph unicode="&#xe5;" d="M170 287q0 93 41 158t111 105.5t162 59.5t193 19h234v123q-1 61 -24 107.5t-62.5 78t-94 47.5t-118.5 16q-58 0 -110.5 -15t-93 -43t-65.5 -68.5t-27 -91.5l-120 1q3 69 36.5 127t90.5 100.5t132.5 66.5t161.5 24t161.5 -22t131 -66t88 -110t33.5 -154v-524 q0 -54 9.5 -109t23.5 -105l1 -12h-128q-11 33 -17 73.5t-8 82.5q-31 -38 -72 -70t-89.5 -55.5t-104.5 -37t-117 -13.5q-76 0 -141.5 22t-114 62t-76 96.5t-27.5 126.5zM289 297q0 -49 20 -88t54 -66.5t80 -42t99 -14.5q63 -1 120.5 15t105.5 44.5t85 68t58 86.5v237h-218 q-79 0 -152 -12t-129 -39.5t-89.5 -73.5t-33.5 -115zM449 1396q0 38 14.5 72t39 59.5t58 40t72.5 14.5q38 0 71.5 -14.5t58 -40t39 -59.5t14.5 -72q0 -39 -14.5 -72t-39 -57.5t-58 -38.5t-71.5 -14q-39 0 -72.5 14t-58 38.5t-39 57.5t-14.5 72zM525 1396q0 -23 8.5 -43 t23 -35t34 -24t42.5 -9t42.5 9t33.5 24t22 35t8 43t-8 44t-22 36.5t-33.5 24.5t-42.5 9t-43 -9t-34.5 -24.5t-22.5 -36.5t-8 -44z" />
<glyph unicode="&#xe6;" d="M47 284q0 77 23.5 141t69.5 110t112.5 71.5t153.5 25.5h131v170q0 37 -7.5 72.5t-26 63t-51.5 45t-85 17.5q-44 0 -79 -14t-59 -39t-36.5 -59.5t-11.5 -75.5l-116 4q-1 65 20.5 117.5t61.5 90t95.5 58t123.5 20.5q101 0 163 -40t92 -105q39 64 101 104.5t150 40.5 q84 0 143 -31.5t96.5 -84t55 -120.5t17.5 -141l-1 -187h-530v-133q0 -59 12 -116.5t41.5 -104t79.5 -75t126 -28.5q39 0 71.5 9t59 23t47.5 32t39 36l37 -87q-18 -22 -43.5 -42.5t-59 -36.5t-75.5 -25.5t-94 -9.5q-110 1 -181.5 48.5t-111.5 124.5q-19 -35 -46.5 -66.5 t-62.5 -55t-77.5 -37.5t-91.5 -14q-68 0 -119 23.5t-86 64.5t-53 96.5t-18 119.5zM165 280q0 -40 11 -76t32.5 -64t54.5 -44t78 -16q30 0 59.5 10t55.5 27t47 39t36 46l-1 334h-130q-58 -1 -103.5 -21.5t-76.5 -55.5t-47 -81t-16 -98zM653 636h418l-1 109q-2 43 -12 88 t-33 82t-60.5 61t-92.5 24q-65 0 -107 -32t-66.5 -80.5t-35 -107t-10.5 -110.5v-34z" />
<glyph unicode="&#xe7;" d="M161 520v42q0 105 29.5 202.5t88 172.5t146.5 120t206 45q90 0 166.5 -28.5t133 -80t89.5 -122t37 -154.5h-115q-3 61 -28 113t-66 90t-96.5 59t-120.5 21q-94 0 -160.5 -38t-108.5 -100t-61.5 -140.5t-19.5 -159.5v-42q0 -82 19.5 -161t61.5 -140.5t108.5 -99.5 t161.5 -38q60 0 114.5 17.5t96.5 50.5t68.5 79.5t30.5 105.5h115q-4 -77 -40 -142t-94 -112t-133 -73.5t-158 -26.5q-119 0 -207 45t-146.5 120t-88 172.5t-29.5 202.5zM531 -361q33 0 69 6t65 19.5t48.5 36.5t19.5 58q0 32 -14 52t-38.5 31.5t-56.5 17t-66 9.5l28 127h93 l-12 -64q33 -5 62.5 -17t52.5 -32t36.5 -50t13.5 -72q0 -52 -24 -89t-64.5 -61.5t-94 -36.5t-111.5 -13z" />
<glyph unicode="&#xe8;" d="M149 510v43q1 116 38.5 216t102.5 174t153 116.5t189 42.5q108 0 191 -39t139.5 -106.5t86 -157.5t30.5 -193v-73h-810v-23q1 -85 29 -162.5t79 -136.5t123 -94.5t160 -35.5q100 -1 181 37t138 110l76 -57q-30 -42 -71 -77.5t-91.5 -60.5t-110.5 -39t-127 -14 q-113 0 -206 42t-159.5 114t-103 168.5t-37.5 205.5zM274 635h685v13q-2 67 -24.5 130.5t-64 112.5t-101.5 79t-137 30q-73 0 -134 -27.5t-107 -76.5t-76 -115.5t-41 -145.5zM365 1510h144l178 -266h-104z" />
<glyph unicode="&#xe9;" d="M149 510v43q1 116 38.5 216t102.5 174t153 116.5t189 42.5q108 0 191 -39t139.5 -106.5t86 -157.5t30.5 -193v-73h-810v-23q1 -85 29 -162.5t79 -136.5t123 -94.5t160 -35.5q100 -1 181 37t138 110l76 -57q-30 -42 -71 -77.5t-91.5 -60.5t-110.5 -39t-127 -14 q-113 0 -206 42t-159.5 114t-103 168.5t-37.5 205.5zM274 635h685v13q-2 67 -24.5 130.5t-64 112.5t-101.5 79t-137 30q-73 0 -134 -27.5t-107 -76.5t-76 -115.5t-41 -145.5zM564 1242l184 266h145l-230 -266h-99z" />
<glyph unicode="&#xea;" d="M149 510v43q1 116 38.5 216t102.5 174t153 116.5t189 42.5q108 0 191 -39t139.5 -106.5t86 -157.5t30.5 -193v-73h-810v-23q1 -85 29 -162.5t79 -136.5t123 -94.5t160 -35.5q100 -1 181 37t138 110l76 -57q-30 -42 -71 -77.5t-91.5 -60.5t-110.5 -39t-127 -14 q-113 0 -206 42t-159.5 114t-103 168.5t-37.5 205.5zM274 635h685v13q-2 67 -24.5 130.5t-64 112.5t-101.5 79t-137 30q-73 0 -134 -27.5t-107 -76.5t-76 -115.5t-41 -145.5zM350 1270v20l238 239h76l241 -242v-17h-111l-169 174l-167 -174h-108z" />
<glyph unicode="&#xeb;" d="M149 510v43q1 116 38.5 216t102.5 174t153 116.5t189 42.5q108 0 191 -39t139.5 -106.5t86 -157.5t30.5 -193v-73h-810v-23q1 -85 29 -162.5t79 -136.5t123 -94.5t160 -35.5q100 -1 181 37t138 110l76 -57q-30 -42 -71 -77.5t-91.5 -60.5t-110.5 -39t-127 -14 q-113 0 -206 42t-159.5 114t-103 168.5t-37.5 205.5zM274 635h685v13q-2 67 -24.5 130.5t-64 112.5t-101.5 79t-137 30q-73 0 -134 -27.5t-107 -76.5t-76 -115.5t-41 -145.5zM318 1408q0 33 22 57t60 24t60.5 -24t22.5 -57q0 -32 -22.5 -55.5t-60.5 -23.5t-60 23.5t-22 55.5 zM756 1407q0 33 22 57t60 24t60.5 -24t22.5 -57q0 -32 -22.5 -55.5t-60.5 -23.5t-60 23.5t-22 55.5z" />
<glyph unicode="&#xec;" d="M221 0v106h382v869h-382v107h502v-976h368v-106h-870zM403 1520h144l178 -266h-104z" />
<glyph unicode="&#xed;" d="M221 0v106h382v869h-382v107h502v-976h368v-106h-870zM602 1252l184 266h145l-230 -266h-99z" />
<glyph unicode="&#xee;" d="M221 0v106h382v869h-382v107h502v-976h368v-106h-870zM388 1280v20l238 239h76l241 -242v-17h-111l-169 174l-167 -174h-108z" />
<glyph unicode="&#xef;" d="M221 0v106h382v869h-382v107h502v-976h368v-106h-870zM356 1418q0 33 22 57t60 24t60.5 -24t22.5 -57q0 -32 -22.5 -55.5t-60.5 -23.5t-60 23.5t-22 55.5zM794 1417q0 33 22 57t60 24t60.5 -24t22.5 -57q0 -32 -22.5 -55.5t-60.5 -23.5t-60 23.5t-22 55.5z" />
<glyph unicode="&#xf0;" d="M86 466q0 109 34 200.5t96.5 158t151 103.5t197.5 37q100 0 188 -39.5t148 -108.5q-23 132 -77 235t-134 183l-251 -139l-51 74l231 127q-60 48 -130 84.5t-148 64.5l39 104q203 -67 349 -192l226 125l52 -73l-211 -117q115 -124 178 -290.5t64 -379.5v-71 q0 -117 -33 -220.5t-95.5 -181.5t-153 -124t-205.5 -46q-101 0 -186 37.5t-147 103.5t-97 155t-35 190zM207 466q0 -77 25.5 -146.5t71 -122t109.5 -83.5t142 -31q91 0 159 39t113 104t68 149.5t23 176.5v73q0 15 -0.5 30t-1.5 29q-20 40 -55.5 72.5t-81.5 56t-101 36 t-113 12.5q-85 0 -151.5 -31t-112.5 -84.5t-70 -125.5t-24 -154z" />
<glyph unicode="&#xf1;" d="M193 0v1082h110l9 -203q57 101 152 161.5t216 61.5q178 0 272 -106.5t95 -302.5v-693h-120v691q-1 149 -68 228.5t-208 78.5q-58 0 -110.5 -19t-96 -52t-77 -78t-54.5 -98v-751h-120zM277 1302q1 40 14.5 77t38 65t59 44.5t77.5 16.5q42 0 75.5 -17.5t65 -38t64 -37.5 t72.5 -17q25 0 45 10t34 26.5t21.5 38.5t9.5 47l79 -15q-2 -41 -15.5 -78t-38 -65t-58.5 -44.5t-77 -16.5q-47 0 -80.5 17t-63.5 38t-61 38t-72 17q-51 -1 -79 -35t-31 -84z" />
<glyph unicode="&#xf2;" d="M131 524v33q1 110 34 209t94.5 173.5t151 118.5t202.5 44q114 0 203.5 -44t151.5 -118.5t95 -173.5t34 -209v-33q-1 -110 -33.5 -209t-94.5 -173.5t-151 -118t-203 -43.5t-203.5 43.5t-151.5 118t-95 173.5t-34 209zM251 524q0 -86 24 -166t70 -141.5t113.5 -98.5 t156.5 -37q88 0 155.5 37t113 98.5t69.5 141.5t24 166v33q0 85 -24 165t-70 141.5t-114 99t-156 37.5t-155.5 -37.5t-113 -99t-69.5 -141.5t-24 -165v-33zM355 1509h144l178 -266h-104z" />
<glyph unicode="&#xf3;" d="M131 524v33q1 110 34 209t94.5 173.5t151 118.5t202.5 44q114 0 203.5 -44t151.5 -118.5t95 -173.5t34 -209v-33q-1 -110 -33.5 -209t-94.5 -173.5t-151 -118t-203 -43.5t-203.5 43.5t-151.5 118t-95 173.5t-34 209zM251 524q0 -86 24 -166t70 -141.5t113.5 -98.5 t156.5 -37q88 0 155.5 37t113 98.5t69.5 141.5t24 166v33q0 85 -24 165t-70 141.5t-114 99t-156 37.5t-155.5 -37.5t-113 -99t-69.5 -141.5t-24 -165v-33zM554 1241l184 266h145l-230 -266h-99z" />
<glyph unicode="&#xf4;" d="M131 524v33q1 110 34 209t94.5 173.5t151 118.5t202.5 44q114 0 203.5 -44t151.5 -118.5t95 -173.5t34 -209v-33q-1 -110 -33.5 -209t-94.5 -173.5t-151 -118t-203 -43.5t-203.5 43.5t-151.5 118t-95 173.5t-34 209zM251 524q0 -86 24 -166t70 -141.5t113.5 -98.5 t156.5 -37q88 0 155.5 37t113 98.5t69.5 141.5t24 166v33q0 85 -24 165t-70 141.5t-114 99t-156 37.5t-155.5 -37.5t-113 -99t-69.5 -141.5t-24 -165v-33zM340 1269v20l238 239h76l241 -242v-17h-111l-169 174l-167 -174h-108z" />
<glyph unicode="&#xf5;" d="M131 524v33q1 110 34 209t94.5 173.5t151 118.5t202.5 44q114 0 203.5 -44t151.5 -118.5t95 -173.5t34 -209v-33q-1 -110 -33.5 -209t-94.5 -173.5t-151 -118t-203 -43.5t-203.5 43.5t-151.5 118t-95 173.5t-34 209zM251 524q0 -86 24 -166t70 -141.5t113.5 -98.5 t156.5 -37q88 0 155.5 37t113 98.5t69.5 141.5t24 166v33q0 85 -24 165t-70 141.5t-114 99t-156 37.5t-155.5 -37.5t-113 -99t-69.5 -141.5t-24 -165v-33zM286 1302q1 40 14.5 77t38 65t59 44.5t77.5 16.5q42 0 75.5 -17.5t65 -38t64 -37.5t72.5 -17q25 0 45 10t34 26.5 t21.5 38.5t9.5 47l79 -15q-2 -41 -15.5 -78t-38 -65t-58.5 -44.5t-77 -16.5q-47 0 -80.5 17t-63.5 38t-61 38t-72 17q-51 -1 -79 -35t-31 -84z" />
<glyph unicode="&#xf6;" d="M131 524v33q1 110 34 209t94.5 173.5t151 118.5t202.5 44q114 0 203.5 -44t151.5 -118.5t95 -173.5t34 -209v-33q-1 -110 -33.5 -209t-94.5 -173.5t-151 -118t-203 -43.5t-203.5 43.5t-151.5 118t-95 173.5t-34 209zM251 524q0 -86 24 -166t70 -141.5t113.5 -98.5 t156.5 -37q88 0 155.5 37t113 98.5t69.5 141.5t24 166v33q0 85 -24 165t-70 141.5t-114 99t-156 37.5t-155.5 -37.5t-113 -99t-69.5 -141.5t-24 -165v-33zM309 1407q0 33 22 57t60 24t60.5 -24t22.5 -57q0 -32 -22.5 -55.5t-60.5 -23.5t-60 23.5t-22 55.5zM747 1406 q0 33 22 57t60 24t60.5 -24t22.5 -57q0 -32 -22.5 -55.5t-60.5 -23.5t-60 23.5t-22 55.5z" />
<glyph unicode="&#xf7;" d="M115 644v116h998v-116h-998zM538 292q0 32 22 56t60 24t60.5 -24t22.5 -56q0 -33 -22.5 -56.5t-60.5 -23.5t-60 23.5t-22 56.5zM539 1087q0 33 22 57t60 24t60.5 -24t22.5 -57q0 -32 -22.5 -55.5t-60.5 -23.5t-60 23.5t-22 55.5z" />
<glyph unicode="&#xf8;" d="M131 524v33q1 110 34 209t94.5 173.5t151 118.5t202.5 44q54 0 102 -10.5t91 -29.5l74 152h93l-94 -192q52 -36 92.5 -86.5t68 -110.5t42 -128t15.5 -140v-33q-1 -110 -33.5 -209t-94.5 -173.5t-151 -118t-203 -43.5q-63 0 -118 13.5t-103 38.5l-84 -172h-93l107 218 q-47 37 -82.5 86t-60 106t-37.5 121.5t-13 132.5zM251 524q0 -100 31.5 -190t91.5 -153l385 786q-32 16 -68.5 24.5t-77.5 8.5q-88 0 -155.5 -37.5t-113 -99t-69.5 -141.5t-24 -165v-33zM441 127q75 -46 174 -46q88 0 155.5 37t113 98.5t69.5 141.5t24 166v33q0 53 -10 105 t-28.5 99t-46 88t-63.5 72z" />
<glyph unicode="&#xf9;" d="M198 416v666h119v-668q2 -163 66 -247t198 -84q135 0 219 62t117 168l-1 769h121v-1082h-112l-6 169q-54 -89 -142.5 -139t-209.5 -50q-90 0 -158.5 29t-115 85t-71 137t-24.5 185zM338 1501h144l178 -266h-104z" />
<glyph unicode="&#xfa;" d="M198 416v666h119v-668q2 -163 66 -247t198 -84q135 0 219 62t117 168l-1 769h121v-1082h-112l-6 169q-54 -89 -142.5 -139t-209.5 -50q-90 0 -158.5 29t-115 85t-71 137t-24.5 185zM537 1233l184 266h145l-230 -266h-99z" />
<glyph unicode="&#xfb;" d="M198 416v666h119v-668q2 -163 66 -247t198 -84q135 0 219 62t117 168l-1 769h121v-1082h-112l-6 169q-54 -89 -142.5 -139t-209.5 -50q-90 0 -158.5 29t-115 85t-71 137t-24.5 185zM323 1261v20l238 239h76l241 -242v-17h-111l-169 174l-167 -174h-108z" />
<glyph unicode="&#xfc;" d="M198 416v666h119v-668q2 -163 66 -247t198 -84q135 0 219 62t117 168l-1 769h121v-1082h-112l-6 169q-54 -89 -142.5 -139t-209.5 -50q-90 0 -158.5 29t-115 85t-71 137t-24.5 185zM292 1399q0 33 22 57t60 24t60.5 -24t22.5 -57q0 -32 -22.5 -55.5t-60.5 -23.5t-60 23.5 t-22 55.5zM730 1398q0 33 22 57t60 24t60.5 -24t22.5 -57q0 -32 -22.5 -55.5t-60.5 -23.5t-60 23.5t-22 55.5z" />
<glyph unicode="&#xfd;" d="M76 1082h135l389 -862l22 -59l391 921h136l-559 -1255q-22 -49 -52 -96t-71 -84.5t-94.5 -60.5t-122.5 -23q-24 0 -53 4.5t-49 9.5l14 100q17 -2 42.5 -4.5t42.5 -2.5q46 0 84 18t67.5 46.5t52 64t37.5 69.5l74 160zM570 1233l184 266h145l-230 -266h-99z" />
<glyph unicode="&#xfe;" d="M196 -416v1962h120v-613q58 81 144 125t193 44q108 0 186.5 -45.5t129 -122t75 -176t24.5 -207.5v-21q0 -105 -24.5 -204.5t-75.5 -176t-128.5 -123t-184.5 -46.5q-105 0 -192 40.5t-147 116.5v-553h-120zM316 265q44 -85 125.5 -134.5t186.5 -49.5q88 0 149 40t99 103.5 t55 144t17 161.5v21q0 81 -17.5 161t-55.5 143.5t-99.5 103t-149.5 39.5q-54 0 -101.5 -15t-87 -41.5t-70 -63.5t-51.5 -82v-531z" />
<glyph unicode="&#xff;" d="M76 1082h135l389 -862l22 -59l391 921h136l-559 -1255q-22 -49 -52 -96t-71 -84.5t-94.5 -60.5t-122.5 -23q-24 0 -53 4.5t-49 9.5l14 100q17 -2 42.5 -4.5t42.5 -2.5q46 0 84 18t67.5 46.5t52 64t37.5 69.5l74 160zM324 1399q0 33 22 57t60 24t60.5 -24t22.5 -57 q0 -32 -22.5 -55.5t-60.5 -23.5t-60 23.5t-22 55.5zM762 1398q0 33 22 57t60 24t60.5 -24t22.5 -57q0 -32 -22.5 -55.5t-60.5 -23.5t-60 23.5t-22 55.5z" />
<glyph unicode="&#x152;" d="M76 540v375q0 104 23.5 203.5t73 177.5t127.5 125.5t188 48.5q63 1 124.5 -3t120.5 -11h453v-102h-440v-553h381v-102h-381v-598h445v-101h-458q-59 -6 -119.5 -11t-123.5 -4q-110 1 -188.5 48.5t-128.5 125.5t-73.5 177.5t-23.5 203.5zM195 540q0 -87 14.5 -168.5 t48.5 -144.5t90.5 -101.5t141.5 -39.5q35 -1 69.5 0t69.5 4v1274q-35 3 -70 4t-70 1q-86 -1 -142 -39.5t-90 -101t-48 -143.5t-14 -168v-377z" />
<glyph unicode="&#x153;" d="M27 451v179q0 86 19 170.5t59.5 151.5t104 108.5t153.5 41.5q52 0 95 -14t77.5 -39.5t61 -60.5t46.5 -77q19 42 45 77t59 60.5t72 39.5t86 14q83 0 141 -34.5t94.5 -92t53.5 -132t17 -154.5l-2 -162h-503v-91q0 -60 11 -123t36 -114.5t66 -84.5t101 -33q38 0 70 8 t58.5 20.5t48.5 29t40 32.5l41 -82q-21 -21 -47 -41t-57.5 -35t-70 -24t-83.5 -9q-101 1 -169.5 53t-107.5 134q-20 -41 -46.5 -75.5t-61 -59.5t-77 -38.5t-93.5 -13.5q-91 0 -155 41t-104.5 108t-59.5 151t-19 171zM147 451q0 -63 10 -128.5t35 -119.5t67 -88t106 -34 q63 0 104 34.5t66 88t35.5 119t10.5 128.5v179q0 62 -10.5 127.5t-35.5 119.5t-67 88.5t-105 34.5t-104.5 -34.5t-66 -88.5t-35 -119.5t-10.5 -127.5v-179zM706 628h387v83q1 45 -8 96t-31 93.5t-58.5 71t-90.5 28.5q-57 0 -95 -34t-61 -87.5t-33 -117.5t-10 -124v-9z" />
<glyph unicode="&#x178;" d="M75 1456h139l386 -794l389 794h136l-467 -908l-2 -548h-112l-2 548zM295 1722q0 33 22 57t60 24t60.5 -24t22.5 -57q0 -32 -22.5 -55.5t-60.5 -23.5t-60 23.5t-22 55.5zM733 1721q0 33 22 57t60 24t60.5 -24t22.5 -57q0 -32 -22.5 -55.5t-60.5 -23.5t-60 23.5t-22 55.5z " />
<glyph unicode="&#x2c6;" d="M289 1258v20l238 239h76l241 -242v-17h-111l-169 174l-167 -174h-108z" />
<glyph unicode="&#x2dc;" d="M147 1281q1 40 14.5 77t38 65t59 44.5t77.5 16.5q42 0 75.5 -17.5t65 -38t64 -37.5t72.5 -17q25 0 45 10t34 26.5t21.5 38.5t9.5 47l79 -15q-2 -41 -15.5 -78t-38 -65t-58.5 -44.5t-77 -16.5q-47 0 -80.5 17t-63.5 38t-61 38t-72 17q-51 -1 -79 -35t-31 -84z" />
<glyph unicode="&#x2000;" horiz-adv-x="951" />
<glyph unicode="&#x2001;" horiz-adv-x="1903" />
<glyph unicode="&#x2002;" horiz-adv-x="951" />
<glyph unicode="&#x2003;" horiz-adv-x="1903" />
<glyph unicode="&#x2004;" horiz-adv-x="634" />
<glyph unicode="&#x2005;" horiz-adv-x="475" />
<glyph unicode="&#x2006;" horiz-adv-x="317" />
<glyph unicode="&#x2007;" horiz-adv-x="317" />
<glyph unicode="&#x2008;" horiz-adv-x="237" />
<glyph unicode="&#x2009;" horiz-adv-x="380" />
<glyph unicode="&#x200a;" horiz-adv-x="105" />
<glyph unicode="&#x2010;" horiz-adv-x="1230" d="M229 601v101h741v-101h-741z" />
<glyph unicode="&#x2011;" horiz-adv-x="1230" d="M229 601v101h741v-101h-741z" />
<glyph unicode="&#x2012;" horiz-adv-x="1230" d="M229 601v101h741v-101h-741z" />
<glyph unicode="&#x2013;" d="M34 686v102h1085v-102h-1085z" />
<glyph unicode="&#x2014;" d="M45 686v102h1085v-102h-1085z" />
<glyph unicode="&#x2018;" d="M527 1105v124q0 43 9 88t26.5 87.5t43.5 82t60 72.5l69 -51q-45 -64 -67.5 -131t-23.5 -145v-127h-117z" />
<glyph unicode="&#x2019;" d="M493 1144q45 63 67.5 130t23.5 146v126h118v-124q0 -44 -9.5 -88.5t-27 -87t-43.5 -82t-60 -72.5z" />
<glyph unicode="&#x201a;" d="M476 -189q45 63 68 130t23 145v140h120v-138q0 -43 -9.5 -87.5t-27 -87t-43.5 -82t-60 -72.5z" />
<glyph unicode="&#x201c;" d="M365 1105v124q0 43 9 88t26.5 87.5t43.5 82t60 72.5l69 -51q-45 -64 -67.5 -131t-23.5 -145v-127h-117zM675 1105v124q0 43 9 88t26.5 87.5t43.5 82t60 72.5l69 -51q-45 -64 -67.5 -131t-23.5 -145v-127h-117z" />
<glyph unicode="&#x201d;" d="M366 1144q45 63 67.5 130t23.5 146v126h118v-124q0 -44 -9.5 -88.5t-27 -87t-43.5 -82t-60 -72.5zM676 1144q45 63 67.5 130t23.5 146v126h118v-124q0 -44 -9.5 -88.5t-27 -87t-43.5 -82t-60 -72.5z" />
<glyph unicode="&#x201e;" d="M344 -190q45 64 67.5 130.5t23.5 144.5v140h119v-138q0 -43 -9 -87.5t-26.5 -87t-43.5 -82t-60 -72.5zM593 -190q45 64 67.5 130.5t23.5 144.5v140h119v-138q0 -43 -9 -87.5t-26.5 -87t-43.5 -82t-60 -72.5z" />
<glyph unicode="&#x2022;" d="M428 717v43q1 39 14.5 72t37.5 57t58 37t75 13t75 -13t58.5 -37t38 -57t14.5 -72v-43q-1 -39 -14.5 -71.5t-37.5 -56t-58 -36.5t-75 -13t-75 13t-58.5 36.5t-38 56t-14.5 71.5z" />
<glyph unicode="&#x2026;" d="M260 85q0 42 27.5 71.5t74.5 29.5q48 0 75.5 -29.5t27.5 -71.5t-27.5 -69.5t-75.5 -27.5q-47 0 -74.5 27.5t-27.5 69.5zM620 85q0 42 27.5 71.5t74.5 29.5q48 0 75.5 -29.5t27.5 -71.5t-27.5 -69.5t-75.5 -27.5q-47 0 -74.5 27.5t-27.5 69.5zM970 85q0 42 27.5 71.5 t74.5 29.5q48 0 75.5 -29.5t27.5 -71.5t-27.5 -69.5t-75.5 -27.5q-47 0 -74.5 27.5t-27.5 69.5z" />
<glyph unicode="&#x202f;" horiz-adv-x="380" />
<glyph unicode="&#x2039;" d="M414 546v19l295 379h105l-276 -389l276 -388h-105z" />
<glyph unicode="&#x203a;" d="M414 162l276 388l-276 394h106l294 -384v-19l-294 -379h-106z" />
<glyph unicode="&#x205f;" horiz-adv-x="475" />
<glyph unicode="&#x20ac;" d="M122 564v88h192v164h-192v89h192v3q1 132 38.5 237t107 178.5t167.5 113t219 39.5q60 0 116.5 -8.5t114.5 -22.5l-9 -106q-53 16 -108.5 25.5t-113.5 9.5q-97 0 -173 -31.5t-129 -91.5t-81.5 -146t-28.5 -195v-5h419v-89h-419v-164h419v-88h-419v-17q0 -108 29 -194.5 t82 -147t130 -93t173 -32.5q57 0 112 8.5t108 25.5l9 -104q-55 -15 -112 -23t-117 -8q-121 0 -219.5 39t-168 112.5t-107.5 179t-39 237.5v17h-192z" />
<glyph unicode="&#x2122;" d="M104 1387v69h391v-69h-159v-468h-74v468h-158zM577 919v537h91l159 -430l160 430h91v-537h-73v416l-152 -416h-52l-151 423v-423h-73z" />
<glyph unicode="&#x25fc;" horiz-adv-x="1080" d="M0 0v1080h1080v-1080h-1080z" />
</font>
</defs>
</svg>
